<?xml version="1.0" encoding="utf-8" standalone="no"?>
<!DOCTYPE svg PUBLIC "-//W3C//DTD SVG 1.1//EN"
  "http://www.w3.org/Graphics/SVG/1.1/DTD/svg11.dtd">
<svg xmlns:xlink="http://www.w3.org/1999/xlink" width="460.8pt" height="345.6pt" viewBox="0 0 460.8 345.6" xmlns="http://www.w3.org/2000/svg" version="1.1">
 <metadata>
  <rdf:RDF xmlns:dc="http://purl.org/dc/elements/1.1/" xmlns:cc="http://creativecommons.org/ns#" xmlns:rdf="http://www.w3.org/1999/02/22-rdf-syntax-ns#">
   <cc:Work>
    <dc:type rdf:resource="http://purl.org/dc/dcmitype/StillImage"/>
    <dc:date>2024-11-04T14:20:15.991375</dc:date>
    <dc:format>image/svg+xml</dc:format>
    <dc:creator>
     <cc:Agent>
      <dc:title>Matplotlib v3.9.2, https://matplotlib.org/</dc:title>
     </cc:Agent>
    </dc:creator>
   </cc:Work>
  </rdf:RDF>
 </metadata>
 <defs>
  <style type="text/css">*{stroke-linejoin: round; stroke-linecap: butt}</style>
 </defs>
 <g id="figure_1">
  <g id="patch_1">
   <path d="M 0 345.6 
L 460.8 345.6 
L 460.8 0 
L 0 0 
z
" style="fill: #ffffff"/>
  </g>
  <g id="axes_1">
   <g id="patch_2">
    <path d="M 57.6 307.584 
L 414.72 307.584 
L 414.72 41.472 
L 57.6 41.472 
z
" style="fill: #ffffff"/>
   </g>
   <g id="matplotlib.axis_1">
    <g id="xtick_1">
     <g id="line2d_1">
      <defs>
       <path id="m27c5483319" d="M 0 0 
L 0 3.5 
" style="stroke: #000000; stroke-width: 0.8"/>
      </defs>
      <g>
       <use xlink:href="#m27c5483319" x="106.298182" y="307.584" style="stroke: #000000; stroke-width: 0.8"/>
      </g>
     </g>
     <g id="text_1">
      <!-- −4 -->
      <g transform="translate(98.927088 322.182437) scale(0.1 -0.1)">
       <defs>
        <path id="DejaVuSans-2212" d="M 678 2272 
L 4684 2272 
L 4684 1741 
L 678 1741 
L 678 2272 
z
" transform="scale(0.015625)"/>
        <path id="DejaVuSans-34" d="M 2419 4116 
L 825 1625 
L 2419 1625 
L 2419 4116 
z
M 2253 4666 
L 3047 4666 
L 3047 1625 
L 3713 1625 
L 3713 1100 
L 3047 1100 
L 3047 0 
L 2419 0 
L 2419 1100 
L 313 1100 
L 313 1709 
L 2253 4666 
z
" transform="scale(0.015625)"/>
       </defs>
       <use xlink:href="#DejaVuSans-2212"/>
       <use xlink:href="#DejaVuSans-34" x="83.789062"/>
      </g>
     </g>
    </g>
    <g id="xtick_2">
     <g id="line2d_2">
      <g>
       <use xlink:href="#m27c5483319" x="171.229091" y="307.584" style="stroke: #000000; stroke-width: 0.8"/>
      </g>
     </g>
     <g id="text_2">
      <!-- −2 -->
      <g transform="translate(163.857997 322.182437) scale(0.1 -0.1)">
       <defs>
        <path id="DejaVuSans-32" d="M 1228 531 
L 3431 531 
L 3431 0 
L 469 0 
L 469 531 
Q 828 903 1448 1529 
Q 2069 2156 2228 2338 
Q 2531 2678 2651 2914 
Q 2772 3150 2772 3378 
Q 2772 3750 2511 3984 
Q 2250 4219 1831 4219 
Q 1534 4219 1204 4116 
Q 875 4013 500 3803 
L 500 4441 
Q 881 4594 1212 4672 
Q 1544 4750 1819 4750 
Q 2544 4750 2975 4387 
Q 3406 4025 3406 3419 
Q 3406 3131 3298 2873 
Q 3191 2616 2906 2266 
Q 2828 2175 2409 1742 
Q 1991 1309 1228 531 
z
" transform="scale(0.015625)"/>
       </defs>
       <use xlink:href="#DejaVuSans-2212"/>
       <use xlink:href="#DejaVuSans-32" x="83.789062"/>
      </g>
     </g>
    </g>
    <g id="xtick_3">
     <g id="line2d_3">
      <g>
       <use xlink:href="#m27c5483319" x="236.16" y="307.584" style="stroke: #000000; stroke-width: 0.8"/>
      </g>
     </g>
     <g id="text_3">
      <!-- 0 -->
      <g transform="translate(232.97875 322.182437) scale(0.1 -0.1)">
       <defs>
        <path id="DejaVuSans-30" d="M 2034 4250 
Q 1547 4250 1301 3770 
Q 1056 3291 1056 2328 
Q 1056 1369 1301 889 
Q 1547 409 2034 409 
Q 2525 409 2770 889 
Q 3016 1369 3016 2328 
Q 3016 3291 2770 3770 
Q 2525 4250 2034 4250 
z
M 2034 4750 
Q 2819 4750 3233 4129 
Q 3647 3509 3647 2328 
Q 3647 1150 3233 529 
Q 2819 -91 2034 -91 
Q 1250 -91 836 529 
Q 422 1150 422 2328 
Q 422 3509 836 4129 
Q 1250 4750 2034 4750 
z
" transform="scale(0.015625)"/>
       </defs>
       <use xlink:href="#DejaVuSans-30"/>
      </g>
     </g>
    </g>
    <g id="xtick_4">
     <g id="line2d_4">
      <g>
       <use xlink:href="#m27c5483319" x="301.090909" y="307.584" style="stroke: #000000; stroke-width: 0.8"/>
      </g>
     </g>
     <g id="text_4">
      <!-- 2 -->
      <g transform="translate(297.909659 322.182437) scale(0.1 -0.1)">
       <use xlink:href="#DejaVuSans-32"/>
      </g>
     </g>
    </g>
    <g id="xtick_5">
     <g id="line2d_5">
      <g>
       <use xlink:href="#m27c5483319" x="366.021818" y="307.584" style="stroke: #000000; stroke-width: 0.8"/>
      </g>
     </g>
     <g id="text_5">
      <!-- 4 -->
      <g transform="translate(362.840568 322.182437) scale(0.1 -0.1)">
       <use xlink:href="#DejaVuSans-34"/>
      </g>
     </g>
    </g>
   </g>
   <g id="matplotlib.axis_2">
    <g id="ytick_1">
     <g id="line2d_6">
      <defs>
       <path id="m177041a708" d="M 0 0 
L -3.5 0 
" style="stroke: #000000; stroke-width: 0.8"/>
      </defs>
      <g>
       <use xlink:href="#m177041a708" x="57.6" y="295.498984" style="stroke: #000000; stroke-width: 0.8"/>
      </g>
     </g>
     <g id="text_6">
      <!-- 0.0 -->
      <g transform="translate(34.696875 299.298202) scale(0.1 -0.1)">
       <defs>
        <path id="DejaVuSans-2e" d="M 684 794 
L 1344 794 
L 1344 0 
L 684 0 
L 684 794 
z
" transform="scale(0.015625)"/>
       </defs>
       <use xlink:href="#DejaVuSans-30"/>
       <use xlink:href="#DejaVuSans-2e" x="63.623047"/>
       <use xlink:href="#DejaVuSans-30" x="95.410156"/>
      </g>
     </g>
    </g>
    <g id="ytick_2">
     <g id="line2d_7">
      <g>
       <use xlink:href="#m177041a708" x="57.6" y="247.11059" style="stroke: #000000; stroke-width: 0.8"/>
      </g>
     </g>
     <g id="text_7">
      <!-- 0.2 -->
      <g transform="translate(34.696875 250.909809) scale(0.1 -0.1)">
       <use xlink:href="#DejaVuSans-30"/>
       <use xlink:href="#DejaVuSans-2e" x="63.623047"/>
       <use xlink:href="#DejaVuSans-32" x="95.410156"/>
      </g>
     </g>
    </g>
    <g id="ytick_3">
     <g id="line2d_8">
      <g>
       <use xlink:href="#m177041a708" x="57.6" y="198.722197" style="stroke: #000000; stroke-width: 0.8"/>
      </g>
     </g>
     <g id="text_8">
      <!-- 0.4 -->
      <g transform="translate(34.696875 202.521415) scale(0.1 -0.1)">
       <use xlink:href="#DejaVuSans-30"/>
       <use xlink:href="#DejaVuSans-2e" x="63.623047"/>
       <use xlink:href="#DejaVuSans-34" x="95.410156"/>
      </g>
     </g>
    </g>
    <g id="ytick_4">
     <g id="line2d_9">
      <g>
       <use xlink:href="#m177041a708" x="57.6" y="150.333803" style="stroke: #000000; stroke-width: 0.8"/>
      </g>
     </g>
     <g id="text_9">
      <!-- 0.6 -->
      <g transform="translate(34.696875 154.133022) scale(0.1 -0.1)">
       <defs>
        <path id="DejaVuSans-36" d="M 2113 2584 
Q 1688 2584 1439 2293 
Q 1191 2003 1191 1497 
Q 1191 994 1439 701 
Q 1688 409 2113 409 
Q 2538 409 2786 701 
Q 3034 994 3034 1497 
Q 3034 2003 2786 2293 
Q 2538 2584 2113 2584 
z
M 3366 4563 
L 3366 3988 
Q 3128 4100 2886 4159 
Q 2644 4219 2406 4219 
Q 1781 4219 1451 3797 
Q 1122 3375 1075 2522 
Q 1259 2794 1537 2939 
Q 1816 3084 2150 3084 
Q 2853 3084 3261 2657 
Q 3669 2231 3669 1497 
Q 3669 778 3244 343 
Q 2819 -91 2113 -91 
Q 1303 -91 875 529 
Q 447 1150 447 2328 
Q 447 3434 972 4092 
Q 1497 4750 2381 4750 
Q 2619 4750 2861 4703 
Q 3103 4656 3366 4563 
z
" transform="scale(0.015625)"/>
       </defs>
       <use xlink:href="#DejaVuSans-30"/>
       <use xlink:href="#DejaVuSans-2e" x="63.623047"/>
       <use xlink:href="#DejaVuSans-36" x="95.410156"/>
      </g>
     </g>
    </g>
    <g id="ytick_5">
     <g id="line2d_10">
      <g>
       <use xlink:href="#m177041a708" x="57.6" y="101.94541" style="stroke: #000000; stroke-width: 0.8"/>
      </g>
     </g>
     <g id="text_10">
      <!-- 0.8 -->
      <g transform="translate(34.696875 105.744629) scale(0.1 -0.1)">
       <defs>
        <path id="DejaVuSans-38" d="M 2034 2216 
Q 1584 2216 1326 1975 
Q 1069 1734 1069 1313 
Q 1069 891 1326 650 
Q 1584 409 2034 409 
Q 2484 409 2743 651 
Q 3003 894 3003 1313 
Q 3003 1734 2745 1975 
Q 2488 2216 2034 2216 
z
M 1403 2484 
Q 997 2584 770 2862 
Q 544 3141 544 3541 
Q 544 4100 942 4425 
Q 1341 4750 2034 4750 
Q 2731 4750 3128 4425 
Q 3525 4100 3525 3541 
Q 3525 3141 3298 2862 
Q 3072 2584 2669 2484 
Q 3125 2378 3379 2068 
Q 3634 1759 3634 1313 
Q 3634 634 3220 271 
Q 2806 -91 2034 -91 
Q 1263 -91 848 271 
Q 434 634 434 1313 
Q 434 1759 690 2068 
Q 947 2378 1403 2484 
z
M 1172 3481 
Q 1172 3119 1398 2916 
Q 1625 2713 2034 2713 
Q 2441 2713 2670 2916 
Q 2900 3119 2900 3481 
Q 2900 3844 2670 4047 
Q 2441 4250 2034 4250 
Q 1625 4250 1398 4047 
Q 1172 3844 1172 3481 
z
" transform="scale(0.015625)"/>
       </defs>
       <use xlink:href="#DejaVuSans-30"/>
       <use xlink:href="#DejaVuSans-2e" x="63.623047"/>
       <use xlink:href="#DejaVuSans-38" x="95.410156"/>
      </g>
     </g>
    </g>
    <g id="ytick_6">
     <g id="line2d_11">
      <g>
       <use xlink:href="#m177041a708" x="57.6" y="53.557016" style="stroke: #000000; stroke-width: 0.8"/>
      </g>
     </g>
     <g id="text_11">
      <!-- 1.0 -->
      <g transform="translate(34.696875 57.356235) scale(0.1 -0.1)">
       <defs>
        <path id="DejaVuSans-31" d="M 794 531 
L 1825 531 
L 1825 4091 
L 703 3866 
L 703 4441 
L 1819 4666 
L 2450 4666 
L 2450 531 
L 3481 531 
L 3481 0 
L 794 0 
L 794 531 
z
" transform="scale(0.015625)"/>
       </defs>
       <use xlink:href="#DejaVuSans-31"/>
       <use xlink:href="#DejaVuSans-2e" x="63.623047"/>
       <use xlink:href="#DejaVuSans-30" x="95.410156"/>
      </g>
     </g>
    </g>
   </g>
   <g id="line2d_12">
    <path d="M 73.832727 53.568 
L 116.405045 53.708193 
L 132.654021 53.967927 
L 143.378346 54.351307 
L 151.177854 54.83867 
L 157.677445 55.464808 
L 162.877117 56.17733 
L 167.42683 57.012895 
L 171.651564 58.02126 
L 175.226339 59.095855 
L 178.476134 60.289362 
L 181.72593 61.731153 
L 184.650745 63.280141 
L 187.250581 64.889926 
L 189.850418 66.751089 
L 192.450254 68.89757 
L 195.05009 71.366066 
L 197.324947 73.820783 
L 199.599803 76.579093 
L 201.87466 79.668639 
L 204.149517 83.116817 
L 206.424373 86.949894 
L 208.69923 91.191935 
L 210.974087 95.863543 
L 213.573923 101.748402 
L 216.173759 108.227676 
L 218.773595 115.300473 
L 221.698411 123.944228 
L 224.948206 134.336466 
L 228.522981 146.584887 
L 233.072695 163.058804 
L 244.771957 205.885334 
L 248.346732 217.91842 
L 251.596527 228.071301 
L 254.521343 236.476656 
L 257.121179 243.32799 
L 259.721016 249.583652 
L 262.320852 255.248312 
L 264.920688 260.339462 
L 267.195545 264.345033 
L 269.470401 267.955053 
L 271.745258 271.194987 
L 274.020115 274.091867 
L 276.294971 276.673326 
L 278.894808 279.272531 
L 281.494644 281.535331 
L 284.09448 283.499356 
L 286.694316 285.199615 
L 289.619132 286.836981 
L 292.543948 288.222219 
L 295.793743 289.509783 
L 299.368518 290.669968 
L 303.268272 291.685 
L 307.493006 292.548312 
L 312.367699 293.306794 
L 317.892351 293.935091 
L 324.391941 294.448855 
L 332.516429 294.861277 
L 343.240753 295.169182 
L 358.839771 295.37272 
L 386.46303 295.475947 
L 398.487273 295.488 
L 398.487273 295.488 
" clip-path="url(#p6e384510fb)" style="fill: none; stroke: #1f77b4; stroke-width: 1.5; stroke-linecap: square"/>
   </g>
   <g id="line2d_13">
    <path d="M 73.832727 61.890755 
L 79.0324 61.242978 
L 81.307256 61.177607 
L 83.257133 61.314442 
L 85.207011 61.665292 
L 87.156888 62.246919 
L 89.106765 63.05676 
L 91.381622 64.258497 
L 94.306437 66.098637 
L 100.481048 70.10218 
L 102.755905 71.255712 
L 104.705782 71.989671 
L 106.655659 72.454206 
L 108.280557 72.630174 
L 110.230434 72.604327 
L 112.505291 72.305842 
L 116.080066 71.52807 
L 119.004881 70.976543 
L 120.954758 70.841283 
L 122.579656 70.952884 
L 124.204554 71.316652 
L 125.504472 71.81105 
L 127.129369 72.69816 
L 128.754267 73.885396 
L 130.379165 75.356591 
L 132.329042 77.447386 
L 134.928878 80.632095 
L 140.45353 87.595877 
L 142.403407 89.655147 
L 144.028305 91.065392 
L 145.653202 92.145456 
L 146.95312 92.752503 
L 148.253038 93.126748 
L 149.552957 93.27493 
L 150.852875 93.21408 
L 152.477772 92.886163 
L 154.427649 92.222309 
L 159.302342 90.359399 
L 160.92724 90.062629 
L 162.227158 90.068342 
L 163.527076 90.342034 
L 164.502015 90.746954 
L 165.476953 91.337335 
L 166.776871 92.427792 
L 168.07679 93.873059 
L 169.376708 95.669214 
L 171.001605 98.379086 
L 172.626503 101.542552 
L 174.90136 106.543946 
L 181.40095 121.324474 
L 183.025848 124.325572 
L 184.325766 126.337982 
L 185.625684 127.952304 
L 186.600622 128.881533 
L 187.575561 129.560644 
L 188.5505 129.987966 
L 189.525438 130.16785 
L 190.500377 130.110749 
L 191.475315 129.83316 
L 192.450254 129.357421 
L 193.750172 128.463708 
L 195.37507 127.044087 
L 199.924783 122.858799 
L 201.224701 122.07052 
L 202.19964 121.719353 
L 203.174578 121.61784 
L 204.149517 121.800736 
L 205.124455 122.297391 
L 206.099394 123.130893 
L 207.074333 124.317342 
L 208.049271 125.865252 
L 209.02421 127.775118 
L 210.324128 130.869999 
L 211.624046 134.552077 
L 213.248943 139.875771 
L 215.198821 147.073047 
L 221.698411 171.89533 
L 223.323309 176.83133 
L 224.623227 180.05294 
L 225.598165 181.980271 
L 226.573104 183.454097 
L 227.548043 184.45385 
L 228.198002 184.85155 
L 228.847961 185.033567 
L 229.49792 185.001852 
L 230.147879 184.760614 
L 230.797838 184.316317 
L 231.772776 183.288766 
L 232.747715 181.86294 
L 234.047633 179.428427 
L 235.672531 175.733192 
L 238.272367 169.627573 
L 239.572285 167.19306 
L 240.547224 165.767234 
L 241.522162 164.739683 
L 242.172121 164.295386 
L 242.82208 164.054148 
L 243.472039 164.022433 
L 244.121998 164.20445 
L 244.771957 164.60215 
L 245.421916 165.215258 
L 246.396855 166.53284 
L 247.371794 168.311906 
L 248.346732 170.525314 
L 249.64665 174.088366 
L 251.271548 179.37046 
L 253.221425 186.58577 
L 259.396036 210.301821 
L 261.020934 215.476245 
L 262.320852 219.016839 
L 263.62077 221.957413 
L 264.920688 224.263043 
L 265.895627 225.569421 
L 266.870565 226.519148 
L 267.845504 227.125851 
L 268.820442 227.410365 
L 269.795381 227.400041 
L 270.770319 227.127935 
L 271.745258 226.631885 
L 273.045176 225.694478 
L 274.995053 223.913649 
L 278.244848 220.853928 
L 279.544767 219.896532 
L 280.844685 219.22284 
L 281.819623 218.945251 
L 282.794562 218.88815 
L 283.7695 219.068034 
L 284.744439 219.495356 
L 285.719378 220.174467 
L 286.694316 221.103696 
L 287.994234 222.718018 
L 289.294152 224.730428 
L 290.91905 227.731526 
L 292.868927 231.882165 
L 296.118722 239.473073 
L 299.043538 246.141781 
L 300.993415 250.077838 
L 302.618313 252.884722 
L 303.918231 254.766336 
L 305.218149 256.300241 
L 306.518067 257.479007 
L 307.817985 258.309046 
L 309.117903 258.809806 
L 310.417821 259.012485 
L 311.71774 258.958332 
L 313.017658 258.696601 
L 314.967535 258.036037 
L 319.842228 256.169837 
L 321.467125 255.84192 
L 322.767043 255.78107 
L 324.066962 255.929252 
L 325.36688 256.303497 
L 326.666798 256.910544 
L 327.966716 257.746982 
L 329.591613 259.09443 
L 331.216511 260.735084 
L 333.491368 263.40473 
L 341.290876 273.038515 
L 343.240753 274.89824 
L 344.865651 276.144151 
L 346.490549 277.091696 
L 348.115446 277.739348 
L 349.740344 278.103116 
L 351.365242 278.214717 
L 353.315119 278.079457 
L 355.589975 277.671906 
L 361.114627 276.549331 
L 363.064505 276.408384 
L 365.014382 276.508685 
L 366.639279 276.799363 
L 368.589156 277.40105 
L 370.539034 278.259331 
L 372.81389 279.526993 
L 376.063686 281.642922 
L 380.613399 284.606688 
L 382.888256 285.843388 
L 384.838133 286.68959 
L 386.78801 287.309976 
L 388.737887 287.698623 
L 390.687764 287.86921 
L 392.962621 287.834736 
L 395.887437 287.534596 
L 398.487273 287.165245 
L 398.487273 287.165245 
" clip-path="url(#p6e384510fb)" style="fill: none; stroke: #ff7f0e; stroke-width: 1.5; stroke-linecap: square"/>
   </g>
   <g id="patch_3">
    <path d="M 57.6 307.584 
L 57.6 41.472 
" style="fill: none; stroke: #000000; stroke-width: 0.8; stroke-linejoin: miter; stroke-linecap: square"/>
   </g>
   <g id="patch_4">
    <path d="M 414.72 307.584 
L 414.72 41.472 
" style="fill: none; stroke: #000000; stroke-width: 0.8; stroke-linejoin: miter; stroke-linecap: square"/>
   </g>
   <g id="patch_5">
    <path d="M 57.6 307.584 
L 414.72 307.584 
" style="fill: none; stroke: #000000; stroke-width: 0.8; stroke-linejoin: miter; stroke-linecap: square"/>
   </g>
   <g id="patch_6">
    <path d="M 57.6 41.472 
L 414.72 41.472 
" style="fill: none; stroke: #000000; stroke-width: 0.8; stroke-linejoin: miter; stroke-linecap: square"/>
   </g>
  </g>
 </g>
 <defs>
  <clipPath id="p6e384510fb">
   <rect x="57.6" y="41.472" width="357.12" height="266.112"/>
  </clipPath>
 </defs>
</svg>
