<?xml version="1.0" encoding="utf-8" standalone="no"?>
<!DOCTYPE svg PUBLIC "-//W3C//DTD SVG 1.1//EN"
  "http://www.w3.org/Graphics/SVG/1.1/DTD/svg11.dtd">
<svg xmlns:xlink="http://www.w3.org/1999/xlink" width="576pt" height="288pt" viewBox="0 0 576 288" xmlns="http://www.w3.org/2000/svg" version="1.1">
 <metadata>
  <rdf:RDF xmlns:dc="http://purl.org/dc/elements/1.1/" xmlns:cc="http://creativecommons.org/ns#" xmlns:rdf="http://www.w3.org/1999/02/22-rdf-syntax-ns#">
   <cc:Work>
    <dc:type rdf:resource="http://purl.org/dc/dcmitype/StillImage"/>
    <dc:date>2025-05-07T21:40:08.279772</dc:date>
    <dc:format>image/svg+xml</dc:format>
    <dc:creator>
     <cc:Agent>
      <dc:title>Matplotlib v3.9.2, https://matplotlib.org/</dc:title>
     </cc:Agent>
    </dc:creator>
   </cc:Work>
  </rdf:RDF>
 </metadata>
 <defs>
  <style type="text/css">*{stroke-linejoin: round; stroke-linecap: butt}</style>
 </defs>
 <g id="figure_1">
  <g id="patch_1">
   <path d="M 0 288 
L 576 288 
L 576 0 
L 0 0 
z
" style="fill: #ffffff"/>
  </g>
  <g id="axes_1">
   <g id="patch_2">
    <path d="M 45.56 244.6 
L 181.851867 244.6 
L 181.851867 49.2 
L 45.56 49.2 
z
" style="fill: #ffffff"/>
   </g>
   <g id="matplotlib.axis_1">
    <g id="xtick_1">
     <g id="line2d_1">
      <defs>
       <path id="me7500722f7" d="M 0 0 
L 0 3.5 
" style="stroke: #000000; stroke-width: 0.8"/>
      </defs>
      <g>
       <use xlink:href="#me7500722f7" x="51.57906" y="244.6" style="stroke: #000000; stroke-width: 0.8"/>
      </g>
     </g>
     <g id="text_1">
      <!-- 0.00 -->
      <g transform="translate(42.408747 259.003125) scale(0.1 -0.1)">
       <defs>
        <path id="SegoeUI-30" d="M 3188 2259 
Q 3188 1697 3086 1262 
Q 2984 828 2792 529 
Q 2600 231 2320 76 
Q 2041 -78 1684 -78 
Q 1347 -78 1083 70 
Q 819 219 637 503 
Q 456 788 362 1202 
Q 269 1616 269 2150 
Q 269 2738 367 3188 
Q 466 3638 656 3942 
Q 847 4247 1130 4401 
Q 1413 4556 1778 4556 
Q 3188 4556 3188 2259 
z
M 2663 2209 
Q 2663 4122 1753 4122 
Q 794 4122 794 2175 
Q 794 359 1734 359 
Q 2663 359 2663 2209 
z
" transform="scale(0.015625)"/>
        <path id="SegoeUI-2e" d="M 697 -69 
Q 553 -69 451 34 
Q 350 138 350 281 
Q 350 425 451 529 
Q 553 634 697 634 
Q 844 634 947 529 
Q 1050 425 1050 281 
Q 1050 138 947 34 
Q 844 -69 697 -69 
z
" transform="scale(0.015625)"/>
       </defs>
       <use xlink:href="#SegoeUI-30"/>
       <use xlink:href="#SegoeUI-2e" x="53.90625"/>
       <use xlink:href="#SegoeUI-30" x="75.585938"/>
       <use xlink:href="#SegoeUI-30" x="129.492188"/>
      </g>
     </g>
    </g>
    <g id="xtick_2">
     <g id="line2d_2">
      <g>
       <use xlink:href="#me7500722f7" x="112.718997" y="244.6" style="stroke: #000000; stroke-width: 0.8"/>
      </g>
     </g>
     <g id="text_2">
      <!-- 0.01 -->
      <g transform="translate(103.548684 259.003125) scale(0.1 -0.1)">
       <defs>
        <path id="SegoeUI-31" d="M 2263 0 
L 1750 0 
L 1750 3872 
Q 1691 3813 1577 3736 
Q 1463 3659 1320 3584 
Q 1178 3509 1020 3443 
Q 863 3378 713 3341 
L 713 3859 
Q 881 3906 1070 3986 
Q 1259 4066 1442 4164 
Q 1625 4263 1787 4370 
Q 1950 4478 2069 4581 
L 2263 4581 
L 2263 0 
z
" transform="scale(0.015625)"/>
       </defs>
       <use xlink:href="#SegoeUI-30"/>
       <use xlink:href="#SegoeUI-2e" x="53.90625"/>
       <use xlink:href="#SegoeUI-30" x="75.585938"/>
       <use xlink:href="#SegoeUI-31" x="129.492188"/>
      </g>
     </g>
    </g>
    <g id="xtick_3">
     <g id="line2d_3">
      <g>
       <use xlink:href="#me7500722f7" x="173.858934" y="244.6" style="stroke: #000000; stroke-width: 0.8"/>
      </g>
     </g>
     <g id="text_3">
      <!-- 0.02 -->
      <g transform="translate(164.688622 259.003125) scale(0.1 -0.1)">
       <defs>
        <path id="SegoeUI-32" d="M 2413 3306 
Q 2413 3513 2348 3666 
Q 2284 3819 2173 3920 
Q 2063 4022 1913 4072 
Q 1763 4122 1588 4122 
Q 1438 4122 1294 4081 
Q 1150 4041 1014 3969 
Q 878 3897 751 3797 
Q 625 3697 516 3575 
L 516 4125 
Q 731 4334 998 4445 
Q 1266 4556 1650 4556 
Q 1925 4556 2159 4476 
Q 2394 4397 2566 4244 
Q 2738 4091 2836 3866 
Q 2934 3641 2934 3350 
Q 2934 3084 2873 2868 
Q 2813 2653 2689 2462 
Q 2566 2272 2378 2097 
Q 2191 1922 1938 1741 
Q 1622 1516 1417 1356 
Q 1213 1197 1092 1058 
Q 972 919 923 780 
Q 875 641 875 459 
L 3106 459 
L 3106 0 
L 341 0 
L 341 222 
Q 341 509 403 728 
Q 466 947 609 1144 
Q 753 1341 986 1537 
Q 1219 1734 1556 1981 
Q 1800 2156 1964 2315 
Q 2128 2475 2228 2634 
Q 2328 2794 2370 2958 
Q 2413 3122 2413 3306 
z
" transform="scale(0.015625)"/>
       </defs>
       <use xlink:href="#SegoeUI-30"/>
       <use xlink:href="#SegoeUI-2e" x="53.90625"/>
       <use xlink:href="#SegoeUI-30" x="75.585938"/>
       <use xlink:href="#SegoeUI-32" x="129.492188"/>
      </g>
     </g>
    </g>
    <g id="text_4">
     <!-- $J_R$ -->
     <g transform="translate(109.655933 272.70625) scale(0.1 -0.1)">
      <defs>
       <path id="DejaVuSans-Oblique-4a" d="M 1069 4666 
L 1703 4666 
L 856 325 
Q 691 -522 298 -901 
Q -94 -1281 -800 -1281 
L -1050 -1281 
L -947 -750 
L -750 -750 
Q -328 -750 -109 -509 
Q 109 -269 225 325 
L 1069 4666 
z
" transform="scale(0.015625)"/>
       <path id="DejaVuSans-Oblique-52" d="M 1613 4147 
L 1294 2491 
L 2106 2491 
Q 2584 2491 2879 2755 
Q 3175 3019 3175 3444 
Q 3175 3784 2976 3965 
Q 2778 4147 2406 4147 
L 1613 4147 
z
M 2772 2241 
Q 2972 2194 3105 2009 
Q 3238 1825 3413 1275 
L 3809 0 
L 3144 0 
L 2778 1197 
Q 2638 1659 2453 1815 
Q 2269 1972 1888 1972 
L 1191 1972 
L 806 0 
L 172 0 
L 1081 4666 
L 2503 4666 
Q 3150 4666 3495 4373 
Q 3841 4081 3841 3531 
Q 3841 3044 3547 2687 
Q 3253 2331 2772 2241 
z
" transform="scale(0.015625)"/>
      </defs>
      <use xlink:href="#DejaVuSans-Oblique-4a" transform="translate(0 0.09375)"/>
      <use xlink:href="#DejaVuSans-Oblique-52" transform="translate(29.492188 -16.3125) scale(0.7)"/>
     </g>
    </g>
   </g>
   <g id="matplotlib.axis_2">
    <g id="ytick_1">
     <g id="line2d_4">
      <defs>
       <path id="m4e2819cfd6" d="M 0 0 
L -3.5 0 
" style="stroke: #000000; stroke-width: 0.8"/>
      </defs>
      <g>
       <use xlink:href="#m4e2819cfd6" x="45.56" y="220.410323" style="stroke: #000000; stroke-width: 0.8"/>
      </g>
     </g>
     <g id="text_5">
      <!-- 0.5 -->
      <g transform="translate(25.61 224.111886) scale(0.1 -0.1)">
       <defs>
        <path id="SegoeUI-35" d="M 3028 1369 
Q 3028 1041 2915 775 
Q 2803 509 2595 318 
Q 2388 128 2094 25 
Q 1800 -78 1441 -78 
Q 816 -78 513 109 
L 513 653 
Q 969 359 1447 359 
Q 1691 359 1886 431 
Q 2081 503 2218 631 
Q 2356 759 2429 940 
Q 2503 1122 2503 1338 
Q 2503 1775 2209 2023 
Q 1916 2272 1356 2272 
Q 1266 2272 1166 2269 
Q 1066 2266 966 2261 
Q 866 2256 770 2250 
Q 675 2244 597 2234 
L 750 4481 
L 2822 4481 
L 2822 4019 
L 1194 4019 
L 1103 2703 
Q 1203 2709 1315 2714 
Q 1428 2719 1516 2719 
Q 1872 2719 2153 2625 
Q 2434 2531 2629 2357 
Q 2825 2184 2926 1932 
Q 3028 1681 3028 1369 
z
" transform="scale(0.015625)"/>
       </defs>
       <use xlink:href="#SegoeUI-30"/>
       <use xlink:href="#SegoeUI-2e" x="53.90625"/>
       <use xlink:href="#SegoeUI-35" x="75.585938"/>
      </g>
     </g>
    </g>
    <g id="ytick_2">
     <g id="line2d_5">
      <g>
       <use xlink:href="#m4e2819cfd6" x="45.56" y="186.971526" style="stroke: #000000; stroke-width: 0.8"/>
      </g>
     </g>
     <g id="text_6">
      <!-- 0.6 -->
      <g transform="translate(25.61 190.673088) scale(0.1 -0.1)">
       <defs>
        <path id="SegoeUI-36" d="M 3194 1422 
Q 3194 1094 3087 819 
Q 2981 544 2793 344 
Q 2606 144 2347 33 
Q 2088 -78 1784 -78 
Q 1447 -78 1180 62 
Q 913 203 727 467 
Q 541 731 444 1112 
Q 347 1494 347 1972 
Q 347 2556 476 3032 
Q 606 3509 845 3848 
Q 1084 4188 1421 4372 
Q 1759 4556 2175 4556 
Q 2638 4556 2919 4428 
L 2919 3944 
Q 2572 4122 2188 4122 
Q 1888 4122 1647 3987 
Q 1406 3853 1234 3608 
Q 1063 3363 970 3016 
Q 878 2669 878 2244 
L 891 2244 
Q 1200 2803 1913 2803 
Q 2206 2803 2442 2703 
Q 2678 2603 2845 2420 
Q 3013 2238 3103 1984 
Q 3194 1731 3194 1422 
z
M 2669 1356 
Q 2669 1591 2609 1778 
Q 2550 1966 2439 2097 
Q 2328 2228 2165 2298 
Q 2003 2369 1797 2369 
Q 1606 2369 1443 2297 
Q 1281 2225 1162 2101 
Q 1044 1978 976 1814 
Q 909 1650 909 1466 
Q 909 1234 975 1032 
Q 1041 831 1159 681 
Q 1278 531 1442 445 
Q 1606 359 1806 359 
Q 2000 359 2159 432 
Q 2319 506 2431 637 
Q 2544 769 2606 951 
Q 2669 1134 2669 1356 
z
" transform="scale(0.015625)"/>
       </defs>
       <use xlink:href="#SegoeUI-30"/>
       <use xlink:href="#SegoeUI-2e" x="53.90625"/>
       <use xlink:href="#SegoeUI-36" x="75.585938"/>
      </g>
     </g>
    </g>
    <g id="ytick_3">
     <g id="line2d_6">
      <g>
       <use xlink:href="#m4e2819cfd6" x="45.56" y="153.532728" style="stroke: #000000; stroke-width: 0.8"/>
      </g>
     </g>
     <g id="text_7">
      <!-- 0.7 -->
      <g transform="translate(25.61 157.234291) scale(0.1 -0.1)">
       <defs>
        <path id="SegoeUI-37" d="M 3156 4184 
Q 3053 4006 2908 3740 
Q 2763 3475 2600 3144 
Q 2438 2813 2269 2431 
Q 2100 2050 1953 1644 
Q 1806 1238 1695 820 
Q 1584 403 1534 0 
L 984 0 
Q 1041 400 1158 817 
Q 1275 1234 1423 1636 
Q 1572 2038 1737 2409 
Q 1903 2781 2059 3093 
Q 2216 3406 2345 3645 
Q 2475 3884 2553 4019 
L 306 4019 
L 306 4481 
L 3156 4481 
L 3156 4184 
z
" transform="scale(0.015625)"/>
       </defs>
       <use xlink:href="#SegoeUI-30"/>
       <use xlink:href="#SegoeUI-2e" x="53.90625"/>
       <use xlink:href="#SegoeUI-37" x="75.585938"/>
      </g>
     </g>
    </g>
    <g id="ytick_4">
     <g id="line2d_7">
      <g>
       <use xlink:href="#m4e2819cfd6" x="45.56" y="120.093931" style="stroke: #000000; stroke-width: 0.8"/>
      </g>
     </g>
     <g id="text_8">
      <!-- 0.8 -->
      <g transform="translate(25.61 123.795493) scale(0.1 -0.1)">
       <defs>
        <path id="SegoeUI-38" d="M 281 1250 
Q 281 1428 337 1608 
Q 394 1788 498 1944 
Q 603 2100 758 2228 
Q 913 2356 1109 2431 
Q 819 2594 647 2848 
Q 475 3103 475 3413 
Q 475 3659 570 3868 
Q 666 4078 834 4231 
Q 1003 4384 1234 4470 
Q 1466 4556 1734 4556 
Q 2006 4556 2237 4468 
Q 2469 4381 2637 4228 
Q 2806 4075 2900 3865 
Q 2994 3656 2994 3413 
Q 2994 3103 2822 2848 
Q 2650 2594 2366 2431 
Q 2559 2356 2712 2228 
Q 2866 2100 2970 1944 
Q 3075 1788 3131 1608 
Q 3188 1428 3188 1250 
Q 3188 956 3081 712 
Q 2975 469 2783 295 
Q 2591 122 2323 25 
Q 2056 -72 1734 -72 
Q 1416 -72 1150 25 
Q 884 122 690 295 
Q 497 469 389 712 
Q 281 956 281 1250 
z
M 838 1294 
Q 838 1084 902 915 
Q 966 747 1083 628 
Q 1200 509 1367 445 
Q 1534 381 1738 381 
Q 1934 381 2100 447 
Q 2266 513 2386 631 
Q 2506 750 2573 919 
Q 2641 1088 2641 1294 
Q 2641 1481 2577 1645 
Q 2513 1809 2394 1934 
Q 2275 2059 2109 2131 
Q 1944 2203 1738 2203 
Q 1544 2203 1380 2136 
Q 1216 2069 1095 1948 
Q 975 1828 906 1661 
Q 838 1494 838 1294 
z
M 997 3372 
Q 997 3213 1055 3077 
Q 1113 2941 1214 2839 
Q 1316 2738 1450 2680 
Q 1584 2622 1738 2622 
Q 1891 2622 2027 2681 
Q 2163 2741 2263 2842 
Q 2363 2944 2422 3080 
Q 2481 3216 2481 3372 
Q 2481 3534 2423 3671 
Q 2366 3809 2266 3909 
Q 2166 4009 2030 4067 
Q 1894 4125 1738 4125 
Q 1572 4125 1436 4065 
Q 1300 4006 1201 3904 
Q 1103 3803 1050 3665 
Q 997 3528 997 3372 
z
" transform="scale(0.015625)"/>
       </defs>
       <use xlink:href="#SegoeUI-30"/>
       <use xlink:href="#SegoeUI-2e" x="53.90625"/>
       <use xlink:href="#SegoeUI-38" x="75.585938"/>
      </g>
     </g>
    </g>
    <g id="ytick_5">
     <g id="line2d_8">
      <g>
       <use xlink:href="#m4e2819cfd6" x="45.56" y="86.655133" style="stroke: #000000; stroke-width: 0.8"/>
      </g>
     </g>
     <g id="text_9">
      <!-- 0.9 -->
      <g transform="translate(25.61 90.356695) scale(0.1 -0.1)">
       <defs>
        <path id="SegoeUI-39" d="M 3138 2509 
Q 3138 1894 3016 1414 
Q 2894 934 2659 601 
Q 2425 269 2087 95 
Q 1750 -78 1319 -78 
Q 875 -78 538 78 
L 538 569 
Q 909 359 1331 359 
Q 1634 359 1873 484 
Q 2113 609 2278 848 
Q 2444 1088 2531 1438 
Q 2619 1788 2619 2241 
L 2606 2241 
Q 2319 1663 1606 1663 
Q 1319 1663 1078 1764 
Q 838 1866 663 2052 
Q 488 2238 391 2494 
Q 294 2750 294 3059 
Q 294 3391 401 3666 
Q 509 3941 701 4139 
Q 894 4338 1158 4447 
Q 1422 4556 1734 4556 
Q 2072 4556 2333 4420 
Q 2594 4284 2772 4023 
Q 2950 3763 3044 3381 
Q 3138 3000 3138 2509 
z
M 2584 2969 
Q 2584 3228 2517 3440 
Q 2450 3653 2331 3804 
Q 2213 3956 2048 4039 
Q 1884 4122 1691 4122 
Q 1506 4122 1347 4048 
Q 1188 3975 1070 3842 
Q 953 3709 886 3526 
Q 819 3344 819 3128 
Q 819 2891 883 2703 
Q 947 2516 1065 2386 
Q 1184 2256 1351 2187 
Q 1519 2119 1722 2119 
Q 1900 2119 2058 2186 
Q 2216 2253 2333 2367 
Q 2450 2481 2517 2636 
Q 2584 2791 2584 2969 
z
" transform="scale(0.015625)"/>
       </defs>
       <use xlink:href="#SegoeUI-30"/>
       <use xlink:href="#SegoeUI-2e" x="53.90625"/>
       <use xlink:href="#SegoeUI-39" x="75.585938"/>
      </g>
     </g>
    </g>
    <g id="ytick_6">
     <g id="line2d_9">
      <g>
       <use xlink:href="#m4e2819cfd6" x="45.56" y="53.216335" style="stroke: #000000; stroke-width: 0.8"/>
      </g>
     </g>
     <g id="text_10">
      <!-- 1.0 -->
      <g transform="translate(25.61 56.917898) scale(0.1 -0.1)">
       <use xlink:href="#SegoeUI-31"/>
       <use xlink:href="#SegoeUI-2e" x="53.90625"/>
       <use xlink:href="#SegoeUI-30" x="75.585938"/>
      </g>
     </g>
    </g>
    <g id="text_11">
     <!-- $\eta$ -->
     <g transform="translate(19.31 150.1) rotate(-90) scale(0.1 -0.1)">
      <defs>
       <path id="DejaVuSans-Oblique-3b7" d="M 3703 2113 
L 3034 -1331 
L 2459 -1331 
L 3125 2094 
Q 3222 2591 3075 2838 
Q 2931 3084 2544 3084 
Q 2078 3084 1750 2788 
Q 1425 2491 1325 1978 
L 941 0 
L 363 0 
L 1044 3500 
L 1622 3500 
L 1516 2956 
Q 1781 3272 2094 3428 
Q 2403 3584 2769 3584 
Q 3372 3584 3609 3213 
Q 3844 2838 3703 2113 
z
" transform="scale(0.015625)"/>
      </defs>
      <use xlink:href="#DejaVuSans-Oblique-3b7"/>
     </g>
    </g>
   </g>
   <g id="line2d_10">
    <path d="M 51.968954 61.629729 
L 53.030909 69.707668 
L 54.622374 77.463084 
L 56.623149 84.907409 
L 58.932866 92.054828 
L 61.467632 98.915265 
L 64.157833 105.500963 
L 66.946168 111.821626 
L 69.785408 117.891425 
L 72.637546 123.716899 
L 75.471733 129.309045 
L 78.263518 134.677438 
L 80.993699 139.831163 
L 83.647495 144.778856 
L 86.213891 149.529075 
L 88.684831 154.089679 
L 91.05842 158.475095 
L 93.320711 162.673148 
L 95.480619 166.710519 
L 97.534288 170.587445 
L 99.482559 174.3105 
L 101.327115 177.885964 
L 103.070417 181.319874 
L 104.723231 184.633891 
L 106.265174 187.785873 
L 107.723537 190.828733 
L 109.094186 193.751714 
L 110.381021 196.559617 
L 111.587978 199.257152 
L 112.719017 201.848749 
L 113.778063 204.338606 
L 114.768915 206.731113 
L 115.695309 209.029851 
L 116.560997 211.238664 
L 117.369411 213.361248 
L 118.12394 215.401053 
L 118.827837 217.361364 
L 119.484209 219.245281 
L 120.095983 221.055933 
L 120.665991 222.796247 
L 121.196862 224.469006 
L 121.691132 226.076835 
L 122.151183 227.622387 
L 122.579288 229.107968 
L 122.977441 230.536255 
L 123.34777 231.909199 
L 123.692058 233.229182 
L 124.01211 234.498145 
L 124.309556 235.718182 
" clip-path="url(#p45b2ec1cf3)" style="fill: none; stroke: #ff4400; stroke-width: 1.5; stroke-linecap: square"/>
   </g>
   <g id="line2d_11">
    <path d="M 51.755085 58.081818 
L 52.255634 62.822075 
L 53.040536 67.4731 
L 54.083196 72.030962 
L 55.346891 76.479335 
L 56.80691 80.831791 
L 58.440179 85.093128 
L 60.22636 89.267384 
L 62.147843 93.358609 
L 64.189594 97.369526 
L 66.338643 101.309304 
L 68.584587 105.177556 
L 70.918757 108.980282 
L 73.334399 112.722435 
L 75.826548 116.408017 
L 78.391693 120.042424 
L 81.028216 123.6304 
L 83.737952 127.1797 
L 86.515653 130.68713 
L 89.370823 134.166573 
L 92.305539 137.620452 
L 95.326062 141.054587 
L 98.440579 144.475169 
L 101.659674 147.888813 
L 104.996763 151.303215 
L 108.468976 154.726617 
L 112.098598 158.168973 
L 115.914787 161.643262 
L 119.957348 165.165495 
L 124.282534 168.758285 
L 128.974226 172.456557 
L 134.171237 176.310769 
L 140.126896 180.423416 
L 147.427458 185.030512 
L 158.507554 191.117929 
L 168.961259 195.876666 
L 169.653914 196.194725 
L 170.313405 196.523499 
L 170.93719 196.859137 
L 171.530548 197.202071 
L 172.093523 197.55012 
L 172.627422 197.901968 
L 173.133579 198.256392 
L 173.613263 198.612296 
L 174.067697 198.968731 
L 174.498125 199.324775 
L 174.905696 199.679678 
L 175.291562 200.03272 
L 175.656782 200.383313 
" clip-path="url(#p45b2ec1cf3)" style="fill: none; stroke: #9d00ff; stroke-width: 1.5; stroke-linecap: square"/>
   </g>
   <g id="patch_3">
    <path d="M 45.56 244.6 
L 45.56 49.2 
" style="fill: none; stroke: #000000; stroke-width: 0.8; stroke-linejoin: miter; stroke-linecap: square"/>
   </g>
   <g id="patch_4">
    <path d="M 181.851867 244.6 
L 181.851867 49.2 
" style="fill: none; stroke: #000000; stroke-width: 0.8; stroke-linejoin: miter; stroke-linecap: square"/>
   </g>
   <g id="patch_5">
    <path d="M 45.56 244.6 
L 181.851867 244.6 
" style="fill: none; stroke: #000000; stroke-width: 0.8; stroke-linejoin: miter; stroke-linecap: square"/>
   </g>
   <g id="patch_6">
    <path d="M 45.56 49.2 
L 181.851867 49.2 
" style="fill: none; stroke: #000000; stroke-width: 0.8; stroke-linejoin: miter; stroke-linecap: square"/>
   </g>
   <g id="text_12">
    <!-- Efficiency vs cooling power -->
    <g transform="translate(42.467183 43.2) scale(0.12 -0.12)">
     <defs>
      <path id="SegoeUI-45" d="M 2963 0 
L 588 0 
L 588 4481 
L 2863 4481 
L 2863 4006 
L 1113 4006 
L 1113 2516 
L 2731 2516 
L 2731 2044 
L 1113 2044 
L 1113 475 
L 2963 475 
L 2963 0 
z
" transform="scale(0.015625)"/>
      <path id="SegoeUI-66" d="M 2100 4288 
Q 1950 4372 1759 4372 
Q 1222 4372 1222 3694 
L 1222 3200 
L 1972 3200 
L 1972 2763 
L 1222 2763 
L 1222 0 
L 713 0 
L 713 2763 
L 166 2763 
L 166 3200 
L 713 3200 
L 713 3719 
Q 713 4222 1003 4514 
Q 1294 4806 1728 4806 
Q 1963 4806 2100 4750 
L 2100 4288 
z
" transform="scale(0.015625)"/>
      <path id="SegoeUI-69" d="M 781 4013 
Q 644 4013 547 4106 
Q 450 4200 450 4344 
Q 450 4488 547 4583 
Q 644 4678 781 4678 
Q 922 4678 1020 4583 
Q 1119 4488 1119 4344 
Q 1119 4206 1020 4109 
Q 922 4013 781 4013 
z
M 1031 0 
L 519 0 
L 519 3200 
L 1031 3200 
L 1031 0 
z
" transform="scale(0.015625)"/>
      <path id="SegoeUI-63" d="M 2700 147 
Q 2331 -75 1825 -75 
Q 1141 -75 720 370 
Q 300 816 300 1525 
Q 300 2316 753 2795 
Q 1206 3275 1963 3275 
Q 2384 3275 2706 3119 
L 2706 2594 
Q 2350 2844 1944 2844 
Q 1453 2844 1139 2492 
Q 825 2141 825 1569 
Q 825 1006 1120 681 
Q 1416 356 1913 356 
Q 2331 356 2700 634 
L 2700 147 
z
" transform="scale(0.015625)"/>
      <path id="SegoeUI-65" d="M 3091 1472 
L 831 1472 
Q 844 938 1119 647 
Q 1394 356 1875 356 
Q 2416 356 2869 713 
L 2869 231 
Q 2447 -75 1753 -75 
Q 1075 -75 687 361 
Q 300 797 300 1588 
Q 300 2334 723 2804 
Q 1147 3275 1775 3275 
Q 2403 3275 2747 2869 
Q 3091 2463 3091 1741 
L 3091 1472 
z
M 2566 1906 
Q 2563 2350 2352 2597 
Q 2141 2844 1766 2844 
Q 1403 2844 1150 2584 
Q 897 2325 838 1906 
L 2566 1906 
z
" transform="scale(0.015625)"/>
      <path id="SegoeUI-6e" d="M 3175 0 
L 2663 0 
L 2663 1825 
Q 2663 2844 1919 2844 
Q 1534 2844 1282 2555 
Q 1031 2266 1031 1825 
L 1031 0 
L 519 0 
L 519 3200 
L 1031 3200 
L 1031 2669 
L 1044 2669 
Q 1406 3275 2094 3275 
Q 2619 3275 2897 2936 
Q 3175 2597 3175 1956 
L 3175 0 
z
" transform="scale(0.015625)"/>
      <path id="SegoeUI-79" d="M 3066 3200 
L 1594 -513 
Q 1200 -1506 488 -1506 
Q 288 -1506 153 -1466 
L 153 -1006 
Q 319 -1063 456 -1063 
Q 844 -1063 1038 -600 
L 1294 6 
L 44 3200 
L 613 3200 
L 1478 738 
Q 1494 691 1544 494 
L 1563 494 
Q 1578 569 1625 731 
L 2534 3200 
L 3066 3200 
z
" transform="scale(0.015625)"/>
      <path id="SegoeUI-20" transform="scale(0.015625)"/>
      <path id="SegoeUI-76" d="M 3034 3200 
L 1759 0 
L 1256 0 
L 44 3200 
L 606 3200 
L 1419 875 
Q 1509 619 1531 428 
L 1544 428 
Q 1575 669 1644 863 
L 2494 3200 
L 3034 3200 
z
" transform="scale(0.015625)"/>
      <path id="SegoeUI-73" d="M 325 116 
L 325 666 
Q 744 356 1247 356 
Q 1922 356 1922 806 
Q 1922 934 1864 1023 
Q 1806 1113 1707 1181 
Q 1609 1250 1476 1304 
Q 1344 1359 1191 1419 
Q 978 1503 817 1589 
Q 656 1675 548 1783 
Q 441 1891 386 2028 
Q 331 2166 331 2350 
Q 331 2575 434 2748 
Q 538 2922 709 3039 
Q 881 3156 1101 3215 
Q 1322 3275 1556 3275 
Q 1972 3275 2300 3131 
L 2300 2613 
Q 1947 2844 1488 2844 
Q 1344 2844 1228 2811 
Q 1113 2778 1030 2718 
Q 947 2659 901 2576 
Q 856 2494 856 2394 
Q 856 2269 901 2184 
Q 947 2100 1034 2034 
Q 1122 1969 1247 1916 
Q 1372 1863 1531 1800 
Q 1744 1719 1912 1633 
Q 2081 1547 2200 1439 
Q 2319 1331 2383 1190 
Q 2447 1050 2447 856 
Q 2447 619 2342 444 
Q 2238 269 2063 153 
Q 1888 38 1659 -18 
Q 1431 -75 1181 -75 
Q 688 -75 325 116 
z
" transform="scale(0.015625)"/>
      <path id="SegoeUI-6f" d="M 1856 -75 
Q 1147 -75 723 373 
Q 300 822 300 1563 
Q 300 2369 740 2822 
Q 1181 3275 1931 3275 
Q 2647 3275 3048 2834 
Q 3450 2394 3450 1613 
Q 3450 847 3017 386 
Q 2584 -75 1856 -75 
z
M 1894 2844 
Q 1400 2844 1112 2508 
Q 825 2172 825 1581 
Q 825 1013 1115 684 
Q 1406 356 1894 356 
Q 2391 356 2658 678 
Q 2925 1000 2925 1594 
Q 2925 2194 2658 2519 
Q 2391 2844 1894 2844 
z
" transform="scale(0.015625)"/>
      <path id="SegoeUI-6c" d="M 1031 0 
L 519 0 
L 519 4738 
L 1031 4738 
L 1031 0 
z
" transform="scale(0.015625)"/>
      <path id="SegoeUI-67" d="M 3250 256 
Q 3250 -1506 1563 -1506 
Q 969 -1506 525 -1281 
L 525 -769 
Q 1066 -1069 1556 -1069 
Q 2738 -1069 2738 188 
L 2738 538 
L 2725 538 
Q 2359 -75 1625 -75 
Q 1028 -75 664 351 
Q 300 778 300 1497 
Q 300 2313 692 2794 
Q 1084 3275 1766 3275 
Q 2413 3275 2725 2756 
L 2738 2756 
L 2738 3200 
L 3250 3200 
L 3250 256 
z
M 2738 1447 
L 2738 1919 
Q 2738 2300 2480 2572 
Q 2222 2844 1838 2844 
Q 1363 2844 1094 2498 
Q 825 2153 825 1531 
Q 825 997 1083 676 
Q 1341 356 1766 356 
Q 2197 356 2467 662 
Q 2738 969 2738 1447 
z
" transform="scale(0.015625)"/>
      <path id="SegoeUI-70" d="M 1044 463 
L 1031 463 
L 1031 -1472 
L 519 -1472 
L 519 3200 
L 1031 3200 
L 1031 2638 
L 1044 2638 
Q 1422 3275 2150 3275 
Q 2769 3275 3116 2845 
Q 3463 2416 3463 1694 
Q 3463 891 3072 408 
Q 2681 -75 2003 -75 
Q 1381 -75 1044 463 
z
M 1031 1753 
L 1031 1306 
Q 1031 909 1289 632 
Q 1547 356 1944 356 
Q 2409 356 2673 712 
Q 2938 1069 2938 1703 
Q 2938 2238 2691 2541 
Q 2444 2844 2022 2844 
Q 1575 2844 1303 2533 
Q 1031 2222 1031 1753 
z
" transform="scale(0.015625)"/>
      <path id="SegoeUI-77" d="M 4550 3200 
L 3591 0 
L 3059 0 
L 2400 2291 
Q 2363 2422 2350 2588 
L 2338 2588 
Q 2328 2475 2272 2297 
L 1556 0 
L 1044 0 
L 75 3200 
L 613 3200 
L 1275 794 
Q 1306 684 1319 506 
L 1344 506 
Q 1353 644 1400 800 
L 2138 3200 
L 2606 3200 
L 3269 788 
Q 3300 672 3316 500 
L 3341 500 
Q 3347 622 3394 788 
L 4044 3200 
L 4550 3200 
z
" transform="scale(0.015625)"/>
      <path id="SegoeUI-72" d="M 2188 2681 
Q 2053 2784 1800 2784 
Q 1472 2784 1251 2475 
Q 1031 2166 1031 1631 
L 1031 0 
L 519 0 
L 519 3200 
L 1031 3200 
L 1031 2541 
L 1044 2541 
Q 1153 2878 1378 3067 
Q 1603 3256 1881 3256 
Q 2081 3256 2188 3213 
L 2188 2681 
z
" transform="scale(0.015625)"/>
     </defs>
     <use xlink:href="#SegoeUI-45"/>
     <use xlink:href="#SegoeUI-66" x="50.585938"/>
     <use xlink:href="#SegoeUI-66" x="81.884766"/>
     <use xlink:href="#SegoeUI-69" x="113.183594"/>
     <use xlink:href="#SegoeUI-63" x="137.402344"/>
     <use xlink:href="#SegoeUI-69" x="183.59375"/>
     <use xlink:href="#SegoeUI-65" x="207.8125"/>
     <use xlink:href="#SegoeUI-6e" x="260.107422"/>
     <use xlink:href="#SegoeUI-63" x="316.699219"/>
     <use xlink:href="#SegoeUI-79" x="362.890625"/>
     <use xlink:href="#SegoeUI-20" x="411.279297"/>
     <use xlink:href="#SegoeUI-76" x="438.671875"/>
     <use xlink:href="#SegoeUI-73" x="486.572266"/>
     <use xlink:href="#SegoeUI-20" x="529.003906"/>
     <use xlink:href="#SegoeUI-63" x="556.396484"/>
     <use xlink:href="#SegoeUI-6f" x="602.587891"/>
     <use xlink:href="#SegoeUI-6f" x="661.181641"/>
     <use xlink:href="#SegoeUI-6c" x="719.775391"/>
     <use xlink:href="#SegoeUI-69" x="743.994141"/>
     <use xlink:href="#SegoeUI-6e" x="768.212891"/>
     <use xlink:href="#SegoeUI-67" x="824.804688"/>
     <use xlink:href="#SegoeUI-20" x="883.691406"/>
     <use xlink:href="#SegoeUI-70" x="911.083984"/>
     <use xlink:href="#SegoeUI-6f" x="969.873047"/>
     <use xlink:href="#SegoeUI-77" x="1028.466797"/>
     <use xlink:href="#SegoeUI-65" x="1100.232422"/>
     <use xlink:href="#SegoeUI-72" x="1152.527344"/>
    </g>
   </g>
   <g id="legend_1">
    <g id="patch_7">
     <path d="M 91.820617 86.60625 
L 174.851867 86.60625 
Q 176.851867 86.60625 176.851867 84.60625 
L 176.851867 56.2 
Q 176.851867 54.2 174.851867 54.2 
L 91.820617 54.2 
Q 89.820617 54.2 89.820617 56.2 
L 89.820617 84.60625 
Q 89.820617 86.60625 91.820617 86.60625 
z
" style="fill: #ffffff; opacity: 0.8; stroke: #cccccc; stroke-linejoin: miter"/>
    </g>
    <g id="line2d_12">
     <path d="M 93.820617 62.103125 
L 103.820617 62.103125 
L 113.820617 62.103125 
" style="fill: none; stroke: #ff4400; stroke-width: 1.5; stroke-linecap: square"/>
    </g>
    <g id="text_13">
     <!-- thermal -->
     <g transform="translate(121.820617 65.603125) scale(0.1 -0.1)">
      <defs>
       <path id="SegoeUI-74" d="M 2003 31 
Q 1822 -69 1525 -69 
Q 684 -69 684 869 
L 684 2763 
L 134 2763 
L 134 3200 
L 684 3200 
L 684 3981 
L 1197 4147 
L 1197 3200 
L 2003 3200 
L 2003 2763 
L 1197 2763 
L 1197 959 
Q 1197 638 1306 500 
Q 1416 363 1669 363 
Q 1863 363 2003 469 
L 2003 31 
z
" transform="scale(0.015625)"/>
       <path id="SegoeUI-68" d="M 3175 0 
L 2663 0 
L 2663 1844 
Q 2663 2844 1919 2844 
Q 1544 2844 1287 2555 
Q 1031 2266 1031 1813 
L 1031 0 
L 519 0 
L 519 4738 
L 1031 4738 
L 1031 2669 
L 1044 2669 
Q 1413 3275 2094 3275 
Q 3175 3275 3175 1972 
L 3175 0 
z
" transform="scale(0.015625)"/>
       <path id="SegoeUI-6d" d="M 5063 0 
L 4550 0 
L 4550 1838 
Q 4550 2369 4386 2606 
Q 4222 2844 3834 2844 
Q 3506 2844 3276 2544 
Q 3047 2244 3047 1825 
L 3047 0 
L 2534 0 
L 2534 1900 
Q 2534 2844 1806 2844 
Q 1469 2844 1250 2561 
Q 1031 2278 1031 1825 
L 1031 0 
L 519 0 
L 519 3200 
L 1031 3200 
L 1031 2694 
L 1044 2694 
Q 1384 3275 2038 3275 
Q 2366 3275 2609 3092 
Q 2853 2909 2944 2613 
Q 3300 3275 4006 3275 
Q 5063 3275 5063 1972 
L 5063 0 
z
" transform="scale(0.015625)"/>
       <path id="SegoeUI-61" d="M 2809 0 
L 2297 0 
L 2297 500 
L 2284 500 
Q 1950 -75 1300 -75 
Q 822 -75 551 178 
Q 281 431 281 850 
Q 281 1747 1338 1894 
L 2297 2028 
Q 2297 2844 1638 2844 
Q 1059 2844 594 2450 
L 594 2975 
Q 1066 3275 1681 3275 
Q 2809 3275 2809 2081 
L 2809 0 
z
M 2297 1619 
L 1525 1513 
Q 1169 1463 987 1336 
Q 806 1209 806 888 
Q 806 653 973 504 
Q 1141 356 1419 356 
Q 1800 356 2048 623 
Q 2297 891 2297 1300 
L 2297 1619 
z
" transform="scale(0.015625)"/>
      </defs>
      <use xlink:href="#SegoeUI-74"/>
      <use xlink:href="#SegoeUI-68" x="33.886719"/>
      <use xlink:href="#SegoeUI-65" x="90.478516"/>
      <use xlink:href="#SegoeUI-72" x="142.773438"/>
      <use xlink:href="#SegoeUI-6d" x="177.289062"/>
      <use xlink:href="#SegoeUI-61" x="263.421875"/>
      <use xlink:href="#SegoeUI-6c" x="314.300781"/>
     </g>
    </g>
    <g id="line2d_13">
     <path d="M 93.820617 76.80625 
L 103.820617 76.80625 
L 113.820617 76.80625 
" style="fill: none; stroke: #9d00ff; stroke-width: 1.5; stroke-linecap: square"/>
    </g>
    <g id="text_14">
     <!-- nonthermal -->
     <g transform="translate(121.820617 80.30625) scale(0.1 -0.1)">
      <use xlink:href="#SegoeUI-6e"/>
      <use xlink:href="#SegoeUI-6f" x="56.591797"/>
      <use xlink:href="#SegoeUI-6e" x="115.185547"/>
      <use xlink:href="#SegoeUI-74" x="171.777344"/>
      <use xlink:href="#SegoeUI-68" x="205.664062"/>
      <use xlink:href="#SegoeUI-65" x="262.255859"/>
      <use xlink:href="#SegoeUI-72" x="314.550781"/>
      <use xlink:href="#SegoeUI-6d" x="349.066406"/>
      <use xlink:href="#SegoeUI-61" x="435.199219"/>
      <use xlink:href="#SegoeUI-6c" x="486.078125"/>
     </g>
    </g>
   </g>
  </g>
  <g id="axes_2">
   <g id="patch_8">
    <path d="M 235.457941 244.6 
L 371.749807 244.6 
L 371.749807 49.2 
L 235.457941 49.2 
z
" style="fill: #ffffff"/>
   </g>
   <g id="matplotlib.axis_3">
    <g id="xtick_4">
     <g id="line2d_14">
      <g>
       <use xlink:href="#me7500722f7" x="241.653025" y="244.6" style="stroke: #000000; stroke-width: 0.8"/>
      </g>
     </g>
     <g id="text_15">
      <!-- 0.00 -->
      <g transform="translate(232.482713 259.003125) scale(0.1 -0.1)">
       <use xlink:href="#SegoeUI-30"/>
       <use xlink:href="#SegoeUI-2e" x="53.90625"/>
       <use xlink:href="#SegoeUI-30" x="75.585938"/>
       <use xlink:href="#SegoeUI-30" x="129.492188"/>
      </g>
     </g>
    </g>
    <g id="xtick_5">
     <g id="line2d_15">
      <g>
       <use xlink:href="#me7500722f7" x="302.706227" y="244.6" style="stroke: #000000; stroke-width: 0.8"/>
      </g>
     </g>
     <g id="text_16">
      <!-- 0.01 -->
      <g transform="translate(293.535914 259.003125) scale(0.1 -0.1)">
       <use xlink:href="#SegoeUI-30"/>
       <use xlink:href="#SegoeUI-2e" x="53.90625"/>
       <use xlink:href="#SegoeUI-30" x="75.585938"/>
       <use xlink:href="#SegoeUI-31" x="129.492188"/>
      </g>
     </g>
    </g>
    <g id="xtick_6">
     <g id="line2d_16">
      <g>
       <use xlink:href="#me7500722f7" x="363.759428" y="244.6" style="stroke: #000000; stroke-width: 0.8"/>
      </g>
     </g>
     <g id="text_17">
      <!-- 0.02 -->
      <g transform="translate(354.589115 259.003125) scale(0.1 -0.1)">
       <use xlink:href="#SegoeUI-30"/>
       <use xlink:href="#SegoeUI-2e" x="53.90625"/>
       <use xlink:href="#SegoeUI-30" x="75.585938"/>
       <use xlink:href="#SegoeUI-32" x="129.492188"/>
      </g>
     </g>
    </g>
    <g id="text_18">
     <!-- $J_R$ -->
     <g transform="translate(299.553874 272.70625) scale(0.1 -0.1)">
      <use xlink:href="#DejaVuSans-Oblique-4a" transform="translate(0 0.09375)"/>
      <use xlink:href="#DejaVuSans-Oblique-52" transform="translate(29.492188 -16.3125) scale(0.7)"/>
     </g>
    </g>
   </g>
   <g id="matplotlib.axis_4">
    <g id="ytick_7">
     <g id="line2d_17">
      <g>
       <use xlink:href="#m4e2819cfd6" x="235.457941" y="235.718182" style="stroke: #000000; stroke-width: 0.8"/>
      </g>
     </g>
     <g id="text_19">
      <!-- 0.00 -->
      <g transform="translate(210.117316 239.419744) scale(0.1 -0.1)">
       <use xlink:href="#SegoeUI-30"/>
       <use xlink:href="#SegoeUI-2e" x="53.90625"/>
       <use xlink:href="#SegoeUI-30" x="75.585938"/>
       <use xlink:href="#SegoeUI-30" x="129.492188"/>
      </g>
     </g>
    </g>
    <g id="ytick_8">
     <g id="line2d_18">
      <g>
       <use xlink:href="#m4e2819cfd6" x="235.457941" y="207.267021" style="stroke: #000000; stroke-width: 0.8"/>
      </g>
     </g>
     <g id="text_20">
      <!-- 0.01 -->
      <g transform="translate(210.117316 210.968583) scale(0.1 -0.1)">
       <use xlink:href="#SegoeUI-30"/>
       <use xlink:href="#SegoeUI-2e" x="53.90625"/>
       <use xlink:href="#SegoeUI-30" x="75.585938"/>
       <use xlink:href="#SegoeUI-31" x="129.492188"/>
      </g>
     </g>
    </g>
    <g id="ytick_9">
     <g id="line2d_19">
      <g>
       <use xlink:href="#m4e2819cfd6" x="235.457941" y="178.815859" style="stroke: #000000; stroke-width: 0.8"/>
      </g>
     </g>
     <g id="text_21">
      <!-- 0.02 -->
      <g transform="translate(210.117316 182.517422) scale(0.1 -0.1)">
       <use xlink:href="#SegoeUI-30"/>
       <use xlink:href="#SegoeUI-2e" x="53.90625"/>
       <use xlink:href="#SegoeUI-30" x="75.585938"/>
       <use xlink:href="#SegoeUI-32" x="129.492188"/>
      </g>
     </g>
    </g>
    <g id="ytick_10">
     <g id="line2d_20">
      <g>
       <use xlink:href="#m4e2819cfd6" x="235.457941" y="150.364698" style="stroke: #000000; stroke-width: 0.8"/>
      </g>
     </g>
     <g id="text_22">
      <!-- 0.03 -->
      <g transform="translate(210.117316 154.06626) scale(0.1 -0.1)">
       <defs>
        <path id="SegoeUI-33" d="M 2978 1269 
Q 2978 966 2864 717 
Q 2750 469 2542 292 
Q 2334 116 2043 19 
Q 1753 -78 1403 -78 
Q 763 -78 384 166 
L 384 716 
Q 838 359 1422 359 
Q 1656 359 1845 418 
Q 2034 478 2170 590 
Q 2306 703 2379 862 
Q 2453 1022 2453 1222 
Q 2453 2100 1203 2100 
L 831 2100 
L 831 2534 
L 1184 2534 
Q 2291 2534 2291 3359 
Q 2291 4122 1447 4122 
Q 972 4122 556 3803 
L 556 4300 
Q 984 4556 1575 4556 
Q 1856 4556 2084 4478 
Q 2313 4400 2475 4259 
Q 2638 4119 2727 3922 
Q 2816 3725 2816 3488 
Q 2816 2603 1922 2350 
L 1922 2338 
Q 2150 2313 2344 2227 
Q 2538 2141 2678 2003 
Q 2819 1866 2898 1680 
Q 2978 1494 2978 1269 
z
" transform="scale(0.015625)"/>
       </defs>
       <use xlink:href="#SegoeUI-30"/>
       <use xlink:href="#SegoeUI-2e" x="53.90625"/>
       <use xlink:href="#SegoeUI-30" x="75.585938"/>
       <use xlink:href="#SegoeUI-33" x="129.492188"/>
      </g>
     </g>
    </g>
    <g id="ytick_11">
     <g id="line2d_21">
      <g>
       <use xlink:href="#m4e2819cfd6" x="235.457941" y="121.913537" style="stroke: #000000; stroke-width: 0.8"/>
      </g>
     </g>
     <g id="text_23">
      <!-- 0.04 -->
      <g transform="translate(210.117316 125.615099) scale(0.1 -0.1)">
       <defs>
        <path id="SegoeUI-34" d="M 2656 4481 
L 2656 1522 
L 3231 1522 
L 3231 1053 
L 2656 1053 
L 2656 0 
L 2150 0 
L 2150 1053 
L 44 1053 
L 44 1497 
Q 338 1828 638 2204 
Q 938 2581 1211 2968 
Q 1484 3356 1717 3742 
Q 1950 4128 2109 4481 
L 2656 4481 
z
M 622 1522 
L 2150 1522 
L 2150 3716 
Q 1916 3306 1706 2984 
Q 1497 2663 1308 2400 
Q 1119 2138 947 1925 
Q 775 1713 622 1522 
z
" transform="scale(0.015625)"/>
       </defs>
       <use xlink:href="#SegoeUI-30"/>
       <use xlink:href="#SegoeUI-2e" x="53.90625"/>
       <use xlink:href="#SegoeUI-30" x="75.585938"/>
       <use xlink:href="#SegoeUI-34" x="129.492188"/>
      </g>
     </g>
    </g>
    <g id="ytick_12">
     <g id="line2d_22">
      <g>
       <use xlink:href="#m4e2819cfd6" x="235.457941" y="93.462375" style="stroke: #000000; stroke-width: 0.8"/>
      </g>
     </g>
     <g id="text_24">
      <!-- 0.05 -->
      <g transform="translate(210.117316 97.163938) scale(0.1 -0.1)">
       <use xlink:href="#SegoeUI-30"/>
       <use xlink:href="#SegoeUI-2e" x="53.90625"/>
       <use xlink:href="#SegoeUI-30" x="75.585938"/>
       <use xlink:href="#SegoeUI-35" x="129.492188"/>
      </g>
     </g>
    </g>
    <g id="ytick_13">
     <g id="line2d_23">
      <g>
       <use xlink:href="#m4e2819cfd6" x="235.457941" y="65.011214" style="stroke: #000000; stroke-width: 0.8"/>
      </g>
     </g>
     <g id="text_25">
      <!-- 0.06 -->
      <g transform="translate(210.117316 68.712777) scale(0.1 -0.1)">
       <use xlink:href="#SegoeUI-30"/>
       <use xlink:href="#SegoeUI-2e" x="53.90625"/>
       <use xlink:href="#SegoeUI-30" x="75.585938"/>
       <use xlink:href="#SegoeUI-36" x="129.492188"/>
      </g>
     </g>
    </g>
    <g id="text_26">
     <!-- $S$ -->
     <g transform="translate(203.817316 150.1) rotate(-90) scale(0.1 -0.1)">
      <defs>
       <path id="DejaVuSans-Oblique-53" d="M 3859 4513 
L 3738 3897 
Q 3422 4066 3111 4152 
Q 2800 4238 2509 4238 
Q 1944 4238 1609 3991 
Q 1275 3744 1275 3334 
Q 1275 3109 1398 2989 
Q 1522 2869 2034 2731 
L 2413 2638 
Q 3053 2472 3303 2217 
Q 3553 1963 3553 1503 
Q 3553 797 2998 353 
Q 2444 -91 1538 -91 
Q 1166 -91 791 -17 
Q 416 56 38 206 
L 166 856 
Q 513 641 861 531 
Q 1209 422 1556 422 
Q 2147 422 2503 684 
Q 2859 947 2859 1369 
Q 2859 1650 2717 1795 
Q 2575 1941 2106 2059 
L 1728 2156 
Q 1081 2325 845 2545 
Q 609 2766 609 3163 
Q 609 3859 1145 4304 
Q 1681 4750 2541 4750 
Q 2875 4750 3203 4690 
Q 3531 4631 3859 4513 
z
" transform="scale(0.015625)"/>
      </defs>
      <use xlink:href="#DejaVuSans-Oblique-53" transform="translate(0 0.78125)"/>
     </g>
    </g>
   </g>
   <g id="line2d_24">
    <path d="M 241.653025 235.718182 
L 241.653025 235.718182 
L 241.653025 235.718182 
L 241.653025 235.718182 
L 241.653025 235.718182 
L 241.653025 235.718182 
L 241.653025 235.718182 
L 241.653025 235.718182 
L 241.653025 235.718182 
L 241.653025 235.718182 
L 241.653025 235.718182 
L 241.653025 235.718182 
L 241.653025 235.718182 
L 241.653025 235.718182 
L 241.653025 235.718182 
L 241.653025 235.718182 
L 241.653025 235.718182 
L 241.653025 235.718182 
L 241.653025 235.718182 
L 241.653025 235.718182 
L 243.055549 235.636281 
L 243.474728 235.595391 
L 244.007696 235.535086 
L 244.68006 235.446874 
L 245.520872 235.318953 
L 246.56214 235.135273 
L 247.837868 234.874312 
L 249.382373 234.507974 
L 251.228031 234.00037 
L 253.402465 233.306939 
L 255.925143 232.374184 
L 258.803835 231.140033 
L 262.031207 229.535768 
L 265.582335 227.489127 
L 269.413504 224.929066 
L 273.462849 221.791883 
L 277.652903 218.028159 
L 281.895776 213.609512 
L 286.098996 208.5344 
L 290.172694 202.831651 
L 294.036292 196.560789 
L 297.623871 189.809676 
L 300.887796 182.688491 
L 303.799781 175.322089 
L 306.35029 167.841101 
L 308.546036 160.373873 
L 310.406345 153.038179 
L 311.959464 145.936731 
L 313.238933 139.153355 
L 314.280341 132.751757 
" clip-path="url(#pcbc807a40f)" style="fill: none; stroke: #ff4400; stroke-width: 1.5; stroke-linecap: square"/>
   </g>
   <g id="line2d_25">
    <path d="M 241.653025 235.718182 
L 241.653025 235.718182 
L 241.653025 235.718182 
L 241.653025 235.718182 
L 241.653025 235.718182 
L 241.653025 235.718182 
L 241.653025 235.718182 
L 241.653025 235.718182 
L 241.653025 235.718182 
L 241.653025 235.718182 
L 241.653025 235.718182 
L 241.653025 235.718182 
L 241.653025 235.718182 
L 241.653025 235.718182 
L 241.653025 235.718182 
L 241.653025 235.718182 
L 241.653025 235.718182 
L 241.653025 235.718182 
L 241.653025 235.718182 
L 241.653025 235.718182 
L 241.653025 235.718182 
L 241.653025 235.718182 
L 242.120735 235.682805 
L 242.27495 235.663861 
L 242.478598 235.634899 
L 242.74631 235.590899 
L 243.096681 235.524313 
L 243.552261 235.424205 
L 244.140027 235.274876 
L 244.891071 235.054262 
L 245.839598 234.732125 
L 247.019673 234.26881 
L 248.468936 233.610994 
L 250.211126 232.696731 
L 252.263988 231.451335 
L 254.629356 229.792489 
L 282.871273 206.627183 
L 300.614237 190.114286 
L 312.901815 176.854998 
L 322.613851 164.726514 
L 330.664561 153.096609 
L 337.483925 141.703517 
L 343.313331 130.440708 
L 348.302958 119.293732 
L 352.562122 108.291733 
L 356.174833 97.501554 
L 359.214638 87.0042 
L 361.749215 76.884216 
L 363.842578 67.220322 
L 365.554723 58.081818 
" clip-path="url(#pcbc807a40f)" style="fill: none; stroke: #9d00ff; stroke-width: 1.5; stroke-linecap: square"/>
   </g>
   <g id="patch_9">
    <path d="M 235.457941 244.6 
L 235.457941 49.2 
" style="fill: none; stroke: #000000; stroke-width: 0.8; stroke-linejoin: miter; stroke-linecap: square"/>
   </g>
   <g id="patch_10">
    <path d="M 371.749807 244.6 
L 371.749807 49.2 
" style="fill: none; stroke: #000000; stroke-width: 0.8; stroke-linejoin: miter; stroke-linecap: square"/>
   </g>
   <g id="patch_11">
    <path d="M 235.457941 244.6 
L 371.749807 244.6 
" style="fill: none; stroke: #000000; stroke-width: 0.8; stroke-linejoin: miter; stroke-linecap: square"/>
   </g>
   <g id="patch_12">
    <path d="M 235.457941 49.2 
L 371.749807 49.2 
" style="fill: none; stroke: #000000; stroke-width: 0.8; stroke-linejoin: miter; stroke-linecap: square"/>
   </g>
   <g id="text_27">
    <!-- Noise vs cooling power -->
    <g transform="translate(241.900436 43.2) scale(0.12 -0.12)">
     <defs>
      <path id="SegoeUI-4e" d="M 4200 0 
L 3556 0 
L 1250 3572 
Q 1163 3706 1106 3853 
L 1088 3853 
Q 1113 3709 1113 3238 
L 1113 0 
L 588 0 
L 588 4481 
L 1269 4481 
L 3513 966 
Q 3653 747 3694 666 
L 3706 666 
Q 3675 859 3675 1325 
L 3675 4481 
L 4200 4481 
L 4200 0 
z
" transform="scale(0.015625)"/>
     </defs>
     <use xlink:href="#SegoeUI-4e"/>
     <use xlink:href="#SegoeUI-6f" x="74.804688"/>
     <use xlink:href="#SegoeUI-69" x="133.398438"/>
     <use xlink:href="#SegoeUI-73" x="157.617188"/>
     <use xlink:href="#SegoeUI-65" x="200.048828"/>
     <use xlink:href="#SegoeUI-20" x="252.34375"/>
     <use xlink:href="#SegoeUI-76" x="279.736328"/>
     <use xlink:href="#SegoeUI-73" x="327.636719"/>
     <use xlink:href="#SegoeUI-20" x="370.068359"/>
     <use xlink:href="#SegoeUI-63" x="397.460938"/>
     <use xlink:href="#SegoeUI-6f" x="443.652344"/>
     <use xlink:href="#SegoeUI-6f" x="502.246094"/>
     <use xlink:href="#SegoeUI-6c" x="560.839844"/>
     <use xlink:href="#SegoeUI-69" x="585.058594"/>
     <use xlink:href="#SegoeUI-6e" x="609.277344"/>
     <use xlink:href="#SegoeUI-67" x="665.869141"/>
     <use xlink:href="#SegoeUI-20" x="724.755859"/>
     <use xlink:href="#SegoeUI-70" x="752.148438"/>
     <use xlink:href="#SegoeUI-6f" x="810.9375"/>
     <use xlink:href="#SegoeUI-77" x="869.53125"/>
     <use xlink:href="#SegoeUI-65" x="941.296875"/>
     <use xlink:href="#SegoeUI-72" x="993.591797"/>
    </g>
   </g>
   <g id="legend_2">
    <g id="patch_13">
     <path d="M 242.457941 86.60625 
L 325.489191 86.60625 
Q 327.489191 86.60625 327.489191 84.60625 
L 327.489191 56.2 
Q 327.489191 54.2 325.489191 54.2 
L 242.457941 54.2 
Q 240.457941 54.2 240.457941 56.2 
L 240.457941 84.60625 
Q 240.457941 86.60625 242.457941 86.60625 
z
" style="fill: #ffffff; opacity: 0.8; stroke: #cccccc; stroke-linejoin: miter"/>
    </g>
    <g id="line2d_26">
     <path d="M 244.457941 62.103125 
L 254.457941 62.103125 
L 264.457941 62.103125 
" style="fill: none; stroke: #ff4400; stroke-width: 1.5; stroke-linecap: square"/>
    </g>
    <g id="text_28">
     <!-- thermal -->
     <g transform="translate(272.457941 65.603125) scale(0.1 -0.1)">
      <use xlink:href="#SegoeUI-74"/>
      <use xlink:href="#SegoeUI-68" x="33.886719"/>
      <use xlink:href="#SegoeUI-65" x="90.478516"/>
      <use xlink:href="#SegoeUI-72" x="142.773438"/>
      <use xlink:href="#SegoeUI-6d" x="177.289062"/>
      <use xlink:href="#SegoeUI-61" x="263.421875"/>
      <use xlink:href="#SegoeUI-6c" x="314.300781"/>
     </g>
    </g>
    <g id="line2d_27">
     <path d="M 244.457941 76.80625 
L 254.457941 76.80625 
L 264.457941 76.80625 
" style="fill: none; stroke: #9d00ff; stroke-width: 1.5; stroke-linecap: square"/>
    </g>
    <g id="text_29">
     <!-- nonthermal -->
     <g transform="translate(272.457941 80.30625) scale(0.1 -0.1)">
      <use xlink:href="#SegoeUI-6e"/>
      <use xlink:href="#SegoeUI-6f" x="56.591797"/>
      <use xlink:href="#SegoeUI-6e" x="115.185547"/>
      <use xlink:href="#SegoeUI-74" x="171.777344"/>
      <use xlink:href="#SegoeUI-68" x="205.664062"/>
      <use xlink:href="#SegoeUI-65" x="262.255859"/>
      <use xlink:href="#SegoeUI-72" x="314.550781"/>
      <use xlink:href="#SegoeUI-6d" x="349.066406"/>
      <use xlink:href="#SegoeUI-61" x="435.199219"/>
      <use xlink:href="#SegoeUI-6c" x="486.078125"/>
     </g>
    </g>
   </g>
  </g>
  <g id="axes_3">
   <g id="patch_14">
    <path d="M 425.355881 244.6 
L 561.647748 244.6 
L 561.647748 49.2 
L 425.355881 49.2 
z
" style="fill: #ffffff"/>
   </g>
   <g id="matplotlib.axis_5">
    <g id="xtick_7">
     <g id="line2d_28">
      <g>
       <use xlink:href="#me7500722f7" x="443.636756" y="244.6" style="stroke: #000000; stroke-width: 0.8"/>
      </g>
     </g>
     <g id="text_30">
      <!-- 0.005 -->
      <g transform="translate(431.771131 259.003125) scale(0.1 -0.1)">
       <use xlink:href="#SegoeUI-30"/>
       <use xlink:href="#SegoeUI-2e" x="53.90625"/>
       <use xlink:href="#SegoeUI-30" x="75.585938"/>
       <use xlink:href="#SegoeUI-30" x="129.492188"/>
       <use xlink:href="#SegoeUI-35" x="183.398438"/>
      </g>
     </g>
    </g>
    <g id="xtick_8">
     <g id="line2d_29">
      <g>
       <use xlink:href="#me7500722f7" x="480.19211" y="244.6" style="stroke: #000000; stroke-width: 0.8"/>
      </g>
     </g>
     <g id="text_31">
      <!-- 0.010 -->
      <g transform="translate(468.326485 259.003125) scale(0.1 -0.1)">
       <use xlink:href="#SegoeUI-30"/>
       <use xlink:href="#SegoeUI-2e" x="53.90625"/>
       <use xlink:href="#SegoeUI-30" x="75.585938"/>
       <use xlink:href="#SegoeUI-31" x="129.492188"/>
       <use xlink:href="#SegoeUI-30" x="183.398438"/>
      </g>
     </g>
    </g>
    <g id="xtick_9">
     <g id="line2d_30">
      <g>
       <use xlink:href="#me7500722f7" x="516.747463" y="244.6" style="stroke: #000000; stroke-width: 0.8"/>
      </g>
     </g>
     <g id="text_32">
      <!-- 0.015 -->
      <g transform="translate(504.881838 259.003125) scale(0.1 -0.1)">
       <use xlink:href="#SegoeUI-30"/>
       <use xlink:href="#SegoeUI-2e" x="53.90625"/>
       <use xlink:href="#SegoeUI-30" x="75.585938"/>
       <use xlink:href="#SegoeUI-31" x="129.492188"/>
       <use xlink:href="#SegoeUI-35" x="183.398438"/>
      </g>
     </g>
    </g>
    <g id="xtick_10">
     <g id="line2d_31">
      <g>
       <use xlink:href="#me7500722f7" x="553.302817" y="244.6" style="stroke: #000000; stroke-width: 0.8"/>
      </g>
     </g>
     <g id="text_33">
      <!-- 0.020 -->
      <g transform="translate(541.437192 259.003125) scale(0.1 -0.1)">
       <use xlink:href="#SegoeUI-30"/>
       <use xlink:href="#SegoeUI-2e" x="53.90625"/>
       <use xlink:href="#SegoeUI-30" x="75.585938"/>
       <use xlink:href="#SegoeUI-32" x="129.492188"/>
       <use xlink:href="#SegoeUI-30" x="183.398438"/>
      </g>
     </g>
    </g>
    <g id="text_34">
     <!-- $J_R$ -->
     <g transform="translate(489.451814 272.70625) scale(0.1 -0.1)">
      <use xlink:href="#DejaVuSans-Oblique-4a" transform="translate(0 0.09375)"/>
      <use xlink:href="#DejaVuSans-Oblique-52" transform="translate(29.492188 -16.3125) scale(0.7)"/>
     </g>
    </g>
   </g>
   <g id="matplotlib.axis_6">
    <g id="ytick_14">
     <g id="line2d_32">
      <g>
       <use xlink:href="#m4e2819cfd6" x="425.355881" y="221.072723" style="stroke: #000000; stroke-width: 0.8"/>
      </g>
     </g>
     <g id="text_35">
      <!-- 0.02 -->
      <g transform="translate(400.015256 224.774285) scale(0.1 -0.1)">
       <use xlink:href="#SegoeUI-30"/>
       <use xlink:href="#SegoeUI-2e" x="53.90625"/>
       <use xlink:href="#SegoeUI-30" x="75.585938"/>
       <use xlink:href="#SegoeUI-32" x="129.492188"/>
      </g>
     </g>
    </g>
    <g id="ytick_15">
     <g id="line2d_33">
      <g>
       <use xlink:href="#m4e2819cfd6" x="425.355881" y="189.441303" style="stroke: #000000; stroke-width: 0.8"/>
      </g>
     </g>
     <g id="text_36">
      <!-- 0.04 -->
      <g transform="translate(400.015256 193.142865) scale(0.1 -0.1)">
       <use xlink:href="#SegoeUI-30"/>
       <use xlink:href="#SegoeUI-2e" x="53.90625"/>
       <use xlink:href="#SegoeUI-30" x="75.585938"/>
       <use xlink:href="#SegoeUI-34" x="129.492188"/>
      </g>
     </g>
    </g>
    <g id="ytick_16">
     <g id="line2d_34">
      <g>
       <use xlink:href="#m4e2819cfd6" x="425.355881" y="157.809883" style="stroke: #000000; stroke-width: 0.8"/>
      </g>
     </g>
     <g id="text_37">
      <!-- 0.06 -->
      <g transform="translate(400.015256 161.511445) scale(0.1 -0.1)">
       <use xlink:href="#SegoeUI-30"/>
       <use xlink:href="#SegoeUI-2e" x="53.90625"/>
       <use xlink:href="#SegoeUI-30" x="75.585938"/>
       <use xlink:href="#SegoeUI-36" x="129.492188"/>
      </g>
     </g>
    </g>
    <g id="ytick_17">
     <g id="line2d_35">
      <g>
       <use xlink:href="#m4e2819cfd6" x="425.355881" y="126.178463" style="stroke: #000000; stroke-width: 0.8"/>
      </g>
     </g>
     <g id="text_38">
      <!-- 0.08 -->
      <g transform="translate(400.015256 129.880025) scale(0.1 -0.1)">
       <use xlink:href="#SegoeUI-30"/>
       <use xlink:href="#SegoeUI-2e" x="53.90625"/>
       <use xlink:href="#SegoeUI-30" x="75.585938"/>
       <use xlink:href="#SegoeUI-38" x="129.492188"/>
      </g>
     </g>
    </g>
    <g id="ytick_18">
     <g id="line2d_36">
      <g>
       <use xlink:href="#m4e2819cfd6" x="425.355881" y="94.547043" style="stroke: #000000; stroke-width: 0.8"/>
      </g>
     </g>
     <g id="text_39">
      <!-- 0.10 -->
      <g transform="translate(400.015256 98.248606) scale(0.1 -0.1)">
       <use xlink:href="#SegoeUI-30"/>
       <use xlink:href="#SegoeUI-2e" x="53.90625"/>
       <use xlink:href="#SegoeUI-31" x="75.585938"/>
       <use xlink:href="#SegoeUI-30" x="129.492188"/>
      </g>
     </g>
    </g>
    <g id="ytick_19">
     <g id="line2d_37">
      <g>
       <use xlink:href="#m4e2819cfd6" x="425.355881" y="62.915623" style="stroke: #000000; stroke-width: 0.8"/>
      </g>
     </g>
     <g id="text_40">
      <!-- 0.12 -->
      <g transform="translate(400.015256 66.617186) scale(0.1 -0.1)">
       <use xlink:href="#SegoeUI-30"/>
       <use xlink:href="#SegoeUI-2e" x="53.90625"/>
       <use xlink:href="#SegoeUI-31" x="75.585938"/>
       <use xlink:href="#SegoeUI-32" x="129.492188"/>
      </g>
     </g>
    </g>
    <g id="text_41">
     <!-- $S/ \eta$ -->
     <g transform="translate(393.715256 154.95) rotate(-90) scale(0.1 -0.1)">
      <defs>
       <path id="DejaVuSans-2f" d="M 1625 4666 
L 2156 4666 
L 531 -594 
L 0 -594 
L 1625 4666 
z
" transform="scale(0.015625)"/>
      </defs>
      <use xlink:href="#DejaVuSans-Oblique-53" transform="translate(0 0.78125)"/>
      <use xlink:href="#DejaVuSans-2f" transform="translate(63.476562 0.78125)"/>
      <use xlink:href="#DejaVuSans-Oblique-3b7" transform="translate(97.167969 0.78125)"/>
     </g>
    </g>
   </g>
   <g id="line2d_38">
    <path d="M 432.329849 235.718182 
L 433.844904 234.393627 
L 435.428541 232.968259 
L 437.063868 231.451705 
L 438.765943 229.823157 
L 440.527461 228.08181 
L 442.345973 226.221703 
L 444.2185 224.23705 
L 446.141264 222.122133 
L 448.109815 219.871326 
L 450.118985 217.47932 
L 452.163021 214.941247 
L 454.235285 212.252564 
L 456.328785 209.409171 
L 458.435119 206.408688 
L 460.546532 203.248012 
L 462.654149 199.926128 
L 464.748794 196.442692 
L 466.821362 192.798837 
L 468.862601 188.996814 
L 470.86349 185.040376 
L 472.815374 180.93479 
L 474.709894 176.686623 
L 476.539767 172.30433 
L 478.298186 167.797667 
L 479.979265 163.177585 
L 481.578534 158.456996 
L 483.092108 153.649199 
L 484.517444 148.769141 
L 485.853137 143.832451 
L 487.09874 138.855375 
L 488.254856 133.854594 
L 489.322995 128.847154 
L 490.302264 123.865862 
L 491.204902 118.87923 
L 492.025277 113.951899 
L 492.770342 109.083225 
L 493.444435 104.288077 
L 494.052035 99.580262 
" clip-path="url(#pa3538d161a)" style="fill: none; stroke: #ff4400; stroke-width: 1.5; stroke-linecap: square"/>
   </g>
   <g id="line2d_39">
    <path d="M 431.550966 233.685846 
L 433.633829 231.955112 
L 435.873195 230.097231 
L 440.868337 225.948747 
L 443.64481 223.633666 
L 446.618854 221.142075 
L 449.796421 218.463426 
L 453.181975 215.586798 
L 456.775935 212.502984 
L 460.574985 209.204107 
L 464.570971 205.684129 
L 468.750215 201.939344 
L 473.09312 197.968715 
L 477.574167 193.774218 
L 482.162344 189.360844 
L 486.82182 184.736183 
L 491.51416 179.910634 
L 496.199434 174.896111 
L 500.83849 169.705787 
L 505.394587 164.353396 
L 509.834665 158.852672 
L 514.130299 153.2173 
L 518.257913 147.460937 
L 522.198628 141.597201 
L 525.938281 135.640425 
L 529.466659 129.605184 
L 532.776547 123.50868 
L 535.86512 117.36762 
L 538.731686 111.201481 
L 541.377293 105.02973 
L 543.806874 98.874711 
L 546.026247 92.758273 
L 548.043216 86.702787 
L 549.866986 80.73079 
L 551.508349 74.862804 
L 552.978314 69.120011 
L 554.289021 63.520818 
L 555.452663 58.081818 
" clip-path="url(#pa3538d161a)" style="fill: none; stroke: #9d00ff; stroke-width: 1.5; stroke-linecap: square"/>
   </g>
   <g id="patch_15">
    <path d="M 425.355881 244.6 
L 425.355881 49.2 
" style="fill: none; stroke: #000000; stroke-width: 0.8; stroke-linejoin: miter; stroke-linecap: square"/>
   </g>
   <g id="patch_16">
    <path d="M 561.647748 244.6 
L 561.647748 49.2 
" style="fill: none; stroke: #000000; stroke-width: 0.8; stroke-linejoin: miter; stroke-linecap: square"/>
   </g>
   <g id="patch_17">
    <path d="M 425.355881 244.6 
L 561.647748 244.6 
" style="fill: none; stroke: #000000; stroke-width: 0.8; stroke-linejoin: miter; stroke-linecap: square"/>
   </g>
   <g id="patch_18">
    <path d="M 425.355881 49.2 
L 561.647748 49.2 
" style="fill: none; stroke: #000000; stroke-width: 0.8; stroke-linejoin: miter; stroke-linecap: square"/>
   </g>
   <g id="text_42">
    <!-- Product vs cooling power -->
    <g transform="translate(426.327127 43.2) scale(0.12 -0.12)">
     <defs>
      <path id="SegoeUI-50" d="M 1113 1694 
L 1113 0 
L 588 0 
L 588 4481 
L 1819 4481 
Q 2538 4481 2933 4131 
Q 3328 3781 3328 3144 
Q 3328 2506 2889 2100 
Q 2450 1694 1703 1694 
L 1113 1694 
z
M 1113 4006 
L 1113 2169 
L 1663 2169 
Q 2206 2169 2492 2417 
Q 2778 2666 2778 3119 
Q 2778 4006 1728 4006 
L 1113 4006 
z
" transform="scale(0.015625)"/>
      <path id="SegoeUI-64" d="M 3250 0 
L 2738 0 
L 2738 544 
L 2725 544 
Q 2369 -75 1625 -75 
Q 1022 -75 661 354 
Q 300 784 300 1525 
Q 300 2319 700 2797 
Q 1100 3275 1766 3275 
Q 2425 3275 2725 2756 
L 2738 2756 
L 2738 4738 
L 3250 4738 
L 3250 0 
z
M 2738 1447 
L 2738 1919 
Q 2738 2306 2481 2575 
Q 2225 2844 1831 2844 
Q 1363 2844 1094 2500 
Q 825 2156 825 1550 
Q 825 997 1083 676 
Q 1341 356 1775 356 
Q 2203 356 2470 665 
Q 2738 975 2738 1447 
z
" transform="scale(0.015625)"/>
      <path id="SegoeUI-75" d="M 3106 0 
L 2594 0 
L 2594 506 
L 2581 506 
Q 2263 -75 1594 -75 
Q 450 -75 450 1288 
L 450 3200 
L 959 3200 
L 959 1369 
Q 959 356 1734 356 
Q 2109 356 2351 632 
Q 2594 909 2594 1356 
L 2594 3200 
L 3106 3200 
L 3106 0 
z
" transform="scale(0.015625)"/>
     </defs>
     <use xlink:href="#SegoeUI-50"/>
     <use xlink:href="#SegoeUI-72" x="56.005859"/>
     <use xlink:href="#SegoeUI-6f" x="89.396484"/>
     <use xlink:href="#SegoeUI-64" x="147.990234"/>
     <use xlink:href="#SegoeUI-75" x="206.876953"/>
     <use xlink:href="#SegoeUI-63" x="263.46875"/>
     <use xlink:href="#SegoeUI-74" x="309.660156"/>
     <use xlink:href="#SegoeUI-20" x="343.546875"/>
     <use xlink:href="#SegoeUI-76" x="370.939453"/>
     <use xlink:href="#SegoeUI-73" x="418.839844"/>
     <use xlink:href="#SegoeUI-20" x="461.271484"/>
     <use xlink:href="#SegoeUI-63" x="488.664062"/>
     <use xlink:href="#SegoeUI-6f" x="534.855469"/>
     <use xlink:href="#SegoeUI-6f" x="593.449219"/>
     <use xlink:href="#SegoeUI-6c" x="652.042969"/>
     <use xlink:href="#SegoeUI-69" x="676.261719"/>
     <use xlink:href="#SegoeUI-6e" x="700.480469"/>
     <use xlink:href="#SegoeUI-67" x="757.072266"/>
     <use xlink:href="#SegoeUI-20" x="815.958984"/>
     <use xlink:href="#SegoeUI-70" x="843.351562"/>
     <use xlink:href="#SegoeUI-6f" x="902.140625"/>
     <use xlink:href="#SegoeUI-77" x="960.734375"/>
     <use xlink:href="#SegoeUI-65" x="1032.5"/>
     <use xlink:href="#SegoeUI-72" x="1084.794922"/>
    </g>
   </g>
   <g id="legend_3">
    <g id="patch_19">
     <path d="M 432.355881 86.60625 
L 515.387131 86.60625 
Q 517.387131 86.60625 517.387131 84.60625 
L 517.387131 56.2 
Q 517.387131 54.2 515.387131 54.2 
L 432.355881 54.2 
Q 430.355881 54.2 430.355881 56.2 
L 430.355881 84.60625 
Q 430.355881 86.60625 432.355881 86.60625 
z
" style="fill: #ffffff; opacity: 0.8; stroke: #cccccc; stroke-linejoin: miter"/>
    </g>
    <g id="line2d_40">
     <path d="M 434.355881 62.103125 
L 444.355881 62.103125 
L 454.355881 62.103125 
" style="fill: none; stroke: #ff4400; stroke-width: 1.5; stroke-linecap: square"/>
    </g>
    <g id="text_43">
     <!-- thermal -->
     <g transform="translate(462.355881 65.603125) scale(0.1 -0.1)">
      <use xlink:href="#SegoeUI-74"/>
      <use xlink:href="#SegoeUI-68" x="33.886719"/>
      <use xlink:href="#SegoeUI-65" x="90.478516"/>
      <use xlink:href="#SegoeUI-72" x="142.773438"/>
      <use xlink:href="#SegoeUI-6d" x="177.289062"/>
      <use xlink:href="#SegoeUI-61" x="263.421875"/>
      <use xlink:href="#SegoeUI-6c" x="314.300781"/>
     </g>
    </g>
    <g id="line2d_41">
     <path d="M 434.355881 76.80625 
L 444.355881 76.80625 
L 454.355881 76.80625 
" style="fill: none; stroke: #9d00ff; stroke-width: 1.5; stroke-linecap: square"/>
    </g>
    <g id="text_44">
     <!-- nonthermal -->
     <g transform="translate(462.355881 80.30625) scale(0.1 -0.1)">
      <use xlink:href="#SegoeUI-6e"/>
      <use xlink:href="#SegoeUI-6f" x="56.591797"/>
      <use xlink:href="#SegoeUI-6e" x="115.185547"/>
      <use xlink:href="#SegoeUI-74" x="171.777344"/>
      <use xlink:href="#SegoeUI-68" x="205.664062"/>
      <use xlink:href="#SegoeUI-65" x="262.255859"/>
      <use xlink:href="#SegoeUI-72" x="314.550781"/>
      <use xlink:href="#SegoeUI-6d" x="349.066406"/>
      <use xlink:href="#SegoeUI-61" x="435.199219"/>
      <use xlink:href="#SegoeUI-6c" x="486.078125"/>
     </g>
    </g>
   </g>
  </g>
  <g id="text_45">
   <!-- Optimized quantifiers over cooling power spectrum for thermal with Lorentzian peak and dip -->
   <g transform="translate(42.548438 14.77125) scale(0.12 -0.12)">
    <defs>
     <path id="SegoeUI-4f" d="M 2394 -75 
Q 1441 -75 867 553 
Q 294 1181 294 2188 
Q 294 3269 878 3912 
Q 1463 4556 2469 4556 
Q 3397 4556 3964 3931 
Q 4531 3306 4531 2297 
Q 4531 1200 3950 562 
Q 3369 -75 2394 -75 
z
M 2431 4081 
Q 1725 4081 1284 3572 
Q 844 3063 844 2234 
Q 844 1406 1273 901 
Q 1703 397 2394 397 
Q 3131 397 3556 878 
Q 3981 1359 3981 2225 
Q 3981 3113 3568 3597 
Q 3156 4081 2431 4081 
z
" transform="scale(0.015625)"/>
     <path id="SegoeUI-7a" d="M 2750 3053 
L 856 438 
L 2731 438 
L 2731 0 
L 103 0 
L 103 159 
L 1997 2763 
L 281 2763 
L 281 3200 
L 2750 3200 
L 2750 3053 
z
" transform="scale(0.015625)"/>
     <path id="SegoeUI-71" d="M 3250 -1472 
L 2738 -1472 
L 2738 550 
L 2725 550 
Q 2391 -75 1631 -75 
Q 1028 -75 664 354 
Q 300 784 300 1525 
Q 300 2322 700 2798 
Q 1100 3275 1775 3275 
Q 2431 3275 2725 2756 
L 2738 2756 
L 2738 3200 
L 3250 3200 
L 3250 -1472 
z
M 2738 1441 
L 2738 1906 
Q 2738 2300 2480 2572 
Q 2222 2844 1825 2844 
Q 1363 2844 1094 2501 
Q 825 2159 825 1538 
Q 825 984 1084 670 
Q 1344 356 1753 356 
Q 2203 356 2470 664 
Q 2738 972 2738 1441 
z
" transform="scale(0.015625)"/>
     <path id="SegoeUI-4c" d="M 2913 0 
L 588 0 
L 588 4481 
L 1113 4481 
L 1113 475 
L 2913 475 
L 2913 0 
z
" transform="scale(0.015625)"/>
     <path id="SegoeUI-6b" d="M 3175 0 
L 2456 0 
L 1044 1538 
L 1031 1538 
L 1031 0 
L 519 0 
L 519 4738 
L 1031 4738 
L 1031 1734 
L 1044 1734 
L 2388 3200 
L 3059 3200 
L 1575 1656 
L 3175 0 
z
" transform="scale(0.015625)"/>
    </defs>
    <use xlink:href="#SegoeUI-4f"/>
    <use xlink:href="#SegoeUI-70" x="75.390625"/>
    <use xlink:href="#SegoeUI-74" x="134.179688"/>
    <use xlink:href="#SegoeUI-69" x="168.066406"/>
    <use xlink:href="#SegoeUI-6d" x="192.285156"/>
    <use xlink:href="#SegoeUI-69" x="278.417969"/>
    <use xlink:href="#SegoeUI-7a" x="302.636719"/>
    <use xlink:href="#SegoeUI-65" x="347.851562"/>
    <use xlink:href="#SegoeUI-64" x="400.146484"/>
    <use xlink:href="#SegoeUI-20" x="459.033203"/>
    <use xlink:href="#SegoeUI-71" x="486.425781"/>
    <use xlink:href="#SegoeUI-75" x="545.3125"/>
    <use xlink:href="#SegoeUI-61" x="601.904297"/>
    <use xlink:href="#SegoeUI-6e" x="652.783203"/>
    <use xlink:href="#SegoeUI-74" x="709.375"/>
    <use xlink:href="#SegoeUI-69" x="743.261719"/>
    <use xlink:href="#SegoeUI-66" x="767.480469"/>
    <use xlink:href="#SegoeUI-69" x="798.779297"/>
    <use xlink:href="#SegoeUI-65" x="822.998047"/>
    <use xlink:href="#SegoeUI-72" x="875.292969"/>
    <use xlink:href="#SegoeUI-73" x="910.683594"/>
    <use xlink:href="#SegoeUI-20" x="953.115234"/>
    <use xlink:href="#SegoeUI-6f" x="980.507812"/>
    <use xlink:href="#SegoeUI-76" x="1039.101562"/>
    <use xlink:href="#SegoeUI-65" x="1086.376953"/>
    <use xlink:href="#SegoeUI-72" x="1138.671875"/>
    <use xlink:href="#SegoeUI-20" x="1173.4375"/>
    <use xlink:href="#SegoeUI-63" x="1200.830078"/>
    <use xlink:href="#SegoeUI-6f" x="1247.021484"/>
    <use xlink:href="#SegoeUI-6f" x="1305.615234"/>
    <use xlink:href="#SegoeUI-6c" x="1364.208984"/>
    <use xlink:href="#SegoeUI-69" x="1388.427734"/>
    <use xlink:href="#SegoeUI-6e" x="1412.646484"/>
    <use xlink:href="#SegoeUI-67" x="1469.238281"/>
    <use xlink:href="#SegoeUI-20" x="1528.125"/>
    <use xlink:href="#SegoeUI-70" x="1555.517578"/>
    <use xlink:href="#SegoeUI-6f" x="1614.306641"/>
    <use xlink:href="#SegoeUI-77" x="1672.900391"/>
    <use xlink:href="#SegoeUI-65" x="1744.666016"/>
    <use xlink:href="#SegoeUI-72" x="1796.960938"/>
    <use xlink:href="#SegoeUI-20" x="1831.726562"/>
    <use xlink:href="#SegoeUI-73" x="1859.119141"/>
    <use xlink:href="#SegoeUI-70" x="1901.550781"/>
    <use xlink:href="#SegoeUI-65" x="1960.339844"/>
    <use xlink:href="#SegoeUI-63" x="2012.634766"/>
    <use xlink:href="#SegoeUI-74" x="2058.826172"/>
    <use xlink:href="#SegoeUI-72" x="2092.712891"/>
    <use xlink:href="#SegoeUI-75" x="2127.478516"/>
    <use xlink:href="#SegoeUI-6d" x="2184.070312"/>
    <use xlink:href="#SegoeUI-20" x="2270.203125"/>
    <use xlink:href="#SegoeUI-66" x="2297.595703"/>
    <use xlink:href="#SegoeUI-6f" x="2328.894531"/>
    <use xlink:href="#SegoeUI-72" x="2387.488281"/>
    <use xlink:href="#SegoeUI-20" x="2422.253906"/>
    <use xlink:href="#SegoeUI-74" x="2449.646484"/>
    <use xlink:href="#SegoeUI-68" x="2483.533203"/>
    <use xlink:href="#SegoeUI-65" x="2540.125"/>
    <use xlink:href="#SegoeUI-72" x="2592.419922"/>
    <use xlink:href="#SegoeUI-6d" x="2626.935547"/>
    <use xlink:href="#SegoeUI-61" x="2713.068359"/>
    <use xlink:href="#SegoeUI-6c" x="2763.947266"/>
    <use xlink:href="#SegoeUI-20" x="2788.166016"/>
    <use xlink:href="#SegoeUI-77" x="2815.558594"/>
    <use xlink:href="#SegoeUI-69" x="2887.824219"/>
    <use xlink:href="#SegoeUI-74" x="2912.042969"/>
    <use xlink:href="#SegoeUI-68" x="2945.929688"/>
    <use xlink:href="#SegoeUI-20" x="3002.521484"/>
    <use xlink:href="#SegoeUI-4c" x="3029.914062"/>
    <use xlink:href="#SegoeUI-6f" x="3076.984375"/>
    <use xlink:href="#SegoeUI-72" x="3135.578125"/>
    <use xlink:href="#SegoeUI-65" x="3168.96875"/>
    <use xlink:href="#SegoeUI-6e" x="3221.263672"/>
    <use xlink:href="#SegoeUI-74" x="3277.855469"/>
    <use xlink:href="#SegoeUI-7a" x="3311.742188"/>
    <use xlink:href="#SegoeUI-69" x="3356.957031"/>
    <use xlink:href="#SegoeUI-61" x="3381.175781"/>
    <use xlink:href="#SegoeUI-6e" x="3432.054688"/>
    <use xlink:href="#SegoeUI-20" x="3488.646484"/>
    <use xlink:href="#SegoeUI-70" x="3516.039062"/>
    <use xlink:href="#SegoeUI-65" x="3574.828125"/>
    <use xlink:href="#SegoeUI-61" x="3627.123047"/>
    <use xlink:href="#SegoeUI-6b" x="3678.001953"/>
    <use xlink:href="#SegoeUI-20" x="3727.708984"/>
    <use xlink:href="#SegoeUI-61" x="3755.101562"/>
    <use xlink:href="#SegoeUI-6e" x="3805.980469"/>
    <use xlink:href="#SegoeUI-64" x="3862.572266"/>
    <use xlink:href="#SegoeUI-20" x="3921.458984"/>
    <use xlink:href="#SegoeUI-64" x="3948.851562"/>
    <use xlink:href="#SegoeUI-69" x="4007.738281"/>
    <use xlink:href="#SegoeUI-70" x="4031.957031"/>
   </g>
  </g>
 </g>
 <defs>
  <clipPath id="p45b2ec1cf3">
   <rect x="45.56" y="49.2" width="136.291867" height="195.4"/>
  </clipPath>
  <clipPath id="pcbc807a40f">
   <rect x="235.457941" y="49.2" width="136.291867" height="195.4"/>
  </clipPath>
  <clipPath id="pa3538d161a">
   <rect x="425.355881" y="49.2" width="136.291867" height="195.4"/>
  </clipPath>
 </defs>
</svg>
