<?xml version="1.0" encoding="utf-8" standalone="no"?>
<!DOCTYPE svg PUBLIC "-//W3C//DTD SVG 1.1//EN"
  "http://www.w3.org/Graphics/SVG/1.1/DTD/svg11.dtd">
<svg xmlns:xlink="http://www.w3.org/1999/xlink" width="252pt" height="252pt" viewBox="0 0 252 252" xmlns="http://www.w3.org/2000/svg" version="1.1">
 <metadata>
  <rdf:RDF xmlns:dc="http://purl.org/dc/elements/1.1/" xmlns:cc="http://creativecommons.org/ns#" xmlns:rdf="http://www.w3.org/1999/02/22-rdf-syntax-ns#">
   <cc:Work>
    <dc:type rdf:resource="http://purl.org/dc/dcmitype/StillImage"/>
    <dc:date>2025-05-13T09:40:18.566207</dc:date>
    <dc:format>image/svg+xml</dc:format>
    <dc:creator>
     <cc:Agent>
      <dc:title>Matplotlib v3.9.2, https://matplotlib.org/</dc:title>
     </cc:Agent>
    </dc:creator>
   </cc:Work>
  </rdf:RDF>
 </metadata>
 <defs>
  <style type="text/css">*{stroke-linejoin: round; stroke-linecap: butt}</style>
 </defs>
 <g id="figure_1">
  <g id="patch_1">
   <path d="M 0 252 
L 252 252 
L 252 0 
L 0 0 
z
" style="fill: #ffffff"/>
  </g>
  <g id="axes_1">
   <g id="patch_2">
    <path d="M 44.12 209.059375 
L 241.2 209.059375 
L 241.2 40.272 
L 44.12 40.272 
z
" style="fill: #ffffff"/>
   </g>
   <g id="line2d_1">
    <path d="M 53.078182 47.944153 
L 135.217266 48.05347 
L 142.0323 48.285833 
L 146.336531 48.64497 
L 149.385362 49.108272 
L 151.896163 49.709644 
L 154.048279 50.463023 
L 155.841709 51.325851 
L 157.455796 52.345159 
L 158.89054 53.497028 
L 160.325283 54.936233 
L 161.760027 56.726306 
L 163.015428 58.637621 
L 164.270829 60.927579 
L 165.52623 63.653961 
L 166.781631 66.8757 
L 168.216375 71.236364 
L 169.651118 76.389081 
L 171.085862 82.380133 
L 172.699949 90.128785 
L 174.493379 99.901909 
L 176.824838 114.02957 
L 182.922499 151.895726 
L 184.715929 161.389993 
L 186.330015 168.856841 
L 187.944102 175.251623 
L 189.378846 180.060284 
L 190.81359 184.104994 
L 192.248334 187.464173 
L 193.683078 190.224696 
L 195.117821 192.473628 
L 196.552565 194.292845 
L 197.987309 195.756041 
L 199.422053 196.927471 
L 201.03614 197.964356 
L 202.82957 198.842257 
L 204.802342 199.554817 
L 207.133801 200.148279 
L 210.003289 200.625737 
L 213.590148 200.977126 
L 218.611752 201.220801 
L 226.682186 201.358128 
L 232.241818 201.387222 
L 232.241818 201.387222 
" clip-path="url(#p106b064b4c)" style="fill: none; stroke: #027bce; stroke-width: 1.5; stroke-linecap: square"/>
   </g>
   <g id="matplotlib.axis_1">
    <g id="xtick_1">
     <g id="line2d_2">
      <defs>
       <path id="ma7e426200e" d="M 0 0 
L 0 3.5 
" style="stroke: #000000; stroke-width: 0.8"/>
      </defs>
      <g>
       <use xlink:href="#ma7e426200e" x="82.938788" y="209.059375" style="stroke: #000000; stroke-width: 0.8"/>
      </g>
     </g>
     <g id="text_1">
      <!-- −2 -->
      <g transform="translate(76.823163 223.4625) scale(0.1 -0.1)">
       <defs>
        <path id="SegoeUI-2212" d="M 3663 1656 
L 725 1656 
L 725 2075 
L 3663 2075 
L 3663 1656 
z
" transform="scale(0.015625)"/>
        <path id="SegoeUI-32" d="M 2413 3306 
Q 2413 3513 2348 3666 
Q 2284 3819 2173 3920 
Q 2063 4022 1913 4072 
Q 1763 4122 1588 4122 
Q 1438 4122 1294 4081 
Q 1150 4041 1014 3969 
Q 878 3897 751 3797 
Q 625 3697 516 3575 
L 516 4125 
Q 731 4334 998 4445 
Q 1266 4556 1650 4556 
Q 1925 4556 2159 4476 
Q 2394 4397 2566 4244 
Q 2738 4091 2836 3866 
Q 2934 3641 2934 3350 
Q 2934 3084 2873 2868 
Q 2813 2653 2689 2462 
Q 2566 2272 2378 2097 
Q 2191 1922 1938 1741 
Q 1622 1516 1417 1356 
Q 1213 1197 1092 1058 
Q 972 919 923 780 
Q 875 641 875 459 
L 3106 459 
L 3106 0 
L 341 0 
L 341 222 
Q 341 509 403 728 
Q 466 947 609 1144 
Q 753 1341 986 1537 
Q 1219 1734 1556 1981 
Q 1800 2156 1964 2315 
Q 2128 2475 2228 2634 
Q 2328 2794 2370 2958 
Q 2413 3122 2413 3306 
z
" transform="scale(0.015625)"/>
       </defs>
       <use xlink:href="#SegoeUI-2212"/>
       <use xlink:href="#SegoeUI-32" x="68.408203"/>
      </g>
     </g>
    </g>
    <g id="xtick_2">
     <g id="line2d_3">
      <g>
       <use xlink:href="#ma7e426200e" x="142.66" y="209.059375" style="stroke: #000000; stroke-width: 0.8"/>
      </g>
     </g>
     <g id="text_2">
      <!-- 0 -->
      <g transform="translate(139.964688 223.4625) scale(0.1 -0.1)">
       <defs>
        <path id="SegoeUI-30" d="M 3188 2259 
Q 3188 1697 3086 1262 
Q 2984 828 2792 529 
Q 2600 231 2320 76 
Q 2041 -78 1684 -78 
Q 1347 -78 1083 70 
Q 819 219 637 503 
Q 456 788 362 1202 
Q 269 1616 269 2150 
Q 269 2738 367 3188 
Q 466 3638 656 3942 
Q 847 4247 1130 4401 
Q 1413 4556 1778 4556 
Q 3188 4556 3188 2259 
z
M 2663 2209 
Q 2663 4122 1753 4122 
Q 794 4122 794 2175 
Q 794 359 1734 359 
Q 2663 359 2663 2209 
z
" transform="scale(0.015625)"/>
       </defs>
       <use xlink:href="#SegoeUI-30"/>
      </g>
     </g>
    </g>
    <g id="xtick_3">
     <g id="line2d_4">
      <g>
       <use xlink:href="#ma7e426200e" x="202.381212" y="209.059375" style="stroke: #000000; stroke-width: 0.8"/>
      </g>
     </g>
     <g id="text_3">
      <!-- 2 -->
      <g transform="translate(199.6859 223.4625) scale(0.1 -0.1)">
       <use xlink:href="#SegoeUI-32"/>
      </g>
     </g>
    </g>
    <g id="text_4">
     <!-- $\varepsilon$ [$k_B T_0$] -->
     <g transform="translate(125.36 237.165625) scale(0.1 -0.1)">
      <defs>
       <path id="Cmmi10-22" d="M 172 666 
Q 172 841 248 1006 
Q 325 1172 448 1303 
Q 572 1434 738 1538 
Q 494 1706 494 1972 
Q 494 2256 731 2470 
Q 969 2684 1312 2792 
Q 1656 2900 1931 2900 
Q 2047 2900 2242 2848 
Q 2438 2797 2584 2712 
Q 2731 2628 2731 2528 
Q 2731 2453 2673 2395 
Q 2616 2338 2547 2338 
Q 2519 2338 2405 2405 
Q 2291 2472 2162 2525 
Q 2034 2578 1881 2578 
Q 1650 2578 1373 2523 
Q 1097 2469 887 2333 
Q 678 2197 678 1978 
Q 678 1769 916 1625 
Q 1184 1747 1466 1747 
Q 1966 1747 1966 1569 
Q 1966 1428 1795 1389 
Q 1625 1350 1403 1350 
Q 1103 1350 909 1441 
Q 697 1328 531 1125 
Q 366 922 366 703 
Q 366 497 505 381 
Q 644 266 847 222 
Q 1050 178 1253 178 
Q 1606 178 1878 254 
Q 2150 331 2272 575 
Q 2291 616 2344 616 
Q 2413 594 2413 531 
Q 2413 525 2394 469 
Q 2291 266 2102 128 
Q 1913 -9 1680 -75 
Q 1447 -141 1203 -141 
Q 806 -141 489 71 
Q 172 284 172 666 
z
M 1159 1538 
Q 1272 1516 1416 1516 
Q 1697 1516 1766 1556 
Q 1678 1581 1459 1581 
Q 1300 1581 1159 1538 
z
" transform="scale(0.015625)"/>
       <path id="SegoeUI-20" transform="scale(0.015625)"/>
       <path id="SegoeUI-5b" d="M 1775 -1019 
L 625 -1019 
L 625 4481 
L 1775 4481 
L 1775 4109 
L 1081 4109 
L 1081 -647 
L 1775 -647 
L 1775 -1019 
z
" transform="scale(0.015625)"/>
       <path id="Cmmi10-6b" d="M 341 116 
Q 341 153 347 172 
L 1275 3872 
Q 1300 3981 1306 4044 
Q 1306 4147 891 4147 
Q 825 4147 825 4231 
Q 828 4247 839 4287 
Q 850 4328 867 4350 
Q 884 4372 916 4372 
L 1778 4441 
L 1797 4441 
Q 1797 4434 1819 4423 
Q 1841 4413 1844 4409 
Q 1856 4378 1856 4359 
L 1184 1684 
Q 1416 1781 1767 2145 
Q 2119 2509 2317 2668 
Q 2516 2828 2816 2828 
Q 2994 2828 3119 2706 
Q 3244 2584 3244 2406 
Q 3244 2294 3197 2198 
Q 3150 2103 3065 2043 
Q 2981 1984 2869 1984 
Q 2766 1984 2695 2048 
Q 2625 2113 2625 2216 
Q 2625 2369 2733 2473 
Q 2841 2578 2994 2578 
Q 2931 2663 2803 2663 
Q 2613 2663 2436 2553 
Q 2259 2444 2054 2239 
Q 1850 2034 1681 1864 
Q 1513 1694 1369 1606 
Q 1747 1563 2025 1408 
Q 2303 1253 2303 934 
Q 2303 869 2278 769 
Q 2222 528 2222 384 
Q 2222 97 2419 97 
Q 2650 97 2770 350 
Q 2891 603 2969 941 
Q 2981 978 3022 978 
L 3097 978 
Q 3122 978 3139 962 
Q 3156 947 3156 922 
Q 3156 916 3150 903 
Q 2909 -72 2406 -72 
Q 2225 -72 2086 12 
Q 1947 97 1872 242 
Q 1797 388 1797 569 
Q 1797 672 1825 781 
Q 1844 856 1844 922 
Q 1844 1169 1625 1297 
Q 1406 1425 1125 1453 
L 800 147 
Q 775 50 703 -11 
Q 631 -72 538 -72 
Q 456 -72 398 -17 
Q 341 38 341 116 
z
" transform="scale(0.015625)"/>
       <path id="Cmmi10-42" d="M 319 0 
Q 256 0 256 84 
Q 259 100 268 137 
Q 278 175 293 200 
Q 309 225 341 225 
Q 522 225 656 234 
Q 791 244 884 269 
Q 959 297 1006 441 
L 1881 3956 
Q 1894 4019 1894 4044 
Q 1894 4113 1819 4122 
Q 1697 4147 1356 4147 
Q 1294 4147 1294 4231 
Q 1297 4247 1306 4286 
Q 1316 4325 1333 4348 
Q 1350 4372 1375 4372 
L 3669 4372 
Q 3878 4372 4083 4320 
Q 4288 4269 4461 4156 
Q 4634 4044 4736 3876 
Q 4838 3709 4838 3488 
Q 4838 3247 4714 3040 
Q 4591 2834 4395 2681 
Q 4200 2528 3973 2429 
Q 3747 2331 3500 2284 
Q 3675 2284 3854 2215 
Q 4034 2147 4175 2028 
Q 4316 1909 4402 1743 
Q 4488 1578 4488 1388 
Q 4488 1003 4219 684 
Q 3950 366 3542 183 
Q 3134 0 2753 0 
L 319 0 
z
M 1497 275 
Q 1497 225 1716 225 
L 2631 225 
Q 2944 225 3231 398 
Q 3519 572 3692 859 
Q 3866 1147 3866 1459 
Q 3866 1650 3786 1820 
Q 3706 1991 3556 2089 
Q 3406 2188 3213 2188 
L 1966 2188 
L 1522 416 
Q 1497 328 1497 275 
z
M 2009 2356 
L 2981 2356 
Q 3288 2356 3577 2512 
Q 3866 2669 4048 2937 
Q 4231 3206 4231 3506 
Q 4231 3784 4057 3965 
Q 3884 4147 3609 4147 
L 2731 4147 
Q 2559 4147 2500 4115 
Q 2441 4084 2400 3928 
L 2009 2356 
z
" transform="scale(0.015625)"/>
       <path id="Cmmi10-54" d="M 294 84 
Q 297 100 308 140 
Q 319 181 336 203 
Q 353 225 384 225 
Q 934 225 1113 256 
Q 1284 300 1319 441 
L 2194 3956 
Q 2222 4034 2222 4097 
Q 2222 4147 1997 4147 
L 1625 4147 
Q 1197 4147 964 4015 
Q 731 3884 622 3668 
Q 513 3453 341 2963 
Q 319 2906 275 2906 
L 219 2906 
Q 153 2906 153 2988 
L 609 4313 
Q 622 4372 672 4372 
L 4453 4372 
Q 4519 4372 4519 4288 
L 4306 2963 
Q 4306 2944 4284 2925 
Q 4263 2906 4244 2906 
L 4184 2906 
Q 4122 2906 4122 2988 
Q 4191 3441 4191 3628 
Q 4191 3853 4097 3968 
Q 4003 4084 3853 4115 
Q 3703 4147 3463 4147 
L 3084 4147 
Q 2913 4147 2853 4115 
Q 2794 4084 2753 3928 
L 1875 416 
Q 1872 403 1870 390 
Q 1869 378 1863 359 
Q 1863 278 1959 256 
Q 2125 225 2669 225 
Q 2731 225 2731 141 
Q 2709 50 2696 25 
Q 2684 0 2625 0 
L 359 0 
Q 294 0 294 84 
z
" transform="scale(0.015625)"/>
       <path id="Cmr10-30" d="M 1600 -141 
Q 816 -141 533 504 
Q 250 1150 250 2041 
Q 250 2597 351 3087 
Q 453 3578 754 3920 
Q 1056 4263 1600 4263 
Q 2022 4263 2290 4056 
Q 2559 3850 2700 3523 
Q 2841 3197 2892 2823 
Q 2944 2450 2944 2041 
Q 2944 1491 2842 1011 
Q 2741 531 2444 195 
Q 2147 -141 1600 -141 
z
M 1600 25 
Q 1956 25 2131 390 
Q 2306 756 2347 1200 
Q 2388 1644 2388 2144 
Q 2388 2625 2347 3031 
Q 2306 3438 2132 3767 
Q 1959 4097 1600 4097 
Q 1238 4097 1063 3765 
Q 888 3434 847 3029 
Q 806 2625 806 2144 
Q 806 1788 823 1472 
Q 841 1156 916 820 
Q 991 484 1158 254 
Q 1325 25 1600 25 
z
" transform="scale(0.015625)"/>
       <path id="SegoeUI-5d" d="M 1313 -1019 
L 166 -1019 
L 166 -647 
L 856 -647 
L 856 4109 
L 166 4109 
L 166 4481 
L 1313 4481 
L 1313 -1019 
z
" transform="scale(0.015625)"/>
      </defs>
      <use xlink:href="#Cmmi10-22" transform="translate(0 0.984375)"/>
      <use xlink:href="#SegoeUI-20" transform="translate(46.582031 0.984375)"/>
      <use xlink:href="#SegoeUI-5b" transform="translate(73.974609 0.984375)"/>
      <use xlink:href="#Cmmi10-6b" transform="translate(104.150391 0.984375)"/>
      <use xlink:href="#Cmmi10-42" transform="translate(156.152344 -16.021875) scale(0.7)"/>
      <use xlink:href="#Cmmi10-54" transform="translate(215.576562 0.984375)"/>
      <use xlink:href="#Cmr10-30" transform="translate(273.975 -16.021875) scale(0.7)"/>
      <use xlink:href="#SegoeUI-5d" transform="translate(315.352344 0.984375)"/>
     </g>
    </g>
   </g>
   <g id="matplotlib.axis_2">
    <g id="ytick_1">
     <g id="line2d_5">
      <defs>
       <path id="mbe705139d7" d="M 0 0 
L -3.5 0 
" style="stroke: #000000; stroke-width: 0.8"/>
      </defs>
      <g>
       <use xlink:href="#mbe705139d7" x="44.12" y="201.406158" style="stroke: #000000; stroke-width: 0.8"/>
      </g>
     </g>
     <g id="text_5">
      <!-- 0.0 -->
      <g transform="translate(24.17 205.10772) scale(0.1 -0.1)">
       <defs>
        <path id="SegoeUI-2e" d="M 697 -69 
Q 553 -69 451 34 
Q 350 138 350 281 
Q 350 425 451 529 
Q 553 634 697 634 
Q 844 634 947 529 
Q 1050 425 1050 281 
Q 1050 138 947 34 
Q 844 -69 697 -69 
z
" transform="scale(0.015625)"/>
       </defs>
       <use xlink:href="#SegoeUI-30"/>
       <use xlink:href="#SegoeUI-2e" x="53.90625"/>
       <use xlink:href="#SegoeUI-30" x="75.585938"/>
      </g>
     </g>
    </g>
    <g id="ytick_2">
     <g id="line2d_6">
      <g>
       <use xlink:href="#mbe705139d7" x="44.12" y="170.713757" style="stroke: #000000; stroke-width: 0.8"/>
      </g>
     </g>
     <g id="text_6">
      <!-- 0.2 -->
      <g transform="translate(24.17 174.41532) scale(0.1 -0.1)">
       <use xlink:href="#SegoeUI-30"/>
       <use xlink:href="#SegoeUI-2e" x="53.90625"/>
       <use xlink:href="#SegoeUI-32" x="75.585938"/>
      </g>
     </g>
    </g>
    <g id="ytick_3">
     <g id="line2d_7">
      <g>
       <use xlink:href="#mbe705139d7" x="44.12" y="140.021356" style="stroke: #000000; stroke-width: 0.8"/>
      </g>
     </g>
     <g id="text_7">
      <!-- 0.4 -->
      <g transform="translate(24.17 143.722919) scale(0.1 -0.1)">
       <defs>
        <path id="SegoeUI-34" d="M 2656 4481 
L 2656 1522 
L 3231 1522 
L 3231 1053 
L 2656 1053 
L 2656 0 
L 2150 0 
L 2150 1053 
L 44 1053 
L 44 1497 
Q 338 1828 638 2204 
Q 938 2581 1211 2968 
Q 1484 3356 1717 3742 
Q 1950 4128 2109 4481 
L 2656 4481 
z
M 622 1522 
L 2150 1522 
L 2150 3716 
Q 1916 3306 1706 2984 
Q 1497 2663 1308 2400 
Q 1119 2138 947 1925 
Q 775 1713 622 1522 
z
" transform="scale(0.015625)"/>
       </defs>
       <use xlink:href="#SegoeUI-30"/>
       <use xlink:href="#SegoeUI-2e" x="53.90625"/>
       <use xlink:href="#SegoeUI-34" x="75.585938"/>
      </g>
     </g>
    </g>
    <g id="ytick_4">
     <g id="line2d_8">
      <g>
       <use xlink:href="#mbe705139d7" x="44.12" y="109.328955" style="stroke: #000000; stroke-width: 0.8"/>
      </g>
     </g>
     <g id="text_8">
      <!-- 0.6 -->
      <g transform="translate(24.17 113.030518) scale(0.1 -0.1)">
       <defs>
        <path id="SegoeUI-36" d="M 3194 1422 
Q 3194 1094 3087 819 
Q 2981 544 2793 344 
Q 2606 144 2347 33 
Q 2088 -78 1784 -78 
Q 1447 -78 1180 62 
Q 913 203 727 467 
Q 541 731 444 1112 
Q 347 1494 347 1972 
Q 347 2556 476 3032 
Q 606 3509 845 3848 
Q 1084 4188 1421 4372 
Q 1759 4556 2175 4556 
Q 2638 4556 2919 4428 
L 2919 3944 
Q 2572 4122 2188 4122 
Q 1888 4122 1647 3987 
Q 1406 3853 1234 3608 
Q 1063 3363 970 3016 
Q 878 2669 878 2244 
L 891 2244 
Q 1200 2803 1913 2803 
Q 2206 2803 2442 2703 
Q 2678 2603 2845 2420 
Q 3013 2238 3103 1984 
Q 3194 1731 3194 1422 
z
M 2669 1356 
Q 2669 1591 2609 1778 
Q 2550 1966 2439 2097 
Q 2328 2228 2165 2298 
Q 2003 2369 1797 2369 
Q 1606 2369 1443 2297 
Q 1281 2225 1162 2101 
Q 1044 1978 976 1814 
Q 909 1650 909 1466 
Q 909 1234 975 1032 
Q 1041 831 1159 681 
Q 1278 531 1442 445 
Q 1606 359 1806 359 
Q 2000 359 2159 432 
Q 2319 506 2431 637 
Q 2544 769 2606 951 
Q 2669 1134 2669 1356 
z
" transform="scale(0.015625)"/>
       </defs>
       <use xlink:href="#SegoeUI-30"/>
       <use xlink:href="#SegoeUI-2e" x="53.90625"/>
       <use xlink:href="#SegoeUI-36" x="75.585938"/>
      </g>
     </g>
    </g>
    <g id="ytick_5">
     <g id="line2d_9">
      <g>
       <use xlink:href="#mbe705139d7" x="44.12" y="78.636554" style="stroke: #000000; stroke-width: 0.8"/>
      </g>
     </g>
     <g id="text_9">
      <!-- 0.8 -->
      <g transform="translate(24.17 82.338117) scale(0.1 -0.1)">
       <defs>
        <path id="SegoeUI-38" d="M 281 1250 
Q 281 1428 337 1608 
Q 394 1788 498 1944 
Q 603 2100 758 2228 
Q 913 2356 1109 2431 
Q 819 2594 647 2848 
Q 475 3103 475 3413 
Q 475 3659 570 3868 
Q 666 4078 834 4231 
Q 1003 4384 1234 4470 
Q 1466 4556 1734 4556 
Q 2006 4556 2237 4468 
Q 2469 4381 2637 4228 
Q 2806 4075 2900 3865 
Q 2994 3656 2994 3413 
Q 2994 3103 2822 2848 
Q 2650 2594 2366 2431 
Q 2559 2356 2712 2228 
Q 2866 2100 2970 1944 
Q 3075 1788 3131 1608 
Q 3188 1428 3188 1250 
Q 3188 956 3081 712 
Q 2975 469 2783 295 
Q 2591 122 2323 25 
Q 2056 -72 1734 -72 
Q 1416 -72 1150 25 
Q 884 122 690 295 
Q 497 469 389 712 
Q 281 956 281 1250 
z
M 838 1294 
Q 838 1084 902 915 
Q 966 747 1083 628 
Q 1200 509 1367 445 
Q 1534 381 1738 381 
Q 1934 381 2100 447 
Q 2266 513 2386 631 
Q 2506 750 2573 919 
Q 2641 1088 2641 1294 
Q 2641 1481 2577 1645 
Q 2513 1809 2394 1934 
Q 2275 2059 2109 2131 
Q 1944 2203 1738 2203 
Q 1544 2203 1380 2136 
Q 1216 2069 1095 1948 
Q 975 1828 906 1661 
Q 838 1494 838 1294 
z
M 997 3372 
Q 997 3213 1055 3077 
Q 1113 2941 1214 2839 
Q 1316 2738 1450 2680 
Q 1584 2622 1738 2622 
Q 1891 2622 2027 2681 
Q 2163 2741 2263 2842 
Q 2363 2944 2422 3080 
Q 2481 3216 2481 3372 
Q 2481 3534 2423 3671 
Q 2366 3809 2266 3909 
Q 2166 4009 2030 4067 
Q 1894 4125 1738 4125 
Q 1572 4125 1436 4065 
Q 1300 4006 1201 3904 
Q 1103 3803 1050 3665 
Q 997 3528 997 3372 
z
" transform="scale(0.015625)"/>
       </defs>
       <use xlink:href="#SegoeUI-30"/>
       <use xlink:href="#SegoeUI-2e" x="53.90625"/>
       <use xlink:href="#SegoeUI-38" x="75.585938"/>
      </g>
     </g>
    </g>
    <g id="ytick_6">
     <g id="line2d_10">
      <g>
       <use xlink:href="#mbe705139d7" x="44.12" y="47.944153" style="stroke: #000000; stroke-width: 0.8"/>
      </g>
     </g>
     <g id="text_10">
      <!-- 1.0 -->
      <g transform="translate(24.17 51.645716) scale(0.1 -0.1)">
       <defs>
        <path id="SegoeUI-31" d="M 2263 0 
L 1750 0 
L 1750 3872 
Q 1691 3813 1577 3736 
Q 1463 3659 1320 3584 
Q 1178 3509 1020 3443 
Q 863 3378 713 3341 
L 713 3859 
Q 881 3906 1070 3986 
Q 1259 4066 1442 4164 
Q 1625 4263 1787 4370 
Q 1950 4478 2069 4581 
L 2263 4581 
L 2263 0 
z
" transform="scale(0.015625)"/>
       </defs>
       <use xlink:href="#SegoeUI-31"/>
       <use xlink:href="#SegoeUI-2e" x="53.90625"/>
       <use xlink:href="#SegoeUI-30" x="75.585938"/>
      </g>
     </g>
    </g>
    <g id="text_11">
     <!-- Occupation probability -->
     <g transform="translate(17.816875 174.9735) rotate(-90) scale(0.1 -0.1)">
      <defs>
       <path id="SegoeUI-4f" d="M 2394 -75 
Q 1441 -75 867 553 
Q 294 1181 294 2188 
Q 294 3269 878 3912 
Q 1463 4556 2469 4556 
Q 3397 4556 3964 3931 
Q 4531 3306 4531 2297 
Q 4531 1200 3950 562 
Q 3369 -75 2394 -75 
z
M 2431 4081 
Q 1725 4081 1284 3572 
Q 844 3063 844 2234 
Q 844 1406 1273 901 
Q 1703 397 2394 397 
Q 3131 397 3556 878 
Q 3981 1359 3981 2225 
Q 3981 3113 3568 3597 
Q 3156 4081 2431 4081 
z
" transform="scale(0.015625)"/>
       <path id="SegoeUI-63" d="M 2700 147 
Q 2331 -75 1825 -75 
Q 1141 -75 720 370 
Q 300 816 300 1525 
Q 300 2316 753 2795 
Q 1206 3275 1963 3275 
Q 2384 3275 2706 3119 
L 2706 2594 
Q 2350 2844 1944 2844 
Q 1453 2844 1139 2492 
Q 825 2141 825 1569 
Q 825 1006 1120 681 
Q 1416 356 1913 356 
Q 2331 356 2700 634 
L 2700 147 
z
" transform="scale(0.015625)"/>
       <path id="SegoeUI-75" d="M 3106 0 
L 2594 0 
L 2594 506 
L 2581 506 
Q 2263 -75 1594 -75 
Q 450 -75 450 1288 
L 450 3200 
L 959 3200 
L 959 1369 
Q 959 356 1734 356 
Q 2109 356 2351 632 
Q 2594 909 2594 1356 
L 2594 3200 
L 3106 3200 
L 3106 0 
z
" transform="scale(0.015625)"/>
       <path id="SegoeUI-70" d="M 1044 463 
L 1031 463 
L 1031 -1472 
L 519 -1472 
L 519 3200 
L 1031 3200 
L 1031 2638 
L 1044 2638 
Q 1422 3275 2150 3275 
Q 2769 3275 3116 2845 
Q 3463 2416 3463 1694 
Q 3463 891 3072 408 
Q 2681 -75 2003 -75 
Q 1381 -75 1044 463 
z
M 1031 1753 
L 1031 1306 
Q 1031 909 1289 632 
Q 1547 356 1944 356 
Q 2409 356 2673 712 
Q 2938 1069 2938 1703 
Q 2938 2238 2691 2541 
Q 2444 2844 2022 2844 
Q 1575 2844 1303 2533 
Q 1031 2222 1031 1753 
z
" transform="scale(0.015625)"/>
       <path id="SegoeUI-61" d="M 2809 0 
L 2297 0 
L 2297 500 
L 2284 500 
Q 1950 -75 1300 -75 
Q 822 -75 551 178 
Q 281 431 281 850 
Q 281 1747 1338 1894 
L 2297 2028 
Q 2297 2844 1638 2844 
Q 1059 2844 594 2450 
L 594 2975 
Q 1066 3275 1681 3275 
Q 2809 3275 2809 2081 
L 2809 0 
z
M 2297 1619 
L 1525 1513 
Q 1169 1463 987 1336 
Q 806 1209 806 888 
Q 806 653 973 504 
Q 1141 356 1419 356 
Q 1800 356 2048 623 
Q 2297 891 2297 1300 
L 2297 1619 
z
" transform="scale(0.015625)"/>
       <path id="SegoeUI-74" d="M 2003 31 
Q 1822 -69 1525 -69 
Q 684 -69 684 869 
L 684 2763 
L 134 2763 
L 134 3200 
L 684 3200 
L 684 3981 
L 1197 4147 
L 1197 3200 
L 2003 3200 
L 2003 2763 
L 1197 2763 
L 1197 959 
Q 1197 638 1306 500 
Q 1416 363 1669 363 
Q 1863 363 2003 469 
L 2003 31 
z
" transform="scale(0.015625)"/>
       <path id="SegoeUI-69" d="M 781 4013 
Q 644 4013 547 4106 
Q 450 4200 450 4344 
Q 450 4488 547 4583 
Q 644 4678 781 4678 
Q 922 4678 1020 4583 
Q 1119 4488 1119 4344 
Q 1119 4206 1020 4109 
Q 922 4013 781 4013 
z
M 1031 0 
L 519 0 
L 519 3200 
L 1031 3200 
L 1031 0 
z
" transform="scale(0.015625)"/>
       <path id="SegoeUI-6f" d="M 1856 -75 
Q 1147 -75 723 373 
Q 300 822 300 1563 
Q 300 2369 740 2822 
Q 1181 3275 1931 3275 
Q 2647 3275 3048 2834 
Q 3450 2394 3450 1613 
Q 3450 847 3017 386 
Q 2584 -75 1856 -75 
z
M 1894 2844 
Q 1400 2844 1112 2508 
Q 825 2172 825 1581 
Q 825 1013 1115 684 
Q 1406 356 1894 356 
Q 2391 356 2658 678 
Q 2925 1000 2925 1594 
Q 2925 2194 2658 2519 
Q 2391 2844 1894 2844 
z
" transform="scale(0.015625)"/>
       <path id="SegoeUI-6e" d="M 3175 0 
L 2663 0 
L 2663 1825 
Q 2663 2844 1919 2844 
Q 1534 2844 1282 2555 
Q 1031 2266 1031 1825 
L 1031 0 
L 519 0 
L 519 3200 
L 1031 3200 
L 1031 2669 
L 1044 2669 
Q 1406 3275 2094 3275 
Q 2619 3275 2897 2936 
Q 3175 2597 3175 1956 
L 3175 0 
z
" transform="scale(0.015625)"/>
       <path id="SegoeUI-72" d="M 2188 2681 
Q 2053 2784 1800 2784 
Q 1472 2784 1251 2475 
Q 1031 2166 1031 1631 
L 1031 0 
L 519 0 
L 519 3200 
L 1031 3200 
L 1031 2541 
L 1044 2541 
Q 1153 2878 1378 3067 
Q 1603 3256 1881 3256 
Q 2081 3256 2188 3213 
L 2188 2681 
z
" transform="scale(0.015625)"/>
       <path id="SegoeUI-62" d="M 1044 463 
L 1031 463 
L 1031 0 
L 519 0 
L 519 4738 
L 1031 4738 
L 1031 2638 
L 1044 2638 
Q 1422 3275 2150 3275 
Q 2766 3275 3114 2845 
Q 3463 2416 3463 1694 
Q 3463 891 3072 408 
Q 2681 -75 2003 -75 
Q 1369 -75 1044 463 
z
M 1031 1753 
L 1031 1306 
Q 1031 909 1289 632 
Q 1547 356 1944 356 
Q 2409 356 2673 712 
Q 2938 1069 2938 1703 
Q 2938 2238 2691 2541 
Q 2444 2844 2022 2844 
Q 1575 2844 1303 2533 
Q 1031 2222 1031 1753 
z
" transform="scale(0.015625)"/>
       <path id="SegoeUI-6c" d="M 1031 0 
L 519 0 
L 519 4738 
L 1031 4738 
L 1031 0 
z
" transform="scale(0.015625)"/>
       <path id="SegoeUI-79" d="M 3066 3200 
L 1594 -513 
Q 1200 -1506 488 -1506 
Q 288 -1506 153 -1466 
L 153 -1006 
Q 319 -1063 456 -1063 
Q 844 -1063 1038 -600 
L 1294 6 
L 44 3200 
L 613 3200 
L 1478 738 
Q 1494 691 1544 494 
L 1563 494 
Q 1578 569 1625 731 
L 2534 3200 
L 3066 3200 
z
" transform="scale(0.015625)"/>
      </defs>
      <use xlink:href="#SegoeUI-4f"/>
      <use xlink:href="#SegoeUI-63" x="75.390625"/>
      <use xlink:href="#SegoeUI-63" x="121.582031"/>
      <use xlink:href="#SegoeUI-75" x="167.773438"/>
      <use xlink:href="#SegoeUI-70" x="224.365234"/>
      <use xlink:href="#SegoeUI-61" x="281.779297"/>
      <use xlink:href="#SegoeUI-74" x="332.658203"/>
      <use xlink:href="#SegoeUI-69" x="366.544922"/>
      <use xlink:href="#SegoeUI-6f" x="390.763672"/>
      <use xlink:href="#SegoeUI-6e" x="449.357422"/>
      <use xlink:href="#SegoeUI-20" x="505.949219"/>
      <use xlink:href="#SegoeUI-70" x="533.341797"/>
      <use xlink:href="#SegoeUI-72" x="592.130859"/>
      <use xlink:href="#SegoeUI-6f" x="625.521484"/>
      <use xlink:href="#SegoeUI-62" x="684.115234"/>
      <use xlink:href="#SegoeUI-61" x="741.529297"/>
      <use xlink:href="#SegoeUI-62" x="792.408203"/>
      <use xlink:href="#SegoeUI-69" x="851.197266"/>
      <use xlink:href="#SegoeUI-6c" x="875.416016"/>
      <use xlink:href="#SegoeUI-69" x="899.634766"/>
      <use xlink:href="#SegoeUI-74" x="923.853516"/>
      <use xlink:href="#SegoeUI-79" x="957.740234"/>
     </g>
    </g>
   </g>
   <g id="line2d_11">
    <path d="M 53.078182 57.64679 
L 58.637814 59.283206 
L 63.838761 61.040349 
L 68.860364 62.96756 
L 73.702624 65.061378 
L 78.365542 67.314459 
L 83.028459 69.816531 
L 87.512034 72.470995 
L 91.995608 75.38044 
L 96.479183 78.553081 
L 100.962757 81.993474 
L 105.625675 85.855563 
L 110.467935 90.166402 
L 115.489539 94.944569 
L 120.869828 100.382337 
L 126.788146 106.69145 
L 133.782523 114.486499 
L 145.260473 127.675909 
L 155.662366 139.497952 
L 162.298056 146.710011 
L 168.037032 152.627893 
L 173.237978 157.68122 
L 178.259581 162.248871 
L 182.922499 166.199208 
L 187.585416 169.861003 
L 192.068991 173.108332 
L 196.552565 176.090787 
L 201.03614 178.815638 
L 205.699057 181.387364 
L 210.361975 183.705918 
L 215.204235 185.862921 
L 220.225839 187.850287 
L 225.426785 189.663946 
L 230.807074 191.303616 
L 232.241818 191.703521 
L 232.241818 191.703521 
" clip-path="url(#p106b064b4c)" style="fill: none; stroke: #ff5100; stroke-width: 1.5; stroke-linecap: square"/>
   </g>
   <g id="patch_3">
    <path d="M 44.12 209.059375 
L 44.12 40.272 
" style="fill: none; stroke: #000000; stroke-width: 0.8; stroke-linejoin: miter; stroke-linecap: square"/>
   </g>
   <g id="patch_4">
    <path d="M 241.2 209.059375 
L 241.2 40.272 
" style="fill: none; stroke: #000000; stroke-width: 0.8; stroke-linejoin: miter; stroke-linecap: square"/>
   </g>
   <g id="patch_5">
    <path d="M 44.12 209.059375 
L 241.2 209.059375 
" style="fill: none; stroke: #000000; stroke-width: 0.8; stroke-linejoin: miter; stroke-linecap: square"/>
   </g>
   <g id="patch_6">
    <path d="M 44.12 40.272 
L 241.2 40.272 
" style="fill: none; stroke: #000000; stroke-width: 0.8; stroke-linejoin: miter; stroke-linecap: square"/>
   </g>
   <g id="line2d_12">
    <path d="M 53.078182 55.402453 
L 58.458471 56.802549 
L 63.480075 58.335263 
L 68.142992 59.984417 
L 72.626567 61.806056 
L 76.751455 63.716502 
L 80.697001 65.787027 
L 84.28386 67.911172 
L 87.691377 70.18652 
L 90.740207 72.489285 
L 93.430352 74.797563 
L 95.761811 77.088219 
L 97.734584 79.32825 
L 99.528013 81.718713 
L 100.962757 83.990987 
L 102.218158 86.367257 
L 103.294216 88.821915 
L 104.370274 91.837009 
L 105.266989 94.966062 
L 106.163704 98.906454 
L 107.060419 104.022884 
L 107.777791 109.32708 
L 108.495162 116.134228 
L 109.212534 124.951052 
L 109.929906 136.293489 
L 110.826621 154.153246 
L 112.082022 179.422415 
L 112.440708 183.668955 
L 112.799394 185.399008 
L 112.978737 185.23246 
L 113.15808 184.388053 
L 113.516766 180.86059 
L 114.054795 172.186217 
L 115.848225 139.310499 
L 116.565597 130.074805 
L 117.282968 123.247134 
L 118.00034 118.293887 
L 118.717712 114.731425 
L 119.435084 112.187273 
L 120.152456 110.390566 
L 120.869828 109.147884 
L 121.5872 108.321231 
L 122.304572 107.811431 
L 123.021944 107.54641 
L 123.918659 107.479886 
L 124.815374 107.63886 
L 125.891431 108.053659 
L 127.146832 108.767497 
L 128.760919 109.946562 
L 130.913035 111.831079 
L 133.60318 114.509246 
L 137.369382 118.608017 
L 144.005072 126.232055 
L 150.102734 133.121506 
L 153.51025 136.658627 
L 156.021052 138.96096 
L 157.814482 140.342947 
L 159.249226 141.208168 
L 160.504626 141.711452 
L 161.401341 141.870426 
L 162.298056 141.803901 
L 163.015428 141.538881 
L 163.7328 141.02908 
L 164.450172 140.202427 
L 165.167544 138.959746 
L 165.884916 137.163038 
L 166.602288 134.618886 
L 167.31966 131.056424 
L 168.037032 126.103177 
L 168.754403 119.275506 
L 169.471775 110.039812 
L 170.36849 94.722498 
L 171.803234 68.489722 
L 172.16192 64.962258 
L 172.341263 64.117851 
L 172.520606 63.951303 
L 172.699949 64.477402 
L 173.058635 67.520351 
L 173.596664 76.103399 
L 176.107466 124.399259 
L 177.004181 135.085008 
L 177.900895 142.835458 
L 178.79761 148.564407 
L 179.694325 152.922467 
L 180.770383 156.939519 
L 181.846441 160.07051 
L 183.101842 162.983054 
L 184.357243 165.359324 
L 185.791987 167.631598 
L 187.406073 169.800517 
L 189.378846 172.071575 
L 191.710305 174.387391 
L 194.221107 176.570062 
L 197.090594 178.777679 
L 200.318768 180.982757 
L 203.905627 183.158206 
L 207.67183 185.185434 
L 211.796719 187.149192 
L 216.10095 188.951026 
L 220.763868 190.654938 
L 225.606128 192.186357 
L 230.807074 193.596929 
L 232.241818 193.947859 
L 232.241818 193.947859 
" clip-path="url(#p106b064b4c)" style="fill: none; stroke: #9d00ff; stroke-width: 1.5; stroke-linecap: square"/>
   </g>
   <g id="text_12">
    <!-- Thermal distribution with  -->
    <g transform="translate(74.663125 20.8515) scale(0.12 -0.12)">
     <defs>
      <path id="SegoeUI-54" d="M 3238 4006 
L 1944 4006 
L 1944 0 
L 1419 0 
L 1419 4006 
L 128 4006 
L 128 4481 
L 3238 4481 
L 3238 4006 
z
" transform="scale(0.015625)"/>
      <path id="SegoeUI-68" d="M 3175 0 
L 2663 0 
L 2663 1844 
Q 2663 2844 1919 2844 
Q 1544 2844 1287 2555 
Q 1031 2266 1031 1813 
L 1031 0 
L 519 0 
L 519 4738 
L 1031 4738 
L 1031 2669 
L 1044 2669 
Q 1413 3275 2094 3275 
Q 3175 3275 3175 1972 
L 3175 0 
z
" transform="scale(0.015625)"/>
      <path id="SegoeUI-65" d="M 3091 1472 
L 831 1472 
Q 844 938 1119 647 
Q 1394 356 1875 356 
Q 2416 356 2869 713 
L 2869 231 
Q 2447 -75 1753 -75 
Q 1075 -75 687 361 
Q 300 797 300 1588 
Q 300 2334 723 2804 
Q 1147 3275 1775 3275 
Q 2403 3275 2747 2869 
Q 3091 2463 3091 1741 
L 3091 1472 
z
M 2566 1906 
Q 2563 2350 2352 2597 
Q 2141 2844 1766 2844 
Q 1403 2844 1150 2584 
Q 897 2325 838 1906 
L 2566 1906 
z
" transform="scale(0.015625)"/>
      <path id="SegoeUI-6d" d="M 5063 0 
L 4550 0 
L 4550 1838 
Q 4550 2369 4386 2606 
Q 4222 2844 3834 2844 
Q 3506 2844 3276 2544 
Q 3047 2244 3047 1825 
L 3047 0 
L 2534 0 
L 2534 1900 
Q 2534 2844 1806 2844 
Q 1469 2844 1250 2561 
Q 1031 2278 1031 1825 
L 1031 0 
L 519 0 
L 519 3200 
L 1031 3200 
L 1031 2694 
L 1044 2694 
Q 1384 3275 2038 3275 
Q 2366 3275 2609 3092 
Q 2853 2909 2944 2613 
Q 3300 3275 4006 3275 
Q 5063 3275 5063 1972 
L 5063 0 
z
" transform="scale(0.015625)"/>
      <path id="SegoeUI-64" d="M 3250 0 
L 2738 0 
L 2738 544 
L 2725 544 
Q 2369 -75 1625 -75 
Q 1022 -75 661 354 
Q 300 784 300 1525 
Q 300 2319 700 2797 
Q 1100 3275 1766 3275 
Q 2425 3275 2725 2756 
L 2738 2756 
L 2738 4738 
L 3250 4738 
L 3250 0 
z
M 2738 1447 
L 2738 1919 
Q 2738 2306 2481 2575 
Q 2225 2844 1831 2844 
Q 1363 2844 1094 2500 
Q 825 2156 825 1550 
Q 825 997 1083 676 
Q 1341 356 1775 356 
Q 2203 356 2470 665 
Q 2738 975 2738 1447 
z
" transform="scale(0.015625)"/>
      <path id="SegoeUI-73" d="M 325 116 
L 325 666 
Q 744 356 1247 356 
Q 1922 356 1922 806 
Q 1922 934 1864 1023 
Q 1806 1113 1707 1181 
Q 1609 1250 1476 1304 
Q 1344 1359 1191 1419 
Q 978 1503 817 1589 
Q 656 1675 548 1783 
Q 441 1891 386 2028 
Q 331 2166 331 2350 
Q 331 2575 434 2748 
Q 538 2922 709 3039 
Q 881 3156 1101 3215 
Q 1322 3275 1556 3275 
Q 1972 3275 2300 3131 
L 2300 2613 
Q 1947 2844 1488 2844 
Q 1344 2844 1228 2811 
Q 1113 2778 1030 2718 
Q 947 2659 901 2576 
Q 856 2494 856 2394 
Q 856 2269 901 2184 
Q 947 2100 1034 2034 
Q 1122 1969 1247 1916 
Q 1372 1863 1531 1800 
Q 1744 1719 1912 1633 
Q 2081 1547 2200 1439 
Q 2319 1331 2383 1190 
Q 2447 1050 2447 856 
Q 2447 619 2342 444 
Q 2238 269 2063 153 
Q 1888 38 1659 -18 
Q 1431 -75 1181 -75 
Q 688 -75 325 116 
z
" transform="scale(0.015625)"/>
      <path id="SegoeUI-77" d="M 4550 3200 
L 3591 0 
L 3059 0 
L 2400 2291 
Q 2363 2422 2350 2588 
L 2338 2588 
Q 2328 2475 2272 2297 
L 1556 0 
L 1044 0 
L 75 3200 
L 613 3200 
L 1275 794 
Q 1306 684 1319 506 
L 1344 506 
Q 1353 644 1400 800 
L 2138 3200 
L 2606 3200 
L 3269 788 
Q 3300 672 3316 500 
L 3341 500 
Q 3347 622 3394 788 
L 4044 3200 
L 4550 3200 
z
" transform="scale(0.015625)"/>
     </defs>
     <use xlink:href="#SegoeUI-54"/>
     <use xlink:href="#SegoeUI-68" x="52.392578"/>
     <use xlink:href="#SegoeUI-65" x="108.984375"/>
     <use xlink:href="#SegoeUI-72" x="161.279297"/>
     <use xlink:href="#SegoeUI-6d" x="195.794922"/>
     <use xlink:href="#SegoeUI-61" x="281.927734"/>
     <use xlink:href="#SegoeUI-6c" x="332.806641"/>
     <use xlink:href="#SegoeUI-20" x="357.025391"/>
     <use xlink:href="#SegoeUI-64" x="384.417969"/>
     <use xlink:href="#SegoeUI-69" x="443.304688"/>
     <use xlink:href="#SegoeUI-73" x="467.523438"/>
     <use xlink:href="#SegoeUI-74" x="509.955078"/>
     <use xlink:href="#SegoeUI-72" x="543.841797"/>
     <use xlink:href="#SegoeUI-69" x="578.607422"/>
     <use xlink:href="#SegoeUI-62" x="602.826172"/>
     <use xlink:href="#SegoeUI-75" x="661.615234"/>
     <use xlink:href="#SegoeUI-74" x="718.207031"/>
     <use xlink:href="#SegoeUI-69" x="752.09375"/>
     <use xlink:href="#SegoeUI-6f" x="776.3125"/>
     <use xlink:href="#SegoeUI-6e" x="834.90625"/>
     <use xlink:href="#SegoeUI-20" x="891.498047"/>
     <use xlink:href="#SegoeUI-77" x="918.890625"/>
     <use xlink:href="#SegoeUI-69" x="991.15625"/>
     <use xlink:href="#SegoeUI-74" x="1015.375"/>
     <use xlink:href="#SegoeUI-68" x="1049.261719"/>
     <use xlink:href="#SegoeUI-20" x="1105.853516"/>
    </g>
    <!--  Lorentzian peak and dip -->
    <g transform="translate(77.365 34.272) scale(0.12 -0.12)">
     <defs>
      <path id="SegoeUI-4c" d="M 2913 0 
L 588 0 
L 588 4481 
L 1113 4481 
L 1113 475 
L 2913 475 
L 2913 0 
z
" transform="scale(0.015625)"/>
      <path id="SegoeUI-7a" d="M 2750 3053 
L 856 438 
L 2731 438 
L 2731 0 
L 103 0 
L 103 159 
L 1997 2763 
L 281 2763 
L 281 3200 
L 2750 3200 
L 2750 3053 
z
" transform="scale(0.015625)"/>
      <path id="SegoeUI-6b" d="M 3175 0 
L 2456 0 
L 1044 1538 
L 1031 1538 
L 1031 0 
L 519 0 
L 519 4738 
L 1031 4738 
L 1031 1734 
L 1044 1734 
L 2388 3200 
L 3059 3200 
L 1575 1656 
L 3175 0 
z
" transform="scale(0.015625)"/>
     </defs>
     <use xlink:href="#SegoeUI-20"/>
     <use xlink:href="#SegoeUI-4c" x="27.392578"/>
     <use xlink:href="#SegoeUI-6f" x="74.462891"/>
     <use xlink:href="#SegoeUI-72" x="133.056641"/>
     <use xlink:href="#SegoeUI-65" x="166.447266"/>
     <use xlink:href="#SegoeUI-6e" x="218.742188"/>
     <use xlink:href="#SegoeUI-74" x="275.333984"/>
     <use xlink:href="#SegoeUI-7a" x="309.220703"/>
     <use xlink:href="#SegoeUI-69" x="354.435547"/>
     <use xlink:href="#SegoeUI-61" x="378.654297"/>
     <use xlink:href="#SegoeUI-6e" x="429.533203"/>
     <use xlink:href="#SegoeUI-20" x="486.125"/>
     <use xlink:href="#SegoeUI-70" x="513.517578"/>
     <use xlink:href="#SegoeUI-65" x="572.306641"/>
     <use xlink:href="#SegoeUI-61" x="624.601562"/>
     <use xlink:href="#SegoeUI-6b" x="675.480469"/>
     <use xlink:href="#SegoeUI-20" x="725.1875"/>
     <use xlink:href="#SegoeUI-61" x="752.580078"/>
     <use xlink:href="#SegoeUI-6e" x="803.458984"/>
     <use xlink:href="#SegoeUI-64" x="860.050781"/>
     <use xlink:href="#SegoeUI-20" x="918.9375"/>
     <use xlink:href="#SegoeUI-64" x="946.330078"/>
     <use xlink:href="#SegoeUI-69" x="1005.216797"/>
     <use xlink:href="#SegoeUI-70" x="1029.435547"/>
    </g>
   </g>
   <g id="legend_1">
    <g id="patch_7">
     <path d="M 51.12 204.059375 
L 147.749688 204.059375 
Q 149.749688 204.059375 149.749688 202.059375 
L 149.749688 158.95 
Q 149.749688 156.95 147.749688 156.95 
L 51.12 156.95 
Q 49.12 156.95 49.12 158.95 
L 49.12 202.059375 
Q 49.12 204.059375 51.12 204.059375 
z
" style="fill: #ffffff; opacity: 0.8; stroke: #cccccc; stroke-linejoin: miter"/>
    </g>
    <g id="line2d_13">
     <path d="M 53.12 164.853125 
L 63.12 164.853125 
L 73.12 164.853125 
" style="fill: none; stroke: #9d00ff; stroke-width: 1.5; stroke-linecap: square"/>
    </g>
    <g id="text_13">
     <!-- Nonthermal -->
     <g transform="translate(81.12 168.353125) scale(0.1 -0.1)">
      <defs>
       <path id="SegoeUI-4e" d="M 4200 0 
L 3556 0 
L 1250 3572 
Q 1163 3706 1106 3853 
L 1088 3853 
Q 1113 3709 1113 3238 
L 1113 0 
L 588 0 
L 588 4481 
L 1269 4481 
L 3513 966 
Q 3653 747 3694 666 
L 3706 666 
Q 3675 859 3675 1325 
L 3675 4481 
L 4200 4481 
L 4200 0 
z
" transform="scale(0.015625)"/>
      </defs>
      <use xlink:href="#SegoeUI-4e"/>
      <use xlink:href="#SegoeUI-6f" x="74.804688"/>
      <use xlink:href="#SegoeUI-6e" x="133.398438"/>
      <use xlink:href="#SegoeUI-74" x="189.990234"/>
      <use xlink:href="#SegoeUI-68" x="223.876953"/>
      <use xlink:href="#SegoeUI-65" x="280.46875"/>
      <use xlink:href="#SegoeUI-72" x="332.763672"/>
      <use xlink:href="#SegoeUI-6d" x="367.279297"/>
      <use xlink:href="#SegoeUI-61" x="453.412109"/>
      <use xlink:href="#SegoeUI-6c" x="504.291016"/>
     </g>
    </g>
    <g id="line2d_14">
     <path d="M 53.12 179.55625 
L 63.12 179.55625 
L 73.12 179.55625 
" style="fill: none; stroke: #ff5100; stroke-width: 1.5; stroke-linecap: square"/>
    </g>
    <g id="text_14">
     <!-- Thermal probe -->
     <g transform="translate(81.12 183.05625) scale(0.1 -0.1)">
      <use xlink:href="#SegoeUI-54"/>
      <use xlink:href="#SegoeUI-68" x="52.392578"/>
      <use xlink:href="#SegoeUI-65" x="108.984375"/>
      <use xlink:href="#SegoeUI-72" x="161.279297"/>
      <use xlink:href="#SegoeUI-6d" x="195.794922"/>
      <use xlink:href="#SegoeUI-61" x="281.927734"/>
      <use xlink:href="#SegoeUI-6c" x="332.806641"/>
      <use xlink:href="#SegoeUI-20" x="357.025391"/>
      <use xlink:href="#SegoeUI-70" x="384.417969"/>
      <use xlink:href="#SegoeUI-72" x="443.207031"/>
      <use xlink:href="#SegoeUI-6f" x="476.597656"/>
      <use xlink:href="#SegoeUI-62" x="535.191406"/>
      <use xlink:href="#SegoeUI-65" x="593.980469"/>
     </g>
    </g>
    <g id="line2d_15">
     <path d="M 53.12 194.259375 
L 63.12 194.259375 
L 73.12 194.259375 
" style="fill: none; stroke: #027bce; stroke-width: 1.5; stroke-linecap: square"/>
    </g>
    <g id="text_15">
     <!-- Cold thermal -->
     <g transform="translate(81.12 197.759375) scale(0.1 -0.1)">
      <defs>
       <path id="SegoeUI-43" d="M 3638 188 
Q 3141 -75 2400 -75 
Q 1444 -75 869 540 
Q 294 1156 294 2156 
Q 294 3231 941 3893 
Q 1588 4556 2581 4556 
Q 3219 4556 3638 4372 
L 3638 3813 
Q 3156 4081 2575 4081 
Q 1803 4081 1323 3565 
Q 844 3050 844 2188 
Q 844 1369 1292 883 
Q 1741 397 2469 397 
Q 3144 397 3638 697 
L 3638 188 
z
" transform="scale(0.015625)"/>
      </defs>
      <use xlink:href="#SegoeUI-43"/>
      <use xlink:href="#SegoeUI-6f" x="61.914062"/>
      <use xlink:href="#SegoeUI-6c" x="120.507812"/>
      <use xlink:href="#SegoeUI-64" x="144.726562"/>
      <use xlink:href="#SegoeUI-20" x="203.613281"/>
      <use xlink:href="#SegoeUI-74" x="231.005859"/>
      <use xlink:href="#SegoeUI-68" x="264.892578"/>
      <use xlink:href="#SegoeUI-65" x="321.484375"/>
      <use xlink:href="#SegoeUI-72" x="373.779297"/>
      <use xlink:href="#SegoeUI-6d" x="408.294922"/>
      <use xlink:href="#SegoeUI-61" x="494.427734"/>
      <use xlink:href="#SegoeUI-6c" x="545.306641"/>
     </g>
    </g>
   </g>
  </g>
 </g>
 <defs>
  <clipPath id="p106b064b4c">
   <rect x="44.12" y="40.272" width="197.08" height="168.787375"/>
  </clipPath>
 </defs>
</svg>
