<?xml version="1.0" encoding="utf-8" standalone="no"?>
<!DOCTYPE svg PUBLIC "-//W3C//DTD SVG 1.1//EN"
  "http://www.w3.org/Graphics/SVG/1.1/DTD/svg11.dtd">
<svg xmlns:xlink="http://www.w3.org/1999/xlink" width="576pt" height="288pt" viewBox="0 0 576 288" xmlns="http://www.w3.org/2000/svg" version="1.1">
 <metadata>
  <rdf:RDF xmlns:dc="http://purl.org/dc/elements/1.1/" xmlns:cc="http://creativecommons.org/ns#" xmlns:rdf="http://www.w3.org/1999/02/22-rdf-syntax-ns#">
   <cc:Work>
    <dc:type rdf:resource="http://purl.org/dc/dcmitype/StillImage"/>
    <dc:date>2025-05-13T09:40:18.449443</dc:date>
    <dc:format>image/svg+xml</dc:format>
    <dc:creator>
     <cc:Agent>
      <dc:title>Matplotlib v3.9.2, https://matplotlib.org/</dc:title>
     </cc:Agent>
    </dc:creator>
   </cc:Work>
  </rdf:RDF>
 </metadata>
 <defs>
  <style type="text/css">*{stroke-linejoin: round; stroke-linecap: butt}</style>
 </defs>
 <g id="figure_1">
  <g id="patch_1">
   <path d="M 0 288 
L 576 288 
L 576 0 
L 0 0 
z
" style="fill: #ffffff"/>
  </g>
  <g id="axes_1">
   <g id="patch_2">
    <path d="M 38.85024 230.889905 
L 185.053239 230.889905 
L 185.053239 35.84697 
L 38.85024 35.84697 
z
" style="fill: #ffffff"/>
   </g>
   <g id="matplotlib.axis_1">
    <g id="xtick_1">
     <g id="line2d_1">
      <defs>
       <path id="m16b169e748" d="M 0 0 
L 0 3.5 
" style="stroke: #000000; stroke-width: 0.8"/>
      </defs>
      <g>
       <use xlink:href="#m16b169e748" x="45.307005" y="230.889905" style="stroke: #000000; stroke-width: 0.8"/>
      </g>
     </g>
     <g id="text_1">
      <!-- 0.00 -->
      <g transform="translate(36.136693 245.29303) scale(0.1 -0.1)">
       <defs>
        <path id="SegoeUI-30" d="M 3188 2259 
Q 3188 1697 3086 1262 
Q 2984 828 2792 529 
Q 2600 231 2320 76 
Q 2041 -78 1684 -78 
Q 1347 -78 1083 70 
Q 819 219 637 503 
Q 456 788 362 1202 
Q 269 1616 269 2150 
Q 269 2738 367 3188 
Q 466 3638 656 3942 
Q 847 4247 1130 4401 
Q 1413 4556 1778 4556 
Q 3188 4556 3188 2259 
z
M 2663 2209 
Q 2663 4122 1753 4122 
Q 794 4122 794 2175 
Q 794 359 1734 359 
Q 2663 359 2663 2209 
z
" transform="scale(0.015625)"/>
        <path id="SegoeUI-2e" d="M 697 -69 
Q 553 -69 451 34 
Q 350 138 350 281 
Q 350 425 451 529 
Q 553 634 697 634 
Q 844 634 947 529 
Q 1050 425 1050 281 
Q 1050 138 947 34 
Q 844 -69 697 -69 
z
" transform="scale(0.015625)"/>
       </defs>
       <use xlink:href="#SegoeUI-30"/>
       <use xlink:href="#SegoeUI-2e" x="53.90625"/>
       <use xlink:href="#SegoeUI-30" x="75.585938"/>
       <use xlink:href="#SegoeUI-30" x="129.492188"/>
      </g>
     </g>
    </g>
    <g id="xtick_2">
     <g id="line2d_2">
      <g>
       <use xlink:href="#m16b169e748" x="110.893033" y="230.889905" style="stroke: #000000; stroke-width: 0.8"/>
      </g>
     </g>
     <g id="text_2">
      <!-- 0.01 -->
      <g transform="translate(101.722721 245.29303) scale(0.1 -0.1)">
       <defs>
        <path id="SegoeUI-31" d="M 2263 0 
L 1750 0 
L 1750 3872 
Q 1691 3813 1577 3736 
Q 1463 3659 1320 3584 
Q 1178 3509 1020 3443 
Q 863 3378 713 3341 
L 713 3859 
Q 881 3906 1070 3986 
Q 1259 4066 1442 4164 
Q 1625 4263 1787 4370 
Q 1950 4478 2069 4581 
L 2263 4581 
L 2263 0 
z
" transform="scale(0.015625)"/>
       </defs>
       <use xlink:href="#SegoeUI-30"/>
       <use xlink:href="#SegoeUI-2e" x="53.90625"/>
       <use xlink:href="#SegoeUI-30" x="75.585938"/>
       <use xlink:href="#SegoeUI-31" x="129.492188"/>
      </g>
     </g>
    </g>
    <g id="xtick_3">
     <g id="line2d_3">
      <g>
       <use xlink:href="#m16b169e748" x="176.479061" y="230.889905" style="stroke: #000000; stroke-width: 0.8"/>
      </g>
     </g>
     <g id="text_3">
      <!-- 0.02 -->
      <g transform="translate(167.308749 245.29303) scale(0.1 -0.1)">
       <defs>
        <path id="SegoeUI-32" d="M 2413 3306 
Q 2413 3513 2348 3666 
Q 2284 3819 2173 3920 
Q 2063 4022 1913 4072 
Q 1763 4122 1588 4122 
Q 1438 4122 1294 4081 
Q 1150 4041 1014 3969 
Q 878 3897 751 3797 
Q 625 3697 516 3575 
L 516 4125 
Q 731 4334 998 4445 
Q 1266 4556 1650 4556 
Q 1925 4556 2159 4476 
Q 2394 4397 2566 4244 
Q 2738 4091 2836 3866 
Q 2934 3641 2934 3350 
Q 2934 3084 2873 2868 
Q 2813 2653 2689 2462 
Q 2566 2272 2378 2097 
Q 2191 1922 1938 1741 
Q 1622 1516 1417 1356 
Q 1213 1197 1092 1058 
Q 972 919 923 780 
Q 875 641 875 459 
L 3106 459 
L 3106 0 
L 341 0 
L 341 222 
Q 341 509 403 728 
Q 466 947 609 1144 
Q 753 1341 986 1537 
Q 1219 1734 1556 1981 
Q 1800 2156 1964 2315 
Q 2128 2475 2228 2634 
Q 2328 2794 2370 2958 
Q 2413 3122 2413 3306 
z
" transform="scale(0.015625)"/>
       </defs>
       <use xlink:href="#SegoeUI-30"/>
       <use xlink:href="#SegoeUI-2e" x="53.90625"/>
       <use xlink:href="#SegoeUI-30" x="75.585938"/>
       <use xlink:href="#SegoeUI-32" x="129.492188"/>
      </g>
     </g>
    </g>
    <g id="text_4">
     <!-- $J_R$ -->
     <g transform="translate(106.20174 258.996155) scale(0.1 -0.1)">
      <defs>
       <path id="Cmmi10-4a" d="M 697 384 
Q 759 206 928 115 
Q 1097 25 1294 25 
Q 1494 25 1680 164 
Q 1866 303 1995 512 
Q 2125 722 2175 928 
L 2931 3956 
Q 2938 3981 2939 3993 
Q 2941 4006 2944 4019 
Q 2944 4088 2894 4103 
Q 2725 4147 2209 4147 
Q 2144 4147 2144 4231 
Q 2156 4281 2164 4309 
Q 2172 4338 2192 4355 
Q 2213 4372 2253 4372 
L 3988 4372 
Q 4050 4372 4050 4288 
Q 4025 4147 3969 4147 
Q 3744 4147 3628 4112 
Q 3513 4078 3469 3928 
L 2713 903 
Q 2641 606 2420 367 
Q 2200 128 1897 -6 
Q 1594 -141 1288 -141 
Q 950 -141 695 46 
Q 441 234 441 556 
Q 441 769 556 922 
Q 672 1075 884 1075 
Q 1006 1075 1089 1000 
Q 1172 925 1172 806 
Q 1172 634 1044 506 
Q 916 378 744 378 
Q 709 378 697 384 
z
" transform="scale(0.015625)"/>
       <path id="Cmmi10-52" d="M 313 0 
Q 250 0 250 84 
Q 253 100 262 139 
Q 272 178 289 201 
Q 306 225 331 225 
Q 722 225 878 269 
Q 959 297 997 441 
L 1875 3956 
Q 1888 4019 1888 4044 
Q 1888 4113 1813 4122 
Q 1691 4147 1350 4147 
Q 1288 4147 1288 4231 
Q 1291 4247 1300 4286 
Q 1309 4325 1326 4348 
Q 1344 4372 1369 4372 
L 3309 4372 
Q 3541 4372 3791 4319 
Q 4041 4266 4250 4152 
Q 4459 4038 4593 3848 
Q 4728 3659 4728 3406 
Q 4728 3084 4515 2831 
Q 4303 2578 3978 2408 
Q 3653 2238 3347 2169 
Q 3597 2078 3756 1879 
Q 3916 1681 3916 1422 
Q 3916 1388 3914 1370 
Q 3913 1353 3909 1331 
L 3859 763 
Q 3853 638 3847 550 
Q 3841 463 3841 409 
Q 3841 234 3892 129 
Q 3944 25 4097 25 
Q 4297 25 4448 211 
Q 4600 397 4647 616 
Q 4675 672 4709 672 
L 4769 672 
Q 4831 672 4831 588 
Q 4784 403 4682 237 
Q 4581 72 4426 -34 
Q 4272 -141 4091 -141 
Q 3716 -141 3452 26 
Q 3188 194 3188 550 
Q 3188 684 3213 788 
L 3353 1356 
Q 3378 1434 3378 1538 
Q 3378 1803 3198 1954 
Q 3019 2106 2747 2106 
L 1959 2106 
L 1538 416 
Q 1522 363 1522 325 
Q 1522 259 1600 250 
Q 1722 225 2059 225 
Q 2125 225 2125 141 
Q 2103 50 2090 25 
Q 2078 0 2016 0 
L 313 0 
z
M 1997 2272 
L 2706 2272 
Q 3403 2272 3756 2625 
Q 3919 2788 4014 3039 
Q 4109 3291 4109 3541 
Q 4109 3778 3970 3912 
Q 3831 4047 3626 4097 
Q 3422 4147 3175 4147 
L 2747 4147 
Q 2572 4147 2515 4117 
Q 2459 4088 2413 3928 
L 1997 2272 
z
" transform="scale(0.015625)"/>
      </defs>
      <use xlink:href="#Cmmi10-4a" transform="translate(0 0.6875)"/>
      <use xlink:href="#Cmmi10-52" transform="translate(55.419922 -16.31875) scale(0.7)"/>
     </g>
    </g>
   </g>
   <g id="matplotlib.axis_2">
    <g id="ytick_1">
     <g id="line2d_4">
      <defs>
       <path id="m07db8f25a2" d="M 0 0 
L -3.5 0 
" style="stroke: #000000; stroke-width: 0.8"/>
      </defs>
      <g>
       <use xlink:href="#m07db8f25a2" x="38.85024" y="206.744431" style="stroke: #000000; stroke-width: 0.8"/>
      </g>
     </g>
     <g id="text_5">
      <!-- 0.5 -->
      <g transform="translate(18.90024 210.445994) scale(0.1 -0.1)">
       <defs>
        <path id="SegoeUI-35" d="M 3028 1369 
Q 3028 1041 2915 775 
Q 2803 509 2595 318 
Q 2388 128 2094 25 
Q 1800 -78 1441 -78 
Q 816 -78 513 109 
L 513 653 
Q 969 359 1447 359 
Q 1691 359 1886 431 
Q 2081 503 2218 631 
Q 2356 759 2429 940 
Q 2503 1122 2503 1338 
Q 2503 1775 2209 2023 
Q 1916 2272 1356 2272 
Q 1266 2272 1166 2269 
Q 1066 2266 966 2261 
Q 866 2256 770 2250 
Q 675 2244 597 2234 
L 750 4481 
L 2822 4481 
L 2822 4019 
L 1194 4019 
L 1103 2703 
Q 1203 2709 1315 2714 
Q 1428 2719 1516 2719 
Q 1872 2719 2153 2625 
Q 2434 2531 2629 2357 
Q 2825 2184 2926 1932 
Q 3028 1681 3028 1369 
z
" transform="scale(0.015625)"/>
       </defs>
       <use xlink:href="#SegoeUI-30"/>
       <use xlink:href="#SegoeUI-2e" x="53.90625"/>
       <use xlink:href="#SegoeUI-35" x="75.585938"/>
      </g>
     </g>
    </g>
    <g id="ytick_2">
     <g id="line2d_5">
      <g>
       <use xlink:href="#m07db8f25a2" x="38.85024" y="173.366738" style="stroke: #000000; stroke-width: 0.8"/>
      </g>
     </g>
     <g id="text_6">
      <!-- 0.6 -->
      <g transform="translate(18.90024 177.068301) scale(0.1 -0.1)">
       <defs>
        <path id="SegoeUI-36" d="M 3194 1422 
Q 3194 1094 3087 819 
Q 2981 544 2793 344 
Q 2606 144 2347 33 
Q 2088 -78 1784 -78 
Q 1447 -78 1180 62 
Q 913 203 727 467 
Q 541 731 444 1112 
Q 347 1494 347 1972 
Q 347 2556 476 3032 
Q 606 3509 845 3848 
Q 1084 4188 1421 4372 
Q 1759 4556 2175 4556 
Q 2638 4556 2919 4428 
L 2919 3944 
Q 2572 4122 2188 4122 
Q 1888 4122 1647 3987 
Q 1406 3853 1234 3608 
Q 1063 3363 970 3016 
Q 878 2669 878 2244 
L 891 2244 
Q 1200 2803 1913 2803 
Q 2206 2803 2442 2703 
Q 2678 2603 2845 2420 
Q 3013 2238 3103 1984 
Q 3194 1731 3194 1422 
z
M 2669 1356 
Q 2669 1591 2609 1778 
Q 2550 1966 2439 2097 
Q 2328 2228 2165 2298 
Q 2003 2369 1797 2369 
Q 1606 2369 1443 2297 
Q 1281 2225 1162 2101 
Q 1044 1978 976 1814 
Q 909 1650 909 1466 
Q 909 1234 975 1032 
Q 1041 831 1159 681 
Q 1278 531 1442 445 
Q 1606 359 1806 359 
Q 2000 359 2159 432 
Q 2319 506 2431 637 
Q 2544 769 2606 951 
Q 2669 1134 2669 1356 
z
" transform="scale(0.015625)"/>
       </defs>
       <use xlink:href="#SegoeUI-30"/>
       <use xlink:href="#SegoeUI-2e" x="53.90625"/>
       <use xlink:href="#SegoeUI-36" x="75.585938"/>
      </g>
     </g>
    </g>
    <g id="ytick_3">
     <g id="line2d_6">
      <g>
       <use xlink:href="#m07db8f25a2" x="38.85024" y="139.989045" style="stroke: #000000; stroke-width: 0.8"/>
      </g>
     </g>
     <g id="text_7">
      <!-- 0.7 -->
      <g transform="translate(18.90024 143.690608) scale(0.1 -0.1)">
       <defs>
        <path id="SegoeUI-37" d="M 3156 4184 
Q 3053 4006 2908 3740 
Q 2763 3475 2600 3144 
Q 2438 2813 2269 2431 
Q 2100 2050 1953 1644 
Q 1806 1238 1695 820 
Q 1584 403 1534 0 
L 984 0 
Q 1041 400 1158 817 
Q 1275 1234 1423 1636 
Q 1572 2038 1737 2409 
Q 1903 2781 2059 3093 
Q 2216 3406 2345 3645 
Q 2475 3884 2553 4019 
L 306 4019 
L 306 4481 
L 3156 4481 
L 3156 4184 
z
" transform="scale(0.015625)"/>
       </defs>
       <use xlink:href="#SegoeUI-30"/>
       <use xlink:href="#SegoeUI-2e" x="53.90625"/>
       <use xlink:href="#SegoeUI-37" x="75.585938"/>
      </g>
     </g>
    </g>
    <g id="ytick_4">
     <g id="line2d_7">
      <g>
       <use xlink:href="#m07db8f25a2" x="38.85024" y="106.611352" style="stroke: #000000; stroke-width: 0.8"/>
      </g>
     </g>
     <g id="text_8">
      <!-- 0.8 -->
      <g transform="translate(18.90024 110.312915) scale(0.1 -0.1)">
       <defs>
        <path id="SegoeUI-38" d="M 281 1250 
Q 281 1428 337 1608 
Q 394 1788 498 1944 
Q 603 2100 758 2228 
Q 913 2356 1109 2431 
Q 819 2594 647 2848 
Q 475 3103 475 3413 
Q 475 3659 570 3868 
Q 666 4078 834 4231 
Q 1003 4384 1234 4470 
Q 1466 4556 1734 4556 
Q 2006 4556 2237 4468 
Q 2469 4381 2637 4228 
Q 2806 4075 2900 3865 
Q 2994 3656 2994 3413 
Q 2994 3103 2822 2848 
Q 2650 2594 2366 2431 
Q 2559 2356 2712 2228 
Q 2866 2100 2970 1944 
Q 3075 1788 3131 1608 
Q 3188 1428 3188 1250 
Q 3188 956 3081 712 
Q 2975 469 2783 295 
Q 2591 122 2323 25 
Q 2056 -72 1734 -72 
Q 1416 -72 1150 25 
Q 884 122 690 295 
Q 497 469 389 712 
Q 281 956 281 1250 
z
M 838 1294 
Q 838 1084 902 915 
Q 966 747 1083 628 
Q 1200 509 1367 445 
Q 1534 381 1738 381 
Q 1934 381 2100 447 
Q 2266 513 2386 631 
Q 2506 750 2573 919 
Q 2641 1088 2641 1294 
Q 2641 1481 2577 1645 
Q 2513 1809 2394 1934 
Q 2275 2059 2109 2131 
Q 1944 2203 1738 2203 
Q 1544 2203 1380 2136 
Q 1216 2069 1095 1948 
Q 975 1828 906 1661 
Q 838 1494 838 1294 
z
M 997 3372 
Q 997 3213 1055 3077 
Q 1113 2941 1214 2839 
Q 1316 2738 1450 2680 
Q 1584 2622 1738 2622 
Q 1891 2622 2027 2681 
Q 2163 2741 2263 2842 
Q 2363 2944 2422 3080 
Q 2481 3216 2481 3372 
Q 2481 3534 2423 3671 
Q 2366 3809 2266 3909 
Q 2166 4009 2030 4067 
Q 1894 4125 1738 4125 
Q 1572 4125 1436 4065 
Q 1300 4006 1201 3904 
Q 1103 3803 1050 3665 
Q 997 3528 997 3372 
z
" transform="scale(0.015625)"/>
       </defs>
       <use xlink:href="#SegoeUI-30"/>
       <use xlink:href="#SegoeUI-2e" x="53.90625"/>
       <use xlink:href="#SegoeUI-38" x="75.585938"/>
      </g>
     </g>
    </g>
    <g id="ytick_5">
     <g id="line2d_8">
      <g>
       <use xlink:href="#m07db8f25a2" x="38.85024" y="73.233659" style="stroke: #000000; stroke-width: 0.8"/>
      </g>
     </g>
     <g id="text_9">
      <!-- 0.9 -->
      <g transform="translate(18.90024 76.935222) scale(0.1 -0.1)">
       <defs>
        <path id="SegoeUI-39" d="M 3138 2509 
Q 3138 1894 3016 1414 
Q 2894 934 2659 601 
Q 2425 269 2087 95 
Q 1750 -78 1319 -78 
Q 875 -78 538 78 
L 538 569 
Q 909 359 1331 359 
Q 1634 359 1873 484 
Q 2113 609 2278 848 
Q 2444 1088 2531 1438 
Q 2619 1788 2619 2241 
L 2606 2241 
Q 2319 1663 1606 1663 
Q 1319 1663 1078 1764 
Q 838 1866 663 2052 
Q 488 2238 391 2494 
Q 294 2750 294 3059 
Q 294 3391 401 3666 
Q 509 3941 701 4139 
Q 894 4338 1158 4447 
Q 1422 4556 1734 4556 
Q 2072 4556 2333 4420 
Q 2594 4284 2772 4023 
Q 2950 3763 3044 3381 
Q 3138 3000 3138 2509 
z
M 2584 2969 
Q 2584 3228 2517 3440 
Q 2450 3653 2331 3804 
Q 2213 3956 2048 4039 
Q 1884 4122 1691 4122 
Q 1506 4122 1347 4048 
Q 1188 3975 1070 3842 
Q 953 3709 886 3526 
Q 819 3344 819 3128 
Q 819 2891 883 2703 
Q 947 2516 1065 2386 
Q 1184 2256 1351 2187 
Q 1519 2119 1722 2119 
Q 1900 2119 2058 2186 
Q 2216 2253 2333 2367 
Q 2450 2481 2517 2636 
Q 2584 2791 2584 2969 
z
" transform="scale(0.015625)"/>
       </defs>
       <use xlink:href="#SegoeUI-30"/>
       <use xlink:href="#SegoeUI-2e" x="53.90625"/>
       <use xlink:href="#SegoeUI-39" x="75.585938"/>
      </g>
     </g>
    </g>
    <g id="ytick_6">
     <g id="line2d_9">
      <g>
       <use xlink:href="#m07db8f25a2" x="38.85024" y="39.855966" style="stroke: #000000; stroke-width: 0.8"/>
      </g>
     </g>
     <g id="text_10">
      <!-- 1.0 -->
      <g transform="translate(18.90024 43.557528) scale(0.1 -0.1)">
       <use xlink:href="#SegoeUI-31"/>
       <use xlink:href="#SegoeUI-2e" x="53.90625"/>
       <use xlink:href="#SegoeUI-30" x="75.585938"/>
      </g>
     </g>
    </g>
    <g id="text_11">
     <!-- $\eta$ [$\dot S_R/\dot S_L$] -->
     <g transform="translate(12.40024 155.018438) rotate(-90) scale(0.1 -0.1)">
      <defs>
       <path id="Cmmi10-b4" d="M 684 -72 
Q 606 -72 550 -22 
Q 494 28 494 109 
Q 494 147 500 166 
L 978 2075 
Q 1025 2253 1025 2388 
Q 1025 2663 838 2663 
Q 638 2663 541 2423 
Q 444 2184 353 1819 
Q 353 1800 334 1789 
Q 316 1778 300 1778 
L 225 1778 
Q 203 1778 187 1801 
Q 172 1825 172 1844 
Q 241 2122 305 2315 
Q 369 2509 505 2668 
Q 641 2828 844 2828 
Q 1081 2828 1267 2678 
Q 1453 2528 1453 2291 
Q 1641 2541 1894 2684 
Q 2147 2828 2444 2828 
Q 2778 2828 2979 2648 
Q 3181 2469 3181 2138 
Q 3181 1947 3138 1784 
L 2394 -1178 
Q 2375 -1269 2300 -1325 
Q 2225 -1381 2131 -1381 
Q 2053 -1381 1997 -1332 
Q 1941 -1284 1941 -1203 
Q 1941 -1166 1947 -1153 
L 2681 1797 
Q 2747 2059 2747 2234 
Q 2747 2413 2672 2538 
Q 2597 2663 2431 2663 
Q 1803 2663 1388 1888 
L 953 141 
Q 931 53 854 -9 
Q 778 -72 684 -72 
z
" transform="scale(0.015625)"/>
       <path id="SegoeUI-20" transform="scale(0.015625)"/>
       <path id="SegoeUI-5b" d="M 1775 -1019 
L 625 -1019 
L 625 4481 
L 1775 4481 
L 1775 4109 
L 1081 4109 
L 1081 -647 
L 1775 -647 
L 1775 -1019 
z
" transform="scale(0.015625)"/>
       <path id="Cmr10-5f" d="M 538 3928 
Q 538 4069 644 4175 
Q 750 4281 891 4281 
Q 978 4281 1062 4234 
Q 1147 4188 1194 4103 
Q 1241 4019 1241 3928 
Q 1241 3791 1137 3684 
Q 1034 3578 891 3578 
Q 750 3578 644 3684 
Q 538 3791 538 3928 
z
" transform="scale(0.015625)"/>
       <path id="Cmmi10-53" d="M 391 -141 
Q 372 -141 356 -119 
Q 341 -97 341 -78 
L 709 1416 
Q 722 1453 763 1453 
L 838 1453 
Q 863 1453 877 1434 
Q 891 1416 891 1388 
Q 838 1169 838 997 
Q 838 534 1156 309 
Q 1475 84 1959 84 
Q 2169 84 2372 187 
Q 2575 291 2726 456 
Q 2878 622 2968 826 
Q 3059 1031 3059 1241 
Q 3059 1466 2940 1642 
Q 2822 1819 2613 1869 
L 1831 2075 
Q 1516 2159 1328 2414 
Q 1141 2669 1141 2988 
Q 1141 3372 1369 3728 
Q 1597 4084 1964 4298 
Q 2331 4513 2713 4513 
Q 3006 4513 3251 4405 
Q 3497 4297 3628 4063 
L 3994 4494 
Q 4031 4513 4038 4513 
L 4078 4513 
Q 4103 4513 4118 4491 
Q 4134 4469 4134 4447 
L 3763 2963 
Q 3753 2919 3713 2919 
L 3634 2919 
Q 3578 2919 3578 2988 
Q 3609 3191 3609 3341 
Q 3609 3638 3507 3858 
Q 3406 4078 3201 4192 
Q 2997 4306 2694 4306 
Q 2438 4306 2184 4159 
Q 1931 4013 1775 3769 
Q 1619 3525 1619 3263 
Q 1619 3056 1739 2897 
Q 1859 2738 2059 2681 
L 2841 2478 
Q 3053 2422 3211 2280 
Q 3369 2138 3450 1942 
Q 3531 1747 3531 1516 
Q 3531 1213 3403 917 
Q 3275 622 3045 378 
Q 2816 134 2525 -3 
Q 2234 -141 1931 -141 
Q 1169 -141 838 306 
L 481 -122 
Q 444 -141 434 -141 
L 391 -141 
z
" transform="scale(0.015625)"/>
       <path id="Cmmi10-3d" d="M 359 -1472 
Q 359 -1453 366 -1447 
L 2591 4722 
Q 2603 4759 2634 4779 
Q 2666 4800 2706 4800 
Q 2763 4800 2798 4765 
Q 2834 4731 2834 4672 
L 2834 4647 
L 609 -1522 
Q 572 -1600 488 -1600 
Q 434 -1600 396 -1562 
Q 359 -1525 359 -1472 
z
" transform="scale(0.015625)"/>
       <path id="Cmmi10-4c" d="M 300 0 
Q 238 0 238 84 
Q 241 100 250 139 
Q 259 178 276 201 
Q 294 225 319 225 
Q 709 225 863 269 
Q 947 297 984 441 
L 1863 3956 
Q 1875 4019 1875 4044 
Q 1875 4113 1797 4122 
Q 1678 4147 1338 4147 
Q 1275 4147 1275 4231 
Q 1297 4313 1309 4342 
Q 1322 4372 1381 4372 
L 3272 4372 
Q 3328 4372 3328 4288 
Q 3319 4222 3306 4184 
Q 3294 4147 3244 4147 
Q 2772 4147 2613 4116 
Q 2456 4088 2419 3928 
L 1544 416 
Q 1516 338 1516 275 
Q 1516 225 1734 225 
L 2328 225 
Q 2831 225 3143 425 
Q 3456 625 3606 876 
Q 3756 1128 3857 1398 
Q 3959 1669 4006 1678 
L 4063 1678 
Q 4128 1678 4128 1594 
L 3559 44 
Q 3550 0 3500 0 
L 300 0 
z
" transform="scale(0.015625)"/>
       <path id="SegoeUI-5d" d="M 1313 -1019 
L 166 -1019 
L 166 -647 
L 856 -647 
L 856 4109 
L 166 4109 
L 166 4481 
L 1313 4481 
L 1313 -1019 
z
" transform="scale(0.015625)"/>
      </defs>
      <use xlink:href="#Cmmi10-b4"/>
      <use xlink:href="#SegoeUI-20" transform="translate(49.609375 0)"/>
      <use xlink:href="#SegoeUI-5b" transform="translate(77.001953 0)"/>
      <use xlink:href="#Cmr10-5f" transform="translate(130.587891 27.109375)"/>
      <use xlink:href="#Cmmi10-53" transform="translate(107.177734 0)"/>
      <use xlink:href="#Cmmi10-52" transform="translate(172.921172 -17.00625) scale(0.7)"/>
      <use xlink:href="#Cmmi10-3d" transform="translate(232.41375 0)"/>
      <use xlink:href="#Cmr10-5f" transform="translate(305.823906 27.109375)"/>
      <use xlink:href="#Cmmi10-53" transform="translate(282.41375 0)"/>
      <use xlink:href="#Cmmi10-4c" transform="translate(348.157188 -17.00625) scale(0.7)"/>
      <use xlink:href="#SegoeUI-5d" transform="translate(402.146836 0)"/>
     </g>
    </g>
   </g>
   <g id="line2d_10">
    <path d="M 45.725252 48.253986 
L 46.864433 56.317164 
L 48.571629 64.058407 
L 50.717901 71.489129 
L 53.19558 78.623487 
L 55.914674 85.471388 
L 58.800506 92.045051 
L 61.791608 98.354164 
L 64.837317 104.412872 
L 67.896863 110.2277 
L 70.937151 115.809628 
L 73.931955 121.16821 
L 76.860674 126.312518 
L 79.707455 131.25117 
L 82.460478 135.992708 
L 85.111105 140.544979 
L 87.657301 144.92238 
L 90.084106 149.112763 
L 92.401082 153.142756 
L 94.604094 157.012597 
L 96.694043 160.728849 
L 98.672735 164.297779 
L 100.54281 167.725414 
L 102.315815 171.033376 
L 103.969889 174.179597 
L 105.534304 177.216897 
L 107.004626 180.134537 
L 108.38504 182.937308 
L 109.679767 185.629914 
L 110.893055 188.216776 
L 112.029115 190.702083 
L 113.092021 193.090218 
L 114.085782 195.384755 
L 115.014423 197.589532 
L 115.881625 199.708237 
L 116.691023 201.744314 
L 117.446108 203.701044 
L 118.15021 205.581518 
L 118.806473 207.388862 
L 119.417932 209.125995 
L 119.987408 210.795698 
L 120.517621 212.400589 
L 121.011128 213.943316 
L 121.470364 215.426182 
L 121.897471 216.85186 
L 122.29473 218.222295 
L 122.664054 219.539865 
L 123.007381 220.806509 
L 123.326457 222.024317 
" clip-path="url(#peec7cb13e1)" style="fill: none; stroke: #ff5100; stroke-width: 1.5; stroke-linecap: square"/>
   </g>
   <g id="line2d_11">
    <path d="M 45.495831 44.712558 
L 46.03278 49.444153 
L 46.87476 54.086678 
L 47.993242 58.636212 
L 49.348832 63.076456 
L 50.915024 67.420958 
L 52.667064 71.674509 
L 54.583136 75.841137 
L 56.64435 79.924885 
L 58.834577 83.928473 
L 61.139905 87.861052 
L 63.549173 91.722235 
L 66.053084 95.518013 
L 68.644391 99.253327 
L 71.317769 102.932174 
L 74.069451 106.559939 
L 76.897701 110.141359 
L 79.80449 113.684173 
L 82.784184 117.185194 
L 85.846982 120.658279 
L 88.995111 124.105846 
L 92.235286 127.533707 
L 95.57629 130.948037 
L 99.029477 134.355444 
L 102.609239 137.763607 
L 106.333952 141.180753 
L 110.227518 144.616818 
L 114.321221 148.084758 
L 118.657757 151.600555 
L 123.297469 155.186779 
L 128.330342 158.878293 
L 133.905278 162.725462 
L 140.294033 166.830594 
L 148.125491 171.429272 
L 160.01133 177.505564 
L 171.225227 182.255606 
L 171.968252 182.573084 
L 172.675702 182.901257 
L 173.344848 183.236281 
L 173.981355 183.578588 
L 174.58527 183.926002 
L 175.157994 184.277207 
L 175.700958 184.630983 
L 176.215525 184.986237 
L 176.703005 185.34202 
L 177.164733 185.697414 
L 177.601944 186.051669 
L 178.015869 186.404065 
L 178.407648 186.754018 
" clip-path="url(#peec7cb13e1)" style="fill: none; stroke: #9d00ff; stroke-width: 1.5; stroke-linecap: square"/>
   </g>
   <g id="patch_3">
    <path d="M 38.85024 230.889905 
L 38.85024 35.84697 
" style="fill: none; stroke: #000000; stroke-width: 0.8; stroke-linejoin: miter; stroke-linecap: square"/>
   </g>
   <g id="patch_4">
    <path d="M 185.053239 230.889905 
L 185.053239 35.84697 
" style="fill: none; stroke: #000000; stroke-width: 0.8; stroke-linejoin: miter; stroke-linecap: square"/>
   </g>
   <g id="patch_5">
    <path d="M 38.85024 230.889905 
L 185.053239 230.889905 
" style="fill: none; stroke: #000000; stroke-width: 0.8; stroke-linejoin: miter; stroke-linecap: square"/>
   </g>
   <g id="patch_6">
    <path d="M 38.85024 35.84697 
L 185.053239 35.84697 
" style="fill: none; stroke: #000000; stroke-width: 0.8; stroke-linejoin: miter; stroke-linecap: square"/>
   </g>
   <g id="text_12">
    <!-- Highest efficency -->
    <g transform="translate(66.622677 29.84697) scale(0.12 -0.12)">
     <defs>
      <path id="SegoeUI-48" d="M 3956 0 
L 3431 0 
L 3431 2044 
L 1113 2044 
L 1113 0 
L 588 0 
L 588 4481 
L 1113 4481 
L 1113 2516 
L 3431 2516 
L 3431 4481 
L 3956 4481 
L 3956 0 
z
" transform="scale(0.015625)"/>
      <path id="SegoeUI-69" d="M 781 4013 
Q 644 4013 547 4106 
Q 450 4200 450 4344 
Q 450 4488 547 4583 
Q 644 4678 781 4678 
Q 922 4678 1020 4583 
Q 1119 4488 1119 4344 
Q 1119 4206 1020 4109 
Q 922 4013 781 4013 
z
M 1031 0 
L 519 0 
L 519 3200 
L 1031 3200 
L 1031 0 
z
" transform="scale(0.015625)"/>
      <path id="SegoeUI-67" d="M 3250 256 
Q 3250 -1506 1563 -1506 
Q 969 -1506 525 -1281 
L 525 -769 
Q 1066 -1069 1556 -1069 
Q 2738 -1069 2738 188 
L 2738 538 
L 2725 538 
Q 2359 -75 1625 -75 
Q 1028 -75 664 351 
Q 300 778 300 1497 
Q 300 2313 692 2794 
Q 1084 3275 1766 3275 
Q 2413 3275 2725 2756 
L 2738 2756 
L 2738 3200 
L 3250 3200 
L 3250 256 
z
M 2738 1447 
L 2738 1919 
Q 2738 2300 2480 2572 
Q 2222 2844 1838 2844 
Q 1363 2844 1094 2498 
Q 825 2153 825 1531 
Q 825 997 1083 676 
Q 1341 356 1766 356 
Q 2197 356 2467 662 
Q 2738 969 2738 1447 
z
" transform="scale(0.015625)"/>
      <path id="SegoeUI-68" d="M 3175 0 
L 2663 0 
L 2663 1844 
Q 2663 2844 1919 2844 
Q 1544 2844 1287 2555 
Q 1031 2266 1031 1813 
L 1031 0 
L 519 0 
L 519 4738 
L 1031 4738 
L 1031 2669 
L 1044 2669 
Q 1413 3275 2094 3275 
Q 3175 3275 3175 1972 
L 3175 0 
z
" transform="scale(0.015625)"/>
      <path id="SegoeUI-65" d="M 3091 1472 
L 831 1472 
Q 844 938 1119 647 
Q 1394 356 1875 356 
Q 2416 356 2869 713 
L 2869 231 
Q 2447 -75 1753 -75 
Q 1075 -75 687 361 
Q 300 797 300 1588 
Q 300 2334 723 2804 
Q 1147 3275 1775 3275 
Q 2403 3275 2747 2869 
Q 3091 2463 3091 1741 
L 3091 1472 
z
M 2566 1906 
Q 2563 2350 2352 2597 
Q 2141 2844 1766 2844 
Q 1403 2844 1150 2584 
Q 897 2325 838 1906 
L 2566 1906 
z
" transform="scale(0.015625)"/>
      <path id="SegoeUI-73" d="M 325 116 
L 325 666 
Q 744 356 1247 356 
Q 1922 356 1922 806 
Q 1922 934 1864 1023 
Q 1806 1113 1707 1181 
Q 1609 1250 1476 1304 
Q 1344 1359 1191 1419 
Q 978 1503 817 1589 
Q 656 1675 548 1783 
Q 441 1891 386 2028 
Q 331 2166 331 2350 
Q 331 2575 434 2748 
Q 538 2922 709 3039 
Q 881 3156 1101 3215 
Q 1322 3275 1556 3275 
Q 1972 3275 2300 3131 
L 2300 2613 
Q 1947 2844 1488 2844 
Q 1344 2844 1228 2811 
Q 1113 2778 1030 2718 
Q 947 2659 901 2576 
Q 856 2494 856 2394 
Q 856 2269 901 2184 
Q 947 2100 1034 2034 
Q 1122 1969 1247 1916 
Q 1372 1863 1531 1800 
Q 1744 1719 1912 1633 
Q 2081 1547 2200 1439 
Q 2319 1331 2383 1190 
Q 2447 1050 2447 856 
Q 2447 619 2342 444 
Q 2238 269 2063 153 
Q 1888 38 1659 -18 
Q 1431 -75 1181 -75 
Q 688 -75 325 116 
z
" transform="scale(0.015625)"/>
      <path id="SegoeUI-74" d="M 2003 31 
Q 1822 -69 1525 -69 
Q 684 -69 684 869 
L 684 2763 
L 134 2763 
L 134 3200 
L 684 3200 
L 684 3981 
L 1197 4147 
L 1197 3200 
L 2003 3200 
L 2003 2763 
L 1197 2763 
L 1197 959 
Q 1197 638 1306 500 
Q 1416 363 1669 363 
Q 1863 363 2003 469 
L 2003 31 
z
" transform="scale(0.015625)"/>
      <path id="SegoeUI-66" d="M 2100 4288 
Q 1950 4372 1759 4372 
Q 1222 4372 1222 3694 
L 1222 3200 
L 1972 3200 
L 1972 2763 
L 1222 2763 
L 1222 0 
L 713 0 
L 713 2763 
L 166 2763 
L 166 3200 
L 713 3200 
L 713 3719 
Q 713 4222 1003 4514 
Q 1294 4806 1728 4806 
Q 1963 4806 2100 4750 
L 2100 4288 
z
" transform="scale(0.015625)"/>
      <path id="SegoeUI-63" d="M 2700 147 
Q 2331 -75 1825 -75 
Q 1141 -75 720 370 
Q 300 816 300 1525 
Q 300 2316 753 2795 
Q 1206 3275 1963 3275 
Q 2384 3275 2706 3119 
L 2706 2594 
Q 2350 2844 1944 2844 
Q 1453 2844 1139 2492 
Q 825 2141 825 1569 
Q 825 1006 1120 681 
Q 1416 356 1913 356 
Q 2331 356 2700 634 
L 2700 147 
z
" transform="scale(0.015625)"/>
      <path id="SegoeUI-6e" d="M 3175 0 
L 2663 0 
L 2663 1825 
Q 2663 2844 1919 2844 
Q 1534 2844 1282 2555 
Q 1031 2266 1031 1825 
L 1031 0 
L 519 0 
L 519 3200 
L 1031 3200 
L 1031 2669 
L 1044 2669 
Q 1406 3275 2094 3275 
Q 2619 3275 2897 2936 
Q 3175 2597 3175 1956 
L 3175 0 
z
" transform="scale(0.015625)"/>
      <path id="SegoeUI-79" d="M 3066 3200 
L 1594 -513 
Q 1200 -1506 488 -1506 
Q 288 -1506 153 -1466 
L 153 -1006 
Q 319 -1063 456 -1063 
Q 844 -1063 1038 -600 
L 1294 6 
L 44 3200 
L 613 3200 
L 1478 738 
Q 1494 691 1544 494 
L 1563 494 
Q 1578 569 1625 731 
L 2534 3200 
L 3066 3200 
z
" transform="scale(0.015625)"/>
     </defs>
     <use xlink:href="#SegoeUI-48"/>
     <use xlink:href="#SegoeUI-69" x="70.996094"/>
     <use xlink:href="#SegoeUI-67" x="95.214844"/>
     <use xlink:href="#SegoeUI-68" x="154.101562"/>
     <use xlink:href="#SegoeUI-65" x="210.693359"/>
     <use xlink:href="#SegoeUI-73" x="262.988281"/>
     <use xlink:href="#SegoeUI-74" x="305.419922"/>
     <use xlink:href="#SegoeUI-20" x="339.306641"/>
     <use xlink:href="#SegoeUI-65" x="366.699219"/>
     <use xlink:href="#SegoeUI-66" x="418.994141"/>
     <use xlink:href="#SegoeUI-66" x="450.292969"/>
     <use xlink:href="#SegoeUI-69" x="481.591797"/>
     <use xlink:href="#SegoeUI-63" x="505.810547"/>
     <use xlink:href="#SegoeUI-65" x="552.001953"/>
     <use xlink:href="#SegoeUI-6e" x="604.296875"/>
     <use xlink:href="#SegoeUI-63" x="660.888672"/>
     <use xlink:href="#SegoeUI-79" x="707.080078"/>
    </g>
   </g>
  </g>
  <g id="axes_2">
   <g id="patch_7">
    <path d="M 231.139581 230.889905 
L 377.34258 230.889905 
L 377.34258 35.84697 
L 231.139581 35.84697 
z
" style="fill: #ffffff"/>
   </g>
   <g id="matplotlib.axis_3">
    <g id="xtick_4">
     <g id="line2d_12">
      <g>
       <use xlink:href="#m16b169e748" x="237.785172" y="230.889905" style="stroke: #000000; stroke-width: 0.8"/>
      </g>
     </g>
     <g id="text_13">
      <!-- 0.00 -->
      <g transform="translate(228.614859 245.29303) scale(0.1 -0.1)">
       <use xlink:href="#SegoeUI-30"/>
       <use xlink:href="#SegoeUI-2e" x="53.90625"/>
       <use xlink:href="#SegoeUI-30" x="75.585938"/>
       <use xlink:href="#SegoeUI-30" x="129.492188"/>
      </g>
     </g>
    </g>
    <g id="xtick_5">
     <g id="line2d_13">
      <g>
       <use xlink:href="#m16b169e748" x="303.278156" y="230.889905" style="stroke: #000000; stroke-width: 0.8"/>
      </g>
     </g>
     <g id="text_14">
      <!-- 0.01 -->
      <g transform="translate(294.107844 245.29303) scale(0.1 -0.1)">
       <use xlink:href="#SegoeUI-30"/>
       <use xlink:href="#SegoeUI-2e" x="53.90625"/>
       <use xlink:href="#SegoeUI-30" x="75.585938"/>
       <use xlink:href="#SegoeUI-31" x="129.492188"/>
      </g>
     </g>
    </g>
    <g id="xtick_6">
     <g id="line2d_14">
      <g>
       <use xlink:href="#m16b169e748" x="368.771141" y="230.889905" style="stroke: #000000; stroke-width: 0.8"/>
      </g>
     </g>
     <g id="text_15">
      <!-- 0.02 -->
      <g transform="translate(359.600829 245.29303) scale(0.1 -0.1)">
       <use xlink:href="#SegoeUI-30"/>
       <use xlink:href="#SegoeUI-2e" x="53.90625"/>
       <use xlink:href="#SegoeUI-30" x="75.585938"/>
       <use xlink:href="#SegoeUI-32" x="129.492188"/>
      </g>
     </g>
    </g>
    <g id="text_16">
     <!-- $J_R$ -->
     <g transform="translate(298.491081 258.996155) scale(0.1 -0.1)">
      <use xlink:href="#Cmmi10-4a" transform="translate(0 0.6875)"/>
      <use xlink:href="#Cmmi10-52" transform="translate(55.419922 -16.31875) scale(0.7)"/>
     </g>
    </g>
   </g>
   <g id="matplotlib.axis_4">
    <g id="ytick_7">
     <g id="line2d_15">
      <g>
       <use xlink:href="#m07db8f25a2" x="231.139581" y="222.024317" style="stroke: #000000; stroke-width: 0.8"/>
      </g>
     </g>
     <g id="text_17">
      <!-- 0.00 -->
      <g transform="translate(205.798956 225.72588) scale(0.1 -0.1)">
       <use xlink:href="#SegoeUI-30"/>
       <use xlink:href="#SegoeUI-2e" x="53.90625"/>
       <use xlink:href="#SegoeUI-30" x="75.585938"/>
       <use xlink:href="#SegoeUI-30" x="129.492188"/>
      </g>
     </g>
    </g>
    <g id="ytick_8">
     <g id="line2d_16">
      <g>
       <use xlink:href="#m07db8f25a2" x="231.139581" y="193.625146" style="stroke: #000000; stroke-width: 0.8"/>
      </g>
     </g>
     <g id="text_18">
      <!-- 0.01 -->
      <g transform="translate(205.798956 197.326709) scale(0.1 -0.1)">
       <use xlink:href="#SegoeUI-30"/>
       <use xlink:href="#SegoeUI-2e" x="53.90625"/>
       <use xlink:href="#SegoeUI-30" x="75.585938"/>
       <use xlink:href="#SegoeUI-31" x="129.492188"/>
      </g>
     </g>
    </g>
    <g id="ytick_9">
     <g id="line2d_17">
      <g>
       <use xlink:href="#m07db8f25a2" x="231.139581" y="165.225975" style="stroke: #000000; stroke-width: 0.8"/>
      </g>
     </g>
     <g id="text_19">
      <!-- 0.02 -->
      <g transform="translate(205.798956 168.927538) scale(0.1 -0.1)">
       <use xlink:href="#SegoeUI-30"/>
       <use xlink:href="#SegoeUI-2e" x="53.90625"/>
       <use xlink:href="#SegoeUI-30" x="75.585938"/>
       <use xlink:href="#SegoeUI-32" x="129.492188"/>
      </g>
     </g>
    </g>
    <g id="ytick_10">
     <g id="line2d_18">
      <g>
       <use xlink:href="#m07db8f25a2" x="231.139581" y="136.826804" style="stroke: #000000; stroke-width: 0.8"/>
      </g>
     </g>
     <g id="text_20">
      <!-- 0.03 -->
      <g transform="translate(205.798956 140.528367) scale(0.1 -0.1)">
       <defs>
        <path id="SegoeUI-33" d="M 2978 1269 
Q 2978 966 2864 717 
Q 2750 469 2542 292 
Q 2334 116 2043 19 
Q 1753 -78 1403 -78 
Q 763 -78 384 166 
L 384 716 
Q 838 359 1422 359 
Q 1656 359 1845 418 
Q 2034 478 2170 590 
Q 2306 703 2379 862 
Q 2453 1022 2453 1222 
Q 2453 2100 1203 2100 
L 831 2100 
L 831 2534 
L 1184 2534 
Q 2291 2534 2291 3359 
Q 2291 4122 1447 4122 
Q 972 4122 556 3803 
L 556 4300 
Q 984 4556 1575 4556 
Q 1856 4556 2084 4478 
Q 2313 4400 2475 4259 
Q 2638 4119 2727 3922 
Q 2816 3725 2816 3488 
Q 2816 2603 1922 2350 
L 1922 2338 
Q 2150 2313 2344 2227 
Q 2538 2141 2678 2003 
Q 2819 1866 2898 1680 
Q 2978 1494 2978 1269 
z
" transform="scale(0.015625)"/>
       </defs>
       <use xlink:href="#SegoeUI-30"/>
       <use xlink:href="#SegoeUI-2e" x="53.90625"/>
       <use xlink:href="#SegoeUI-30" x="75.585938"/>
       <use xlink:href="#SegoeUI-33" x="129.492188"/>
      </g>
     </g>
    </g>
    <g id="ytick_11">
     <g id="line2d_19">
      <g>
       <use xlink:href="#m07db8f25a2" x="231.139581" y="108.427633" style="stroke: #000000; stroke-width: 0.8"/>
      </g>
     </g>
     <g id="text_21">
      <!-- 0.04 -->
      <g transform="translate(205.798956 112.129196) scale(0.1 -0.1)">
       <defs>
        <path id="SegoeUI-34" d="M 2656 4481 
L 2656 1522 
L 3231 1522 
L 3231 1053 
L 2656 1053 
L 2656 0 
L 2150 0 
L 2150 1053 
L 44 1053 
L 44 1497 
Q 338 1828 638 2204 
Q 938 2581 1211 2968 
Q 1484 3356 1717 3742 
Q 1950 4128 2109 4481 
L 2656 4481 
z
M 622 1522 
L 2150 1522 
L 2150 3716 
Q 1916 3306 1706 2984 
Q 1497 2663 1308 2400 
Q 1119 2138 947 1925 
Q 775 1713 622 1522 
z
" transform="scale(0.015625)"/>
       </defs>
       <use xlink:href="#SegoeUI-30"/>
       <use xlink:href="#SegoeUI-2e" x="53.90625"/>
       <use xlink:href="#SegoeUI-30" x="75.585938"/>
       <use xlink:href="#SegoeUI-34" x="129.492188"/>
      </g>
     </g>
    </g>
    <g id="ytick_12">
     <g id="line2d_20">
      <g>
       <use xlink:href="#m07db8f25a2" x="231.139581" y="80.028462" style="stroke: #000000; stroke-width: 0.8"/>
      </g>
     </g>
     <g id="text_22">
      <!-- 0.05 -->
      <g transform="translate(205.798956 83.730025) scale(0.1 -0.1)">
       <use xlink:href="#SegoeUI-30"/>
       <use xlink:href="#SegoeUI-2e" x="53.90625"/>
       <use xlink:href="#SegoeUI-30" x="75.585938"/>
       <use xlink:href="#SegoeUI-35" x="129.492188"/>
      </g>
     </g>
    </g>
    <g id="ytick_13">
     <g id="line2d_21">
      <g>
       <use xlink:href="#m07db8f25a2" x="231.139581" y="51.629291" style="stroke: #000000; stroke-width: 0.8"/>
      </g>
     </g>
     <g id="text_23">
      <!-- 0.06 -->
      <g transform="translate(205.798956 55.330854) scale(0.1 -0.1)">
       <use xlink:href="#SegoeUI-30"/>
       <use xlink:href="#SegoeUI-2e" x="53.90625"/>
       <use xlink:href="#SegoeUI-30" x="75.585938"/>
       <use xlink:href="#SegoeUI-36" x="129.492188"/>
      </g>
     </g>
    </g>
    <g id="text_24">
     <!-- $S_{\dot S_R}$ -->
     <g transform="translate(198.798956 141.168438) rotate(-90) scale(0.1 -0.1)">
      <use xlink:href="#Cmmi10-53" transform="translate(0 0.484375)"/>
      <use xlink:href="#Cmr10-5f" transform="translate(77.775781 2.448437) scale(0.7)"/>
      <use xlink:href="#Cmmi10-53" transform="translate(61.279297 -16.521875) scale(0.7)"/>
      <use xlink:href="#Cmmi10-52" transform="translate(107.299703 -28.42625) scale(0.49)"/>
     </g>
    </g>
   </g>
   <g id="line2d_22">
    <path d="M 237.785172 222.024317 
L 237.785172 222.024317 
L 237.785172 222.024317 
L 237.785172 222.024317 
L 237.785172 222.024317 
L 237.785172 222.024317 
L 237.785172 222.024317 
L 237.785172 222.024317 
L 237.785172 222.024317 
L 237.785172 222.024317 
L 237.785172 222.024317 
L 237.785172 222.024317 
L 237.785172 222.024317 
L 237.785172 222.024317 
L 237.785172 222.024317 
L 237.785172 222.024317 
L 237.785172 222.024317 
L 237.785172 222.024317 
L 237.785172 222.024317 
L 237.785172 222.024317 
L 239.289687 221.942566 
L 239.739349 221.901751 
L 240.311074 221.841556 
L 241.032332 221.753505 
L 241.934288 221.625817 
L 243.051277 221.442474 
L 244.419776 221.181989 
L 246.076597 220.816321 
L 248.056471 220.309644 
L 250.389029 219.61748 
L 253.095157 218.686429 
L 256.183187 217.454534 
L 259.645253 215.853201 
L 263.454618 213.810299 
L 267.56439 211.254917 
L 271.908203 208.123466 
L 276.402957 204.36662 
L 280.954372 199.956048 
L 285.46325 194.89021 
L 289.833187 189.197881 
L 293.977745 182.938479 
L 297.826212 176.199703 
L 301.32749 169.09153 
L 304.451234 161.738589 
L 307.187216 154.271272 
L 309.542636 146.817689 
L 311.538227 139.4954 
L 313.204289 132.406928 
L 314.576801 125.635948 
L 315.693939 119.246049 
" clip-path="url(#pb55bb11ebb)" style="fill: none; stroke: #ff5100; stroke-width: 1.5; stroke-linecap: square"/>
   </g>
   <g id="line2d_23">
    <path d="M 237.785172 222.024317 
L 237.785172 222.024317 
L 237.785172 222.024317 
L 237.785172 222.024317 
L 237.785172 222.024317 
L 237.785172 222.024317 
L 237.785172 222.024317 
L 237.785172 222.024317 
L 237.785172 222.024317 
L 237.785172 222.024317 
L 237.785172 222.024317 
L 237.785172 222.024317 
L 237.785172 222.024317 
L 237.785172 222.024317 
L 237.785172 222.024317 
L 237.785172 222.024317 
L 237.785172 222.024317 
L 237.785172 222.024317 
L 237.785172 222.024317 
L 237.785172 222.024317 
L 237.785172 222.024317 
L 237.785172 222.024317 
L 238.286893 221.989005 
L 238.452322 221.970095 
L 238.67078 221.941187 
L 238.95796 221.897267 
L 239.33381 221.830802 
L 239.82252 221.730878 
L 240.453028 221.581821 
L 241.258688 221.361611 
L 242.276192 221.040062 
L 243.542081 220.577594 
L 245.096735 219.92098 
L 246.965617 219.008387 
L 249.167763 217.765268 
L 251.70514 216.109452 
L 282.000807 192.986478 
L 301.034037 176.503756 
L 314.215167 163.268697 
L 324.633461 151.162376 
L 333.269618 139.553723 
L 340.584886 128.18145 
L 346.838206 116.939222 
L 352.190677 105.812616 
L 356.759568 94.830721 
L 360.634995 84.06026 
L 363.895854 73.582088 
L 366.614745 63.480597 
L 368.860338 53.834362 
L 370.696989 44.712558 
" clip-path="url(#pb55bb11ebb)" style="fill: none; stroke: #9d00ff; stroke-width: 1.5; stroke-linecap: square"/>
   </g>
   <g id="patch_8">
    <path d="M 231.139581 230.889905 
L 231.139581 35.84697 
" style="fill: none; stroke: #000000; stroke-width: 0.8; stroke-linejoin: miter; stroke-linecap: square"/>
   </g>
   <g id="patch_9">
    <path d="M 377.34258 230.889905 
L 377.34258 35.84697 
" style="fill: none; stroke: #000000; stroke-width: 0.8; stroke-linejoin: miter; stroke-linecap: square"/>
   </g>
   <g id="patch_10">
    <path d="M 231.139581 230.889905 
L 377.34258 230.889905 
" style="fill: none; stroke: #000000; stroke-width: 0.8; stroke-linejoin: miter; stroke-linecap: square"/>
   </g>
   <g id="patch_11">
    <path d="M 231.139581 35.84697 
L 377.34258 35.84697 
" style="fill: none; stroke: #000000; stroke-width: 0.8; stroke-linejoin: miter; stroke-linecap: square"/>
   </g>
   <g id="text_25">
    <!-- Lowest noise -->
    <g transform="translate(270.185456 29.84697) scale(0.12 -0.12)">
     <defs>
      <path id="SegoeUI-4c" d="M 2913 0 
L 588 0 
L 588 4481 
L 1113 4481 
L 1113 475 
L 2913 475 
L 2913 0 
z
" transform="scale(0.015625)"/>
      <path id="SegoeUI-6f" d="M 1856 -75 
Q 1147 -75 723 373 
Q 300 822 300 1563 
Q 300 2369 740 2822 
Q 1181 3275 1931 3275 
Q 2647 3275 3048 2834 
Q 3450 2394 3450 1613 
Q 3450 847 3017 386 
Q 2584 -75 1856 -75 
z
M 1894 2844 
Q 1400 2844 1112 2508 
Q 825 2172 825 1581 
Q 825 1013 1115 684 
Q 1406 356 1894 356 
Q 2391 356 2658 678 
Q 2925 1000 2925 1594 
Q 2925 2194 2658 2519 
Q 2391 2844 1894 2844 
z
" transform="scale(0.015625)"/>
      <path id="SegoeUI-77" d="M 4550 3200 
L 3591 0 
L 3059 0 
L 2400 2291 
Q 2363 2422 2350 2588 
L 2338 2588 
Q 2328 2475 2272 2297 
L 1556 0 
L 1044 0 
L 75 3200 
L 613 3200 
L 1275 794 
Q 1306 684 1319 506 
L 1344 506 
Q 1353 644 1400 800 
L 2138 3200 
L 2606 3200 
L 3269 788 
Q 3300 672 3316 500 
L 3341 500 
Q 3347 622 3394 788 
L 4044 3200 
L 4550 3200 
z
" transform="scale(0.015625)"/>
     </defs>
     <use xlink:href="#SegoeUI-4c"/>
     <use xlink:href="#SegoeUI-6f" x="47.070312"/>
     <use xlink:href="#SegoeUI-77" x="105.664062"/>
     <use xlink:href="#SegoeUI-65" x="177.429688"/>
     <use xlink:href="#SegoeUI-73" x="229.724609"/>
     <use xlink:href="#SegoeUI-74" x="272.15625"/>
     <use xlink:href="#SegoeUI-20" x="306.042969"/>
     <use xlink:href="#SegoeUI-6e" x="333.435547"/>
     <use xlink:href="#SegoeUI-6f" x="390.027344"/>
     <use xlink:href="#SegoeUI-69" x="448.621094"/>
     <use xlink:href="#SegoeUI-73" x="472.839844"/>
     <use xlink:href="#SegoeUI-65" x="515.271484"/>
    </g>
   </g>
  </g>
  <g id="axes_3">
   <g id="patch_12">
    <path d="M 423.831645 230.889905 
L 570.034644 230.889905 
L 570.034644 35.84697 
L 423.831645 35.84697 
z
" style="fill: #ffffff"/>
   </g>
   <g id="matplotlib.axis_5">
    <g id="xtick_7">
     <g id="line2d_24">
      <g>
       <use xlink:href="#m16b169e748" x="443.441904" y="230.889905" style="stroke: #000000; stroke-width: 0.8"/>
      </g>
     </g>
     <g id="text_26">
      <!-- 0.005 -->
      <g transform="translate(431.576279 245.29303) scale(0.1 -0.1)">
       <use xlink:href="#SegoeUI-30"/>
       <use xlink:href="#SegoeUI-2e" x="53.90625"/>
       <use xlink:href="#SegoeUI-30" x="75.585938"/>
       <use xlink:href="#SegoeUI-30" x="129.492188"/>
       <use xlink:href="#SegoeUI-35" x="183.398438"/>
      </g>
     </g>
    </g>
    <g id="xtick_8">
     <g id="line2d_25">
      <g>
       <use xlink:href="#m16b169e748" x="482.655559" y="230.889905" style="stroke: #000000; stroke-width: 0.8"/>
      </g>
     </g>
     <g id="text_27">
      <!-- 0.010 -->
      <g transform="translate(470.789934 245.29303) scale(0.1 -0.1)">
       <use xlink:href="#SegoeUI-30"/>
       <use xlink:href="#SegoeUI-2e" x="53.90625"/>
       <use xlink:href="#SegoeUI-30" x="75.585938"/>
       <use xlink:href="#SegoeUI-31" x="129.492188"/>
       <use xlink:href="#SegoeUI-30" x="183.398438"/>
      </g>
     </g>
    </g>
    <g id="xtick_9">
     <g id="line2d_26">
      <g>
       <use xlink:href="#m16b169e748" x="521.869215" y="230.889905" style="stroke: #000000; stroke-width: 0.8"/>
      </g>
     </g>
     <g id="text_28">
      <!-- 0.015 -->
      <g transform="translate(510.00359 245.29303) scale(0.1 -0.1)">
       <use xlink:href="#SegoeUI-30"/>
       <use xlink:href="#SegoeUI-2e" x="53.90625"/>
       <use xlink:href="#SegoeUI-30" x="75.585938"/>
       <use xlink:href="#SegoeUI-31" x="129.492188"/>
       <use xlink:href="#SegoeUI-35" x="183.398438"/>
      </g>
     </g>
    </g>
    <g id="xtick_10">
     <g id="line2d_27">
      <g>
       <use xlink:href="#m16b169e748" x="561.082871" y="230.889905" style="stroke: #000000; stroke-width: 0.8"/>
      </g>
     </g>
     <g id="text_29">
      <!-- 0.020 -->
      <g transform="translate(549.217246 245.29303) scale(0.1 -0.1)">
       <use xlink:href="#SegoeUI-30"/>
       <use xlink:href="#SegoeUI-2e" x="53.90625"/>
       <use xlink:href="#SegoeUI-30" x="75.585938"/>
       <use xlink:href="#SegoeUI-32" x="129.492188"/>
       <use xlink:href="#SegoeUI-30" x="183.398438"/>
      </g>
     </g>
    </g>
    <g id="text_30">
     <!-- $J_R$ -->
     <g transform="translate(491.183145 258.996155) scale(0.1 -0.1)">
      <use xlink:href="#Cmmi10-4a" transform="translate(0 0.6875)"/>
      <use xlink:href="#Cmmi10-52" transform="translate(55.419922 -16.31875) scale(0.7)"/>
     </g>
    </g>
   </g>
   <g id="matplotlib.axis_6">
    <g id="ytick_14">
     <g id="line2d_28">
      <g>
       <use xlink:href="#m07db8f25a2" x="423.831645" y="207.40562" style="stroke: #000000; stroke-width: 0.8"/>
      </g>
     </g>
     <g id="text_31">
      <!-- 0.02 -->
      <g transform="translate(398.49102 211.107183) scale(0.1 -0.1)">
       <use xlink:href="#SegoeUI-30"/>
       <use xlink:href="#SegoeUI-2e" x="53.90625"/>
       <use xlink:href="#SegoeUI-30" x="75.585938"/>
       <use xlink:href="#SegoeUI-32" x="129.492188"/>
      </g>
     </g>
    </g>
    <g id="ytick_15">
     <g id="line2d_29">
      <g>
       <use xlink:href="#m07db8f25a2" x="423.831645" y="175.832002" style="stroke: #000000; stroke-width: 0.8"/>
      </g>
     </g>
     <g id="text_32">
      <!-- 0.04 -->
      <g transform="translate(398.49102 179.533565) scale(0.1 -0.1)">
       <use xlink:href="#SegoeUI-30"/>
       <use xlink:href="#SegoeUI-2e" x="53.90625"/>
       <use xlink:href="#SegoeUI-30" x="75.585938"/>
       <use xlink:href="#SegoeUI-34" x="129.492188"/>
      </g>
     </g>
    </g>
    <g id="ytick_16">
     <g id="line2d_30">
      <g>
       <use xlink:href="#m07db8f25a2" x="423.831645" y="144.258384" style="stroke: #000000; stroke-width: 0.8"/>
      </g>
     </g>
     <g id="text_33">
      <!-- 0.06 -->
      <g transform="translate(398.49102 147.959947) scale(0.1 -0.1)">
       <use xlink:href="#SegoeUI-30"/>
       <use xlink:href="#SegoeUI-2e" x="53.90625"/>
       <use xlink:href="#SegoeUI-30" x="75.585938"/>
       <use xlink:href="#SegoeUI-36" x="129.492188"/>
      </g>
     </g>
    </g>
    <g id="ytick_17">
     <g id="line2d_31">
      <g>
       <use xlink:href="#m07db8f25a2" x="423.831645" y="112.684766" style="stroke: #000000; stroke-width: 0.8"/>
      </g>
     </g>
     <g id="text_34">
      <!-- 0.08 -->
      <g transform="translate(398.49102 116.386329) scale(0.1 -0.1)">
       <use xlink:href="#SegoeUI-30"/>
       <use xlink:href="#SegoeUI-2e" x="53.90625"/>
       <use xlink:href="#SegoeUI-30" x="75.585938"/>
       <use xlink:href="#SegoeUI-38" x="129.492188"/>
      </g>
     </g>
    </g>
    <g id="ytick_18">
     <g id="line2d_32">
      <g>
       <use xlink:href="#m07db8f25a2" x="423.831645" y="81.111148" style="stroke: #000000; stroke-width: 0.8"/>
      </g>
     </g>
     <g id="text_35">
      <!-- 0.10 -->
      <g transform="translate(398.49102 84.81271) scale(0.1 -0.1)">
       <use xlink:href="#SegoeUI-30"/>
       <use xlink:href="#SegoeUI-2e" x="53.90625"/>
       <use xlink:href="#SegoeUI-31" x="75.585938"/>
       <use xlink:href="#SegoeUI-30" x="129.492188"/>
      </g>
     </g>
    </g>
    <g id="ytick_19">
     <g id="line2d_33">
      <g>
       <use xlink:href="#m07db8f25a2" x="423.831645" y="49.53753" style="stroke: #000000; stroke-width: 0.8"/>
      </g>
     </g>
     <g id="text_36">
      <!-- 0.12 -->
      <g transform="translate(398.49102 53.239092) scale(0.1 -0.1)">
       <use xlink:href="#SegoeUI-30"/>
       <use xlink:href="#SegoeUI-2e" x="53.90625"/>
       <use xlink:href="#SegoeUI-31" x="75.585938"/>
       <use xlink:href="#SegoeUI-32" x="129.492188"/>
      </g>
     </g>
    </g>
    <g id="text_37">
     <!-- $S_{\dot S_R}/ \eta$ -->
     <g transform="translate(391.49102 146.118437) rotate(-90) scale(0.1 -0.1)">
      <use xlink:href="#Cmmi10-53"/>
      <use xlink:href="#Cmr10-5f" transform="translate(77.775781 1.964062) scale(0.7)"/>
      <use xlink:href="#Cmmi10-53" transform="translate(61.279297 -17.00625) scale(0.7)"/>
      <use xlink:href="#Cmmi10-52" transform="translate(107.299703 -28.910625) scale(0.49)"/>
      <use xlink:href="#Cmmi10-3d" transform="translate(155.321852 0)"/>
      <use xlink:href="#Cmmi10-b4" transform="translate(205.321852 0)"/>
     </g>
    </g>
   </g>
   <g id="line2d_34">
    <path d="M 431.31276 222.024317 
L 432.937989 220.702183 
L 434.636788 219.279419 
L 436.391036 217.765637 
L 438.216885 216.140064 
L 440.1065 214.401899 
L 442.057255 212.545192 
L 444.065952 210.564165 
L 446.128539 208.453113 
L 448.240243 206.206419 
L 450.395519 203.818784 
L 452.588198 201.28535 
L 454.811157 198.601579 
L 457.056896 195.763382 
L 459.316402 192.768382 
L 461.581357 189.613482 
L 463.84224 186.297668 
L 466.089207 182.820597 
L 468.312492 179.183401 
L 470.502169 175.388326 
L 472.648563 171.439118 
L 474.742388 167.341033 
L 476.774677 163.10063 
L 478.737619 158.726344 
L 480.62391 154.227917 
L 482.427236 149.616277 
L 484.142805 144.904314 
L 485.766445 140.105304 
L 487.295431 135.234163 
L 488.728256 130.306494 
L 490.064439 125.338513 
L 491.304627 120.34687 
L 492.450442 115.348581 
L 493.500923 110.376391 
L 494.469201 105.398872 
L 495.349233 100.480544 
L 496.148479 95.620767 
L 496.871592 90.834381 
L 497.523377 86.13517 
" clip-path="url(#p912fe4f592)" style="fill: none; stroke: #ff5100; stroke-width: 1.5; stroke-linecap: square"/>
   </g>
   <g id="line2d_35">
    <path d="M 430.477236 219.995695 
L 432.711565 218.268124 
L 435.113777 216.413638 
L 440.472166 212.272735 
L 443.450543 209.961884 
L 446.640859 207.474846 
L 450.049498 204.801092 
L 453.68125 201.92972 
L 457.536563 198.851542 
L 461.611879 195.558693 
L 465.898453 192.045147 
L 470.381611 188.307205 
L 475.040332 184.343832 
L 479.84724 180.156999 
L 484.769069 175.751691 
L 489.767382 171.13548 
L 494.800948 166.318749 
L 499.826935 161.31339 
L 504.803343 156.132551 
L 509.690758 150.78994 
L 514.453718 145.299268 
L 519.061731 139.674193 
L 523.489504 133.928349 
L 527.716788 128.075329 
L 531.728388 122.129438 
L 535.513349 116.105225 
L 539.063933 110.019862 
L 542.377106 103.890024 
L 545.452129 97.735153 
L 548.290124 91.57468 
L 550.896384 85.430908 
L 553.277149 79.325646 
L 555.440792 73.281226 
L 557.397187 67.320142 
L 559.157909 61.462879 
L 560.73477 55.73058 
L 562.140791 50.141618 
L 563.389053 44.712558 
" clip-path="url(#p912fe4f592)" style="fill: none; stroke: #9d00ff; stroke-width: 1.5; stroke-linecap: square"/>
   </g>
   <g id="patch_13">
    <path d="M 423.831645 230.889905 
L 423.831645 35.84697 
" style="fill: none; stroke: #000000; stroke-width: 0.8; stroke-linejoin: miter; stroke-linecap: square"/>
   </g>
   <g id="patch_14">
    <path d="M 570.034644 230.889905 
L 570.034644 35.84697 
" style="fill: none; stroke: #000000; stroke-width: 0.8; stroke-linejoin: miter; stroke-linecap: square"/>
   </g>
   <g id="patch_15">
    <path d="M 423.831645 230.889905 
L 570.034644 230.889905 
" style="fill: none; stroke: #000000; stroke-width: 0.8; stroke-linejoin: miter; stroke-linecap: square"/>
   </g>
   <g id="patch_16">
    <path d="M 423.831645 35.84697 
L 570.034644 35.84697 
" style="fill: none; stroke: #000000; stroke-width: 0.8; stroke-linejoin: miter; stroke-linecap: square"/>
   </g>
   <g id="text_38">
    <!-- Lowest noise-eff. fraction -->
    <g transform="translate(430.83002 29.84697) scale(0.12 -0.12)">
     <defs>
      <path id="SegoeUI-2d" d="M 2156 1581 
L 450 1581 
L 450 1984 
L 2156 1984 
L 2156 1581 
z
" transform="scale(0.015625)"/>
      <path id="SegoeUI-72" d="M 2188 2681 
Q 2053 2784 1800 2784 
Q 1472 2784 1251 2475 
Q 1031 2166 1031 1631 
L 1031 0 
L 519 0 
L 519 3200 
L 1031 3200 
L 1031 2541 
L 1044 2541 
Q 1153 2878 1378 3067 
Q 1603 3256 1881 3256 
Q 2081 3256 2188 3213 
L 2188 2681 
z
" transform="scale(0.015625)"/>
      <path id="SegoeUI-61" d="M 2809 0 
L 2297 0 
L 2297 500 
L 2284 500 
Q 1950 -75 1300 -75 
Q 822 -75 551 178 
Q 281 431 281 850 
Q 281 1747 1338 1894 
L 2297 2028 
Q 2297 2844 1638 2844 
Q 1059 2844 594 2450 
L 594 2975 
Q 1066 3275 1681 3275 
Q 2809 3275 2809 2081 
L 2809 0 
z
M 2297 1619 
L 1525 1513 
Q 1169 1463 987 1336 
Q 806 1209 806 888 
Q 806 653 973 504 
Q 1141 356 1419 356 
Q 1800 356 2048 623 
Q 2297 891 2297 1300 
L 2297 1619 
z
" transform="scale(0.015625)"/>
     </defs>
     <use xlink:href="#SegoeUI-4c"/>
     <use xlink:href="#SegoeUI-6f" x="47.070312"/>
     <use xlink:href="#SegoeUI-77" x="105.664062"/>
     <use xlink:href="#SegoeUI-65" x="177.429688"/>
     <use xlink:href="#SegoeUI-73" x="229.724609"/>
     <use xlink:href="#SegoeUI-74" x="272.15625"/>
     <use xlink:href="#SegoeUI-20" x="306.042969"/>
     <use xlink:href="#SegoeUI-6e" x="333.435547"/>
     <use xlink:href="#SegoeUI-6f" x="390.027344"/>
     <use xlink:href="#SegoeUI-69" x="448.621094"/>
     <use xlink:href="#SegoeUI-73" x="472.839844"/>
     <use xlink:href="#SegoeUI-65" x="515.271484"/>
     <use xlink:href="#SegoeUI-2d" x="567.566406"/>
     <use xlink:href="#SegoeUI-65" x="607.556641"/>
     <use xlink:href="#SegoeUI-66" x="659.851562"/>
     <use xlink:href="#SegoeUI-66" x="691.150391"/>
     <use xlink:href="#SegoeUI-2e" x="716.199219"/>
     <use xlink:href="#SegoeUI-20" x="737.878906"/>
     <use xlink:href="#SegoeUI-66" x="765.271484"/>
     <use xlink:href="#SegoeUI-72" x="796.570312"/>
     <use xlink:href="#SegoeUI-61" x="831.335938"/>
     <use xlink:href="#SegoeUI-63" x="882.214844"/>
     <use xlink:href="#SegoeUI-74" x="928.40625"/>
     <use xlink:href="#SegoeUI-69" x="962.292969"/>
     <use xlink:href="#SegoeUI-6f" x="986.511719"/>
     <use xlink:href="#SegoeUI-6e" x="1045.105469"/>
    </g>
   </g>
  </g>
  <g id="text_39">
   <!-- x -->
   <g transform="translate(576 0) scale(0.1 -0.1)">
    <defs>
     <path id="SegoeUI-78" d="M 2856 3200 
L 1781 1581 
L 2838 0 
L 2241 0 
L 1613 1038 
Q 1553 1134 1472 1281 
L 1459 1281 
Q 1444 1253 1313 1038 
L 672 0 
L 81 0 
L 1172 1569 
L 128 3200 
L 725 3200 
L 1344 2106 
Q 1413 1984 1478 1856 
L 1491 1856 
L 2291 3200 
L 2856 3200 
z
" transform="scale(0.015625)"/>
    </defs>
    <use xlink:href="#SegoeUI-78"/>
   </g>
  </g>
  <g id="text_40">
   <!-- Optimized quantifiers over cooling power spectrum for thermal with Lorentzian peak and dip -->
   <g transform="translate(42.548438 12.01149) scale(0.12 -0.12)">
    <defs>
     <path id="SegoeUI-4f" d="M 2394 -75 
Q 1441 -75 867 553 
Q 294 1181 294 2188 
Q 294 3269 878 3912 
Q 1463 4556 2469 4556 
Q 3397 4556 3964 3931 
Q 4531 3306 4531 2297 
Q 4531 1200 3950 562 
Q 3369 -75 2394 -75 
z
M 2431 4081 
Q 1725 4081 1284 3572 
Q 844 3063 844 2234 
Q 844 1406 1273 901 
Q 1703 397 2394 397 
Q 3131 397 3556 878 
Q 3981 1359 3981 2225 
Q 3981 3113 3568 3597 
Q 3156 4081 2431 4081 
z
" transform="scale(0.015625)"/>
     <path id="SegoeUI-70" d="M 1044 463 
L 1031 463 
L 1031 -1472 
L 519 -1472 
L 519 3200 
L 1031 3200 
L 1031 2638 
L 1044 2638 
Q 1422 3275 2150 3275 
Q 2769 3275 3116 2845 
Q 3463 2416 3463 1694 
Q 3463 891 3072 408 
Q 2681 -75 2003 -75 
Q 1381 -75 1044 463 
z
M 1031 1753 
L 1031 1306 
Q 1031 909 1289 632 
Q 1547 356 1944 356 
Q 2409 356 2673 712 
Q 2938 1069 2938 1703 
Q 2938 2238 2691 2541 
Q 2444 2844 2022 2844 
Q 1575 2844 1303 2533 
Q 1031 2222 1031 1753 
z
" transform="scale(0.015625)"/>
     <path id="SegoeUI-6d" d="M 5063 0 
L 4550 0 
L 4550 1838 
Q 4550 2369 4386 2606 
Q 4222 2844 3834 2844 
Q 3506 2844 3276 2544 
Q 3047 2244 3047 1825 
L 3047 0 
L 2534 0 
L 2534 1900 
Q 2534 2844 1806 2844 
Q 1469 2844 1250 2561 
Q 1031 2278 1031 1825 
L 1031 0 
L 519 0 
L 519 3200 
L 1031 3200 
L 1031 2694 
L 1044 2694 
Q 1384 3275 2038 3275 
Q 2366 3275 2609 3092 
Q 2853 2909 2944 2613 
Q 3300 3275 4006 3275 
Q 5063 3275 5063 1972 
L 5063 0 
z
" transform="scale(0.015625)"/>
     <path id="SegoeUI-7a" d="M 2750 3053 
L 856 438 
L 2731 438 
L 2731 0 
L 103 0 
L 103 159 
L 1997 2763 
L 281 2763 
L 281 3200 
L 2750 3200 
L 2750 3053 
z
" transform="scale(0.015625)"/>
     <path id="SegoeUI-64" d="M 3250 0 
L 2738 0 
L 2738 544 
L 2725 544 
Q 2369 -75 1625 -75 
Q 1022 -75 661 354 
Q 300 784 300 1525 
Q 300 2319 700 2797 
Q 1100 3275 1766 3275 
Q 2425 3275 2725 2756 
L 2738 2756 
L 2738 4738 
L 3250 4738 
L 3250 0 
z
M 2738 1447 
L 2738 1919 
Q 2738 2306 2481 2575 
Q 2225 2844 1831 2844 
Q 1363 2844 1094 2500 
Q 825 2156 825 1550 
Q 825 997 1083 676 
Q 1341 356 1775 356 
Q 2203 356 2470 665 
Q 2738 975 2738 1447 
z
" transform="scale(0.015625)"/>
     <path id="SegoeUI-71" d="M 3250 -1472 
L 2738 -1472 
L 2738 550 
L 2725 550 
Q 2391 -75 1631 -75 
Q 1028 -75 664 354 
Q 300 784 300 1525 
Q 300 2322 700 2798 
Q 1100 3275 1775 3275 
Q 2431 3275 2725 2756 
L 2738 2756 
L 2738 3200 
L 3250 3200 
L 3250 -1472 
z
M 2738 1441 
L 2738 1906 
Q 2738 2300 2480 2572 
Q 2222 2844 1825 2844 
Q 1363 2844 1094 2501 
Q 825 2159 825 1538 
Q 825 984 1084 670 
Q 1344 356 1753 356 
Q 2203 356 2470 664 
Q 2738 972 2738 1441 
z
" transform="scale(0.015625)"/>
     <path id="SegoeUI-75" d="M 3106 0 
L 2594 0 
L 2594 506 
L 2581 506 
Q 2263 -75 1594 -75 
Q 450 -75 450 1288 
L 450 3200 
L 959 3200 
L 959 1369 
Q 959 356 1734 356 
Q 2109 356 2351 632 
Q 2594 909 2594 1356 
L 2594 3200 
L 3106 3200 
L 3106 0 
z
" transform="scale(0.015625)"/>
     <path id="SegoeUI-76" d="M 3034 3200 
L 1759 0 
L 1256 0 
L 44 3200 
L 606 3200 
L 1419 875 
Q 1509 619 1531 428 
L 1544 428 
Q 1575 669 1644 863 
L 2494 3200 
L 3034 3200 
z
" transform="scale(0.015625)"/>
     <path id="SegoeUI-6c" d="M 1031 0 
L 519 0 
L 519 4738 
L 1031 4738 
L 1031 0 
z
" transform="scale(0.015625)"/>
     <path id="SegoeUI-6b" d="M 3175 0 
L 2456 0 
L 1044 1538 
L 1031 1538 
L 1031 0 
L 519 0 
L 519 4738 
L 1031 4738 
L 1031 1734 
L 1044 1734 
L 2388 3200 
L 3059 3200 
L 1575 1656 
L 3175 0 
z
" transform="scale(0.015625)"/>
    </defs>
    <use xlink:href="#SegoeUI-4f"/>
    <use xlink:href="#SegoeUI-70" x="75.390625"/>
    <use xlink:href="#SegoeUI-74" x="134.179688"/>
    <use xlink:href="#SegoeUI-69" x="168.066406"/>
    <use xlink:href="#SegoeUI-6d" x="192.285156"/>
    <use xlink:href="#SegoeUI-69" x="278.417969"/>
    <use xlink:href="#SegoeUI-7a" x="302.636719"/>
    <use xlink:href="#SegoeUI-65" x="347.851562"/>
    <use xlink:href="#SegoeUI-64" x="400.146484"/>
    <use xlink:href="#SegoeUI-20" x="459.033203"/>
    <use xlink:href="#SegoeUI-71" x="486.425781"/>
    <use xlink:href="#SegoeUI-75" x="545.3125"/>
    <use xlink:href="#SegoeUI-61" x="601.904297"/>
    <use xlink:href="#SegoeUI-6e" x="652.783203"/>
    <use xlink:href="#SegoeUI-74" x="709.375"/>
    <use xlink:href="#SegoeUI-69" x="743.261719"/>
    <use xlink:href="#SegoeUI-66" x="767.480469"/>
    <use xlink:href="#SegoeUI-69" x="798.779297"/>
    <use xlink:href="#SegoeUI-65" x="822.998047"/>
    <use xlink:href="#SegoeUI-72" x="875.292969"/>
    <use xlink:href="#SegoeUI-73" x="910.683594"/>
    <use xlink:href="#SegoeUI-20" x="953.115234"/>
    <use xlink:href="#SegoeUI-6f" x="980.507812"/>
    <use xlink:href="#SegoeUI-76" x="1039.101562"/>
    <use xlink:href="#SegoeUI-65" x="1086.376953"/>
    <use xlink:href="#SegoeUI-72" x="1138.671875"/>
    <use xlink:href="#SegoeUI-20" x="1173.4375"/>
    <use xlink:href="#SegoeUI-63" x="1200.830078"/>
    <use xlink:href="#SegoeUI-6f" x="1247.021484"/>
    <use xlink:href="#SegoeUI-6f" x="1305.615234"/>
    <use xlink:href="#SegoeUI-6c" x="1364.208984"/>
    <use xlink:href="#SegoeUI-69" x="1388.427734"/>
    <use xlink:href="#SegoeUI-6e" x="1412.646484"/>
    <use xlink:href="#SegoeUI-67" x="1469.238281"/>
    <use xlink:href="#SegoeUI-20" x="1528.125"/>
    <use xlink:href="#SegoeUI-70" x="1555.517578"/>
    <use xlink:href="#SegoeUI-6f" x="1614.306641"/>
    <use xlink:href="#SegoeUI-77" x="1672.900391"/>
    <use xlink:href="#SegoeUI-65" x="1744.666016"/>
    <use xlink:href="#SegoeUI-72" x="1796.960938"/>
    <use xlink:href="#SegoeUI-20" x="1831.726562"/>
    <use xlink:href="#SegoeUI-73" x="1859.119141"/>
    <use xlink:href="#SegoeUI-70" x="1901.550781"/>
    <use xlink:href="#SegoeUI-65" x="1960.339844"/>
    <use xlink:href="#SegoeUI-63" x="2012.634766"/>
    <use xlink:href="#SegoeUI-74" x="2058.826172"/>
    <use xlink:href="#SegoeUI-72" x="2092.712891"/>
    <use xlink:href="#SegoeUI-75" x="2127.478516"/>
    <use xlink:href="#SegoeUI-6d" x="2184.070312"/>
    <use xlink:href="#SegoeUI-20" x="2270.203125"/>
    <use xlink:href="#SegoeUI-66" x="2297.595703"/>
    <use xlink:href="#SegoeUI-6f" x="2328.894531"/>
    <use xlink:href="#SegoeUI-72" x="2387.488281"/>
    <use xlink:href="#SegoeUI-20" x="2422.253906"/>
    <use xlink:href="#SegoeUI-74" x="2449.646484"/>
    <use xlink:href="#SegoeUI-68" x="2483.533203"/>
    <use xlink:href="#SegoeUI-65" x="2540.125"/>
    <use xlink:href="#SegoeUI-72" x="2592.419922"/>
    <use xlink:href="#SegoeUI-6d" x="2626.935547"/>
    <use xlink:href="#SegoeUI-61" x="2713.068359"/>
    <use xlink:href="#SegoeUI-6c" x="2763.947266"/>
    <use xlink:href="#SegoeUI-20" x="2788.166016"/>
    <use xlink:href="#SegoeUI-77" x="2815.558594"/>
    <use xlink:href="#SegoeUI-69" x="2887.824219"/>
    <use xlink:href="#SegoeUI-74" x="2912.042969"/>
    <use xlink:href="#SegoeUI-68" x="2945.929688"/>
    <use xlink:href="#SegoeUI-20" x="3002.521484"/>
    <use xlink:href="#SegoeUI-4c" x="3029.914062"/>
    <use xlink:href="#SegoeUI-6f" x="3076.984375"/>
    <use xlink:href="#SegoeUI-72" x="3135.578125"/>
    <use xlink:href="#SegoeUI-65" x="3168.96875"/>
    <use xlink:href="#SegoeUI-6e" x="3221.263672"/>
    <use xlink:href="#SegoeUI-74" x="3277.855469"/>
    <use xlink:href="#SegoeUI-7a" x="3311.742188"/>
    <use xlink:href="#SegoeUI-69" x="3356.957031"/>
    <use xlink:href="#SegoeUI-61" x="3381.175781"/>
    <use xlink:href="#SegoeUI-6e" x="3432.054688"/>
    <use xlink:href="#SegoeUI-20" x="3488.646484"/>
    <use xlink:href="#SegoeUI-70" x="3516.039062"/>
    <use xlink:href="#SegoeUI-65" x="3574.828125"/>
    <use xlink:href="#SegoeUI-61" x="3627.123047"/>
    <use xlink:href="#SegoeUI-6b" x="3678.001953"/>
    <use xlink:href="#SegoeUI-20" x="3727.708984"/>
    <use xlink:href="#SegoeUI-61" x="3755.101562"/>
    <use xlink:href="#SegoeUI-6e" x="3805.980469"/>
    <use xlink:href="#SegoeUI-64" x="3862.572266"/>
    <use xlink:href="#SegoeUI-20" x="3921.458984"/>
    <use xlink:href="#SegoeUI-64" x="3948.851562"/>
    <use xlink:href="#SegoeUI-69" x="4007.738281"/>
    <use xlink:href="#SegoeUI-70" x="4031.957031"/>
   </g>
  </g>
  <g id="legend_1">
   <g id="patch_17">
    <path d="M 205.557813 283 
L 370.442188 283 
Q 372.442188 283 372.442188 281 
L 372.442188 267.296875 
Q 372.442188 265.296875 370.442188 265.296875 
L 205.557813 265.296875 
Q 203.557813 265.296875 203.557813 267.296875 
L 203.557813 281 
Q 203.557813 283 205.557813 283 
z
" style="fill: #ffffff; opacity: 0.8; stroke: #cccccc; stroke-linejoin: miter"/>
   </g>
   <g id="line2d_36">
    <path d="M 207.557813 273.2 
L 217.557813 273.2 
L 227.557813 273.2 
" style="fill: none; stroke: #ff5100; stroke-width: 1.5; stroke-linecap: square"/>
   </g>
   <g id="text_41">
    <!-- thermal -->
    <g transform="translate(235.557813 276.7) scale(0.1 -0.1)">
     <use xlink:href="#SegoeUI-74"/>
     <use xlink:href="#SegoeUI-68" x="33.886719"/>
     <use xlink:href="#SegoeUI-65" x="90.478516"/>
     <use xlink:href="#SegoeUI-72" x="142.773438"/>
     <use xlink:href="#SegoeUI-6d" x="177.289062"/>
     <use xlink:href="#SegoeUI-61" x="263.421875"/>
     <use xlink:href="#SegoeUI-6c" x="314.300781"/>
    </g>
   </g>
   <g id="line2d_37">
    <path d="M 289.410938 273.2 
L 299.410938 273.2 
L 309.410938 273.2 
" style="fill: none; stroke: #9d00ff; stroke-width: 1.5; stroke-linecap: square"/>
   </g>
   <g id="text_42">
    <!-- nonthermal -->
    <g transform="translate(317.410938 276.7) scale(0.1 -0.1)">
     <use xlink:href="#SegoeUI-6e"/>
     <use xlink:href="#SegoeUI-6f" x="56.591797"/>
     <use xlink:href="#SegoeUI-6e" x="115.185547"/>
     <use xlink:href="#SegoeUI-74" x="171.777344"/>
     <use xlink:href="#SegoeUI-68" x="205.664062"/>
     <use xlink:href="#SegoeUI-65" x="262.255859"/>
     <use xlink:href="#SegoeUI-72" x="314.550781"/>
     <use xlink:href="#SegoeUI-6d" x="349.066406"/>
     <use xlink:href="#SegoeUI-61" x="435.199219"/>
     <use xlink:href="#SegoeUI-6c" x="486.078125"/>
    </g>
   </g>
  </g>
 </g>
 <defs>
  <clipPath id="peec7cb13e1">
   <rect x="38.85024" y="35.84697" width="146.202999" height="195.042935"/>
  </clipPath>
  <clipPath id="pb55bb11ebb">
   <rect x="231.139581" y="35.84697" width="146.202999" height="195.042935"/>
  </clipPath>
  <clipPath id="p912fe4f592">
   <rect x="423.831645" y="35.84697" width="146.202999" height="195.042935"/>
  </clipPath>
 </defs>
</svg>
